<svg version="1.2" xmlns="http://www.w3.org/2000/svg" viewBox="0 0 846 696" width="846" height="696">
	<title>iStock-1-ai</title>
	<style>
		.s0 { fill: #e08290 } 
		.s1 { fill: #4a4968 } 
		.s2 { fill: #363144 } 
		.s3 { fill: #f5c57b } 
		.s4 { fill: #efb465 } 
		.s5 { fill: #e59a49 } 
		.s6 { fill: #8c4155 } 
		.s7 { fill: #d36c85 } 
		.s8 { fill: #503751 } 
		.s9 { fill: #352235 } 
		.s10 { fill: #ffffff } 
		.s11 { fill: #d8dce5 } 
		.s12 { fill: #c3cad8 } 
		.s13 { fill: #b1bbc9 } 
		.s14 { fill: #a35265 } 
		.s15 { fill: #ffc9d2 } 
		.s16 { fill: #db8395 } 
		.s17 { fill: #7f4150 } 
		.s18 { fill: #f8a6b3 } 
		.s19 { fill: #4b4968 } 
		.s20 { fill: #9e9ddb } 
		.s21 { fill: #8ea55e } 
	</style>
	<g id="Illustration">
		<g id="Personal instructor">
			<g id="&lt;Group&gt;">
				<g id="&lt;Group&gt;">
					<path id="&lt;Path&gt;" class="s0" d="m424.1 502.3c0 0 7.8 140.7-13 186.3q-2.2 4.8-4.3 8.3h-23.6c-13.8-26.9-20.3-95.6-20.3-95.6l25.7-372.4c0 0 28.4 1 42 28.4 13.7 27.4 0 71.7-1.7 83-1.7 11.3 12.2 76-4.8 162z"/>
					<g id="&lt;Group&gt;">
						<path id="&lt;Path&gt;" class="s1" d="m371.2 542.7c0 0 30.6 88.2 40.3 158.5l-283.8 0.3c0 0 36.4-166 41.7-181 5.2-15 201.8 22.2 201.8 22.2z"/>
						<path id="&lt;Path&gt;" class="s2" d="m377.2 559l9.9 35.2c-25 11.4-97.2 14.3-127.2 11.7-46.2-4-101-41.7-101-41.7z"/>
						<path id="&lt;Path&gt;" class="s2" d="m142.2 701.2q-0.1 0-0.1-0.1c-0.6 0-1-0.5-0.9-1.1 8.9-62.4 35.6-130.6 35.9-131.3 0.2-0.5 0.8-0.7 1.3-0.5 0.5 0.2 0.8 0.8 0.6 1.3-0.3 0.7-26.9 68.6-35.8 130.8-0.1 0.5-0.5 0.9-1 0.9z"/>
						<path id="&lt;Path&gt;" class="s2" d="m154.3 700.8q-0.1 0-0.2 0c-0.5-0.1-0.9-0.6-0.8-1.1 7.7-62.6 32.3-128.6 32.6-129.3 0.2-0.5 0.8-0.7 1.3-0.5 0.5 0.2 0.8 0.7 0.6 1.2-0.3 0.7-24.8 66.5-32.6 128.8 0 0.5-0.5 0.9-1 0.9z"/>
					</g>
					<g id="&lt;Group&gt;">
						<path id="&lt;Path&gt;" class="s3" d="m199.8 202c0 0 65.5-16.9 102.6-10.4 37.1 6.6 98.8 38.2 98.8 38.2 0 0 11.5 97.2 7.1 143-4.4 45.8-20.4 204.3-20.4 204.3 0 0-192.1 36.4-227-11.6 0 0-9.8-176.7 2.9-227.6 8.2-32.8 36-135.9 36-135.9z"/>
						<path id="&lt;Path&gt;" class="s4" d="m288.6 189.2l60.6 13.4c0 0 7.2 14.6 10.4 33.8 4.6 27.4-12.4 44.3-35.8 40.4-38-6.3-64.2-85.3-64.2-85.3z"/>
						<g id="&lt;Group&gt;">
							<path id="&lt;Path&gt;" class="s5" d="m185.4 549.6c-7.2 0-14.2-0.9-20.9-3-0.5-0.2-0.8-0.8-0.7-1.3 0.2-0.5 0.8-0.8 1.3-0.6 38 12 87.7-14.6 122.7-39 38.1-26.5 67.6-56.3 67.8-56.6 0.4-0.4 1.1-0.4 1.5 0 0.4 0.4 0.4 1 0 1.4-0.3 0.3-29.9 30.2-68.1 56.8-29.3 20.4-68.8 42.3-103.6 42.3z"/>
							<path id="&lt;Path&gt;" class="s5" d="m202.4 495.5q-6.1 0-11.7-1.2c-20.3-4.2-29-18.3-29.4-18.9-0.2-0.4-0.1-0.9 0.2-1.2 0.4-0.3 0.9-0.4 1.3-0.1 7.8 6.2 17.1 8.4 27.6 6.8 48.4-7.7 108.5-95.6 109.1-96.5 0.3-0.4 0.9-0.5 1.4-0.2 0.4 0.3 0.6 0.9 0.3 1.4-2.5 3.6-61.2 89.5-110.5 97.2-8.7 1.4-16.6 0.2-23.7-3.5 4.3 4.4 12.1 10.6 24.1 13.1 20.6 4.3 45.4-3.6 73.5-23.5 42.7-30.2 115-121.4 115.7-122.3 0.4-0.4 1-0.5 1.4-0.2 0.5 0.4 0.5 1 0.2 1.4-0.7 1-73.2 92.4-116.2 122.7-23.5 16.6-44.7 25-63.3 25z"/>
							<path id="&lt;Path&gt;" class="s4" d="m205.8 269.7c0 0-10.7 148.7-38.7 147.6-15.7-0.7-2-101.4-2-101.4z"/>
							<path id="&lt;Path&gt;" class="s5" d="m330.8 253.3c-14.2 0-29.6-7.7-45-22.8-13.9-13.5-23-28.2-23.1-28.4-0.3-0.5-0.2-1.1 0.3-1.4 0.5-0.3 1.1-0.1 1.4 0.4 0.3 0.5 36.2 57.9 74.1 49.4 0.6-0.2 1.1 0.2 1.2 0.7 0.2 0.5-0.2 1.1-0.7 1.2q-4 0.9-8.2 0.9z"/>
						</g>
					</g>
					<g id="&lt;Group&gt;">
						<path id="&lt;Path&gt;" class="s0" d="m172.3 370.4c-4.3 2.9-7.7-31.7-9.6-29.6-20.6 24-57.5 56.3-57.5 56.3 33.5 8.1 74.2 89.8 86.5 96.3 12.2 6.6 18.3 73.7 9.6 75.3-5.8 1.1-19.5-36-22.7-36.8-3.3-0.8-26.2 59.7-26.2 59.7 0 0-8.5 7.3-14-44-1-9.3 9.1-42.7 9.1-42.7 0 0-127.7-57.9-133.2-100.4-2-15.5 76.1-108.9 78.6-114.6 2.4-5.8 17.7-35.5 43.1-63.3 25.4-27.9 71.5-26.6 71.5-26.6 0 0 9.8 140.1-35.2 170.4z"/>
						<path id="&lt;Path&gt;" class="s6" d="m129.6 312c-0.4 0-0.8-0.2-0.9-0.6-0.2-0.5 0.1-1.1 0.6-1.3 32.5-11.5 50.1-42.2 50.3-42.5 0.2-0.5 0.8-0.7 1.3-0.4 0.5 0.2 0.7 0.9 0.4 1.3-0.2 0.3-18.2 31.8-51.4 43.5q-0.1 0-0.3 0z"/>
						<path id="&lt;Path&gt;" class="s6" d="m162.7 341.8q-0.3 0-0.5-0.2c-0.5-0.3-0.6-0.9-0.3-1.4 7.1-9.6 24.3-25.6 25-26.3 0.4-0.4 1.1-0.4 1.4 0.1 0.4 0.4 0.4 1 0 1.4-0.2 0.1-17.8 16.5-24.8 26-0.1 0.3-0.5 0.4-0.8 0.4z"/>
						<path id="&lt;Path&gt;" class="s6" d="m105.2 398.1q-0.1 0-0.2-0.1c-8.1-1.6-25.6-6.1-25.8-6.2-0.5-0.1-0.9-0.6-0.7-1.2 0.1-0.5 0.7-0.8 1.2-0.7 0.2 0 17.6 4.6 25.7 6.2 0.5 0.1 0.9 0.6 0.8 1.2-0.1 0.4-0.6 0.8-1 0.8z"/>
					</g>
					<path id="&lt;Path&gt;" class="s6" d="m143.1 575.8q-0.1 0-0.2 0c-0.5-0.1-0.9-0.6-0.8-1.1 0-0.1 1.7-12.1 0.9-16.2-1-4.6 2.1-12 2.2-12.3 0.2-0.5 0.8-0.7 1.3-0.5 0.5 0.2 0.8 0.8 0.5 1.3 0 0-2.9 7.1-2.1 11.1 0.9 4.5-0.8 16.4-0.8 16.9-0.1 0.5-0.5 0.8-1 0.8z"/>
				</g>
				<g id="&lt;Group&gt;">
					<path id="&lt;Path&gt;" class="s0" d="m371.1 157.8c0 0-16.2 43.3-16.5 55.2-0.5 23-12.8 28.8-20.5 28.8-27.3 0-67.6-40.1-61.7-50.9 10.3-19 14.6-40.1 21-67.4 4.4-19 77.7 34.3 77.7 34.3z"/>
					<path id="&lt;Path&gt;" class="s7" d="m306.2 168.2c-2-5.8-2.9-23.3-2.9-46.1 14.8-1.8 70.4 35.3 70.4 35.3 0 0-14 30.5-17 44.2-20.3-3.6-46.3-21.3-50.5-33.4z"/>
					<path id="&lt;Path&gt;" class="s0" d="m401 53.1c0 0 8.9 33.2 5.7 49.6-1.2 6.2-3.2 8.3-5.4 15.7-1.4 4.6 0 10.3-1.2 15.5-6.4 26.3-16.6 55.8-30.6 57.4-25.8 2.9-59.3-17-65-33.4-4-11.5-11.8-83.4-2.4-94.8 9.3-11.4 43.6-27.3 61.6-28.9 18-1.5 37.3 18.9 37.3 18.9z"/>
					<g id="&lt;Group&gt;">
						<path id="&lt;Path&gt;" class="s8" d="m290.8 51.7c14.7-16.1 40.3-27 71.2-25 31 2 48.4 20.2 59.4 19.1 6.3-0.6-3.4 26.3-18.6 35-10.8 6.3-12.8 6.6-21.2 4.4-10.2-2.6-18.9-7.7-29.3-4.5-10.1 3-13.2 9.4-12.2 16.4 1 7 1.9 20.3 1.9 20.3l-26.7 3.1c0 0-15.9 31.5-25.7 29.5-5.3-1-4.7-30.3-7.4-51.1-2.6-20.8 0.5-38.4 8.6-47.2z"/>
						<path id="&lt;Path&gt;" class="s9" d="m290.8 51.7c14.7-16.1 40.3-27 71.2-25q3.7 0.3 7.1 0.8c-27.3 2.4-60.1 9.5-62.7 29.7 0 0-17.5-0.8-14.5 30.6 2.6 27.9-0.7 50.7-2.9 62-4.6-3-4.2-30.9-6.8-50.9-2.6-20.8 0.5-38.4 8.6-47.2z"/>
						<path id="&lt;Path&gt;" class="s9" d="m379.8 69.1q0 0 0 0c-7.7-0.5-12.7-3.1-17.9-5.9-4.3-2.3-8.7-4.7-15-6.2-13.9-3.4-28 4.3-28.1 4.4-0.4 0.2-0.9 0.1-1.3-0.2-0.3-0.3-0.3-0.8-0.1-1.2 0.4-0.6 8.9-13.9 24-17.6 11.8-3 22.6-2.4 36.2 1.8 13.3 4.3 27.4 3.5 27.5 3.5 0.6 0 1.1 0.4 1.1 0.9 0 0.6-0.4 1.1-0.9 1.1-0.6 0-14.7 0.8-28.4-3.6-13.1-4.1-23.6-4.7-35-1.8-9.9 2.5-17 9.5-20.4 13.6 5.3-2.2 15.5-5.4 25.9-2.9 6.6 1.6 11.1 4 15.4 6.4 5.3 2.8 9.8 5.3 17.1 5.7 0.5 0 1 0.5 0.9 1 0 0.5-0.4 1-1 1z"/>
						<path id="&lt;Path&gt;" class="s9" d="m327.2 94.8q-0.3 0-0.5-0.1c-0.5-0.3-0.7-0.9-0.4-1.4 6.3-11.4 6.3-17.6 5.2-20.8-0.9-2.7-2.7-3.5-2.7-3.5-0.5-0.2-0.8-0.8-0.6-1.3 0.3-0.5 0.8-0.8 1.3-0.6 0.1 0.1 2.6 1.1 3.9 4.7 1.8 5.2 0 12.8-5.4 22.5-0.1 0.3-0.5 0.5-0.8 0.5z"/>
						<path id="&lt;Path&gt;" class="s9" d="m300 94.8q-0.1 0-0.1 0c-0.5 0-1-0.5-0.9-1.1 0.7-19.3 8.7-23.6 9.1-23.8 0.5-0.2 1.1 0 1.3 0.5 0.3 0.5 0.1 1.1-0.4 1.3-0.1 0.1-7.3 4.2-8 22.1-0.1 0.6-0.5 1-1 1z"/>
					</g>
					<g id="&lt;Group&gt;">
						<path id="&lt;Path&gt;" class="s6" d="m387.2 145.5c-1.9 0-5-0.4-9.9-1.9-0.5-0.2-0.8-0.7-0.6-1.2 0.1-0.6 0.7-0.9 1.2-0.7 8.3 2.5 11 1.6 11 1.6 0.6-0.3 1.3-0.6 1.8-1.3 1.2-1.6 0.4-4.1-0.7-7.5-0.5-1.9-1.2-4-1.7-6.4-0.7-3.4-0.9-6.9-0.7-10.5 0-0.6 0.5-1 1-1 0.6 0.1 1 0.5 1 1.1-0.2 3.4 0 6.8 0.7 10 0.5 2.3 1.1 4.4 1.7 6.2 1.2 3.9 2.1 6.9 0.3 9.4-0.8 1-1.8 1.5-2.6 1.8-0.1 0.1-0.9 0.4-2.5 0.4z"/>
						<g id="&lt;Group&gt;">
							<path id="&lt;Path&gt;" class="s6" d="m364.6 170.3c-9.3-1.4-18.3-21.5-18.3-21.5 9.1 2.6 38.2 7.8 38.2 7.8 0 0-10.7 15.2-19.9 13.7z"/>
							<path id="&lt;Path&gt;" class="s10" d="m346.3 148.8c6.7 1.9 23.9 5.2 32.8 6.8-1 2.2-2.5 4.9-3.8 5.2-1.6 0.4-16.3-2.3-24.9-4.2-2.5-4.2-4.1-7.8-4.1-7.8z"/>
						</g>
						<g id="&lt;Group&gt;">
							<path id="&lt;Path&gt;" class="s6" d="m367.6 112.1c1.8 0.2 3 2.3 2.7 4.6-0.3 2.3-2 3.9-3.8 3.7-1.8-0.2-3-2.3-2.7-4.6 0.4-2.3 2.1-4 3.8-3.7z"/>
							<path id="&lt;Path&gt;" class="s6" d="m361.1 116.1q-0.4 0-0.7-0.2c-0.4-0.4-0.5-1-0.1-1.4 3.6-4.5 9.6-2.6 12.3-0.9 0.4 0.2 0.6 0.9 0.3 1.3-0.3 0.5-0.9 0.6-1.4 0.4-0.2-0.2-6.2-3.8-9.7 0.4-0.1 0.3-0.4 0.4-0.7 0.4z"/>
						</g>
						<g id="&lt;Group&gt;">
							<path id="&lt;Path&gt;" class="s6" d="m398.4 115.2c1.9 0.3 3.1 2.4 2.8 4.8-0.3 2.4-2.1 4.2-4 3.9-1.8-0.2-3.1-2.4-2.7-4.8 0.3-2.4 2-4.1 3.9-3.9z"/>
							<path id="&lt;Path&gt;" class="s6" d="m391.8 119.4q-0.3 0-0.6-0.2c-0.4-0.3-0.5-1-0.2-1.4 3.6-4.5 9.6-2.6 12.3-0.9 0.5 0.3 0.6 0.9 0.3 1.4-0.3 0.4-0.9 0.6-1.3 0.3-0.3-0.2-6.3-3.8-9.7 0.5-0.2 0.2-0.5 0.3-0.8 0.3z"/>
						</g>
						<path id="&lt;Path&gt;" class="s8" d="m378.4 105.9c0 0-14.2-5.1-22.7 0 0 0 1.8-6.9 7.8-7.5 8.1-0.8 14.9 7.5 14.9 7.5z"/>
						<path id="&lt;Path&gt;" class="s8" d="m404.7 102.3c5 0.9 1 6.6 1 6.6-7.2-4.9-13.5-1.3-13.5-1.3 0 0 4.4-6.6 12.5-5.3z"/>
					</g>
					<g id="&lt;Group&gt;">
						<path id="&lt;Path&gt;" class="s0" d="m328.8 135.5c-5.7 3.5-16.6-2.7-21.5-10.7-5.2-8.7-5-22.2 1.1-25.4 5.8-3 15.7 3.6 20.3 11 5.2 8.3 6.1 21.5 0.1 25.1z"/>
						<path id="&lt;Path&gt;" class="s6" d="m323.1 123.4q-0.2 0-0.4-0.1l-11.3-4.4c-0.5-0.3-0.8-0.8-0.6-1.3 0.3-0.6 0.8-0.8 1.3-0.6l9.5 3.8c-3.3-11-10.5-11.8-10.8-11.9-0.6 0-1-0.5-0.9-1 0-0.6 0.5-1 1-1 0.4 0.1 9.8 1 13.2 15.3 0.1 0.3-0.1 0.7-0.4 1q-0.2 0.2-0.6 0.2z"/>
					</g>
				</g>
			</g>
			<g id="&lt;Group&gt;">
				<g id="&lt;Group&gt;">
					<path id="&lt;Path&gt;" class="s11" d="m749.1 532.9c18.3 63 32.6 168.1 32.6 168.1 0 0-271.3 0-276.5-1.9-5.3-1.9 24.7-168.6 24.7-168.6 0 0 201-60.6 219.2 2.4z"/>
					<path id="&lt;Path&gt;" class="s12" d="m761.6 580.9c0 0-37.7 21.7-144.6 5.4-39.7-6-73.1-20-91.6-30l7.7-51.8z"/>
					<path id="&lt;Path&gt;" class="s13" d="m673.4 669.5c-0.8 0-1.5-0.4-2-1.1-1.5-2.1-1.9-8.9 12.4-42.5 4.8-11.4 10-22.6 13.2-29.4-13.9 15.8-54 59-78 61.2-3.7 0.3-6-0.5-6.9-2.6-4.3-9.7 32.1-45.9 48.8-61.8-8.3 5.1-21.6 13.2-35.1 20.7-13 7.3-23.6 12.6-31.6 16-10.7 4.5-16.6 5.3-18.4 2.5q-1-1.4-0.5-3.3c2.9-12.9 55.9-45 58.1-46.3 0.5-0.3 1.1-0.2 1.4 0.3 0.3 0.5 0.1 1.1-0.3 1.4-18.9 11.3-55.1 35.4-57.3 45q-0.2 1.1 0.2 1.8c0.9 1.3 6.8 3.6 47.4-19.1 22.1-12.3 43.6-26 43.8-26.2 0.4-0.2 1-0.1 1.3 0.3 0.3 0.4 0.3 1-0.1 1.3-24.4 22.4-59.4 58.6-55.9 66.6q0.8 1.8 5 1.4c27.9-2.5 80.8-65.5 81.4-66.1 0.3-0.4 0.9-0.5 1.3-0.2 0.4 0.3 0.6 0.8 0.3 1.3-13 27-32.4 71.6-28.9 76.6 0.1 0.1 0.2 0.2 0.6 0.1 7.7-0.9 39.2-57 58.5-94.5 0.2-0.5 0.8-0.7 1.3-0.5 0.5 0.3 0.7 0.9 0.5 1.4-5 9.6-48.8 94.3-60.1 95.6q-0.2 0.1-0.4 0.1z"/>
				</g>
				<g id="&lt;Group&gt;">
					<path id="&lt;Path&gt;" class="s14" d="m596.6 12.3c5.6-7.4 19.5-4.8 27.3 0 7.9 4.8 7.9 17.8 3.1 21.7-9.6 7.8-23.9 10-28.7 3.9-4.8-6.1-7.5-18-1.7-25.6z"/>
					<path id="&lt;Path&gt;" class="s15" d="m630.5 110.6c5.3 25.7 20.3 39.2 34.7 46.8 7.7 4.1-46.9 75.2-57.8 78.6-11 3.3-39-31.8-34.2-41.8 4.7-10-3.1-46.7-3.1-46.7 0 0 55.1-62.6 60.4-36.9z"/>
					<path id="&lt;Path&gt;" class="s15" d="m618.8 51.4c0 0 12.4 62.5 14.1 69.3 1.8 6.9-21.3 47.8-22.9 51.9-1.7 4-31.4 15.1-37.8 10.9-6.4-4.1-26.8-30.5-30.9-36.2-4.2-5.6-7.1-25.9-10.8-29.8-1.1-1.1-6.6-6.6-8.8-11.5-5.4-12.3-10.7-33.1-1.7-40.6 46.4-38.6 98.8-14 98.8-14z"/>
					<path id="&lt;Path&gt;" class="s16" d="m551.7 138.7c-1 0-2-0.2-2.8-0.6-4.1-2.1-2.7-20.7-2.1-26.3 0-0.5 0.5-1 1.1-0.9 0.5 0.1 0.9 0.5 0.9 1.1-1.1 10.9-1 23.3 1 24.3 2.9 1.5 8.7-1.6 10.7-2.9 0.4-0.4 1-0.2 1.3 0.2 0.4 0.5 0.2 1.1-0.2 1.4-0.3 0.2-5.5 3.7-9.9 3.7z"/>
					<g id="&lt;Group&gt;">
						<path id="&lt;Path&gt;" class="s17" d="m573.9 101.4c0.6 2.3-0.4 4.5-2.2 5-1.8 0.4-3.8-1-4.3-3.3-0.6-2.3 0.4-4.5 2.2-5 1.8-0.4 3.7 1 4.3 3.3z"/>
						<path id="&lt;Path&gt;" class="s17" d="m564.7 101c-0.4 0-0.7-0.2-0.9-0.5-0.3-0.5-0.1-1.1 0.4-1.4 0.2-0.1 5-2.9 10.2-1.1 0.6 0.2 0.8 0.7 0.7 1.3-0.2 0.5-0.8 0.8-1.3 0.6-4.4-1.5-8.6 0.9-8.6 1q-0.2 0.1-0.5 0.1z"/>
					</g>
					<g id="&lt;Group&gt;">
						<path id="&lt;Path&gt;" class="s17" d="m539.5 114.7c0.5 2.1-0.4 4.2-2.1 4.6-1.7 0.4-3.5-0.9-4-3-0.5-2.2 0.4-4.2 2.1-4.7 1.6-0.4 3.4 1 4 3.1z"/>
						<path id="&lt;Path&gt;" class="s17" d="m530.9 114.4c-0.3 0-0.7-0.2-0.9-0.5-0.2-0.5-0.1-1.1 0.4-1.4 0.2-0.1 4.7-2.7 9.6-1.1 0.5 0.2 0.8 0.8 0.6 1.3-0.1 0.5-0.7 0.8-1.2 0.6-4.1-1.3-7.9 0.9-8 0.9q-0.2 0.2-0.5 0.2z"/>
					</g>
					<path id="&lt;Path&gt;" class="s14" d="m556.5 94.6c-1.3-2 4.8-6.7 9.6-8.1 4.8-1.3 17-2.3 17.6-0.7 0.6 1.6-12.9 5.3-15.7 5.9-2.8 0.6-10.2 4.7-11.5 2.9z"/>
					<path id="&lt;Path&gt;" class="s14" d="m530.6 104.1c-1.7 0.8-9.3 3.8-9.8 2.2-0.6-1.7 4.2-6.5 7.9-7.4 3.2-0.8 8.5 0 8.9 2.3 0.4 2-5.4 2-7 2.9z"/>
					<path id="&lt;Path&gt;" class="s14" d="m613.5 80.1c-9.5 0.8-25.4-21.2-37.3-20.9-10.4 0.3-33.1 12.4-37.3 16-7.3 6.4-28.8 10.3-29.2-9.9-0.4-23 41.6-47.2 77.3-43 38.3 4.6 38.7 51.2 38.7 51.2 0 0 1.4 5.4-12.2 6.6z"/>
					<path id="&lt;Path&gt;" class="s6" d="m575.7 47q-0.4 0-0.7-0.3c-0.4-0.4-0.4-1 0-1.4 0.5-0.5 11.9-12 30.3-15.3 0.6-0.1 1.1 0.3 1.2 0.8 0.1 0.5-0.3 1.1-0.8 1.2-17.8 3.2-29.2 14.6-29.3 14.7q-0.3 0.3-0.7 0.3z"/>
					<path id="&lt;Path&gt;" class="s6" d="m543.7 61.4q-0.2 0-0.4-0.1c-0.5-0.2-0.7-0.8-0.5-1.3 0.1-0.3 11.4-29.1 50.9-33 0.5-0.1 1 0.3 1.1 0.8 0 0.6-0.4 1.1-0.9 1.1-38.2 3.9-49.2 31.5-49.3 31.8-0.1 0.4-0.5 0.7-0.9 0.7z"/>
					<path id="&lt;Path&gt;" class="s6" d="m525.6 73.7q-0.1 0-0.1 0c-0.6 0-1-0.5-0.9-1.1 0-0.3 3.1-29.7 32.7-40.5 0.5-0.2 1.1 0.1 1.3 0.6 0.2 0.5-0.1 1.1-0.6 1.3-28.5 10.3-31.4 38.5-31.4 38.8-0.1 0.5-0.5 0.9-1 0.9z"/>
					<path id="&lt;Path&gt;" class="s6" d="m602.5 54q-0.4 0-0.7-0.2c-0.4-0.4-0.4-1 0-1.4 3.2-3.5 7.2-9.3 5.9-11.4-0.3-0.4-0.2-1 0.3-1.3 0.4-0.3 1-0.2 1.3 0.3 2.6 4-4.6 12.1-6.1 13.7-0.1 0.2-0.4 0.3-0.7 0.3z"/>
					<g id="&lt;Group&gt;">
						<path id="&lt;Path&gt;" class="s15" d="m607.8 90c0 0 9-19.6 17.9-18.2 8.9 1.3 9.8 14.2 7.9 23.1-1.4 6.8-8.7 17.5-14.2 18.3-11.4 1.6-11.6-23.2-11.6-23.2z"/>
						<path id="&lt;Path&gt;" class="s16" d="m619.4 114.2c-0.5 0-0.9-0.4-1-0.9 0-0.5 0.3-1 0.9-1.1 2.6-0.4 5.2-2.6 8.2-7.4 0.3-0.5 1-0.6 1.4-0.3 0.5 0.3 0.6 0.9 0.3 1.4-3.4 5.3-6.4 7.8-9.6 8.3q-0.1 0-0.2 0z"/>
						<path id="&lt;Path&gt;" class="s16" d="m619.1 94.7c-0.5 0-0.9-0.3-1-0.8-2.3-14.9 6.2-18.7 6.6-18.8 0.5-0.2 1.1 0 1.3 0.5 0.2 0.5 0 1.1-0.5 1.3-0.3 0.2-7.5 3.4-5.4 16.7 0.1 0.5-0.3 1-0.8 1.1q-0.1 0-0.2 0z"/>
						<path id="&lt;Path&gt;" class="s16" d="m618.8 90.2c-0.6 0-1-0.4-1-0.9-0.2-1.6 0.5-2.6 1.1-3.2 2.1-1.9 6.3-1.2 6.8-1.1 0.5 0.1 0.9 0.6 0.8 1.2-0.1 0.5-0.6 0.9-1.2 0.8-0.9-0.2-3.9-0.4-5.1 0.6-0.2 0.2-0.5 0.6-0.5 1.5 0.1 0.6-0.3 1.1-0.9 1.1q0 0 0 0z"/>
					</g>
					<path id="&lt;Path&gt;" class="s14" d="m544 151c0 0 8.8-7.1 12.9-9.7 3.8-2.4 11-5.9 19.3-7.8 5.3-1.2 17-5 20.5-13.3 3.4-8.3 3.8-29.2 3.8-29.2l7.1-2.7c0 0 13.9 28.4 21.7 37.8 7.7 9.5-13.8 46-23 50.3-9.1 4.3-26.7 13.5-32.5 11.1-5.7-2.5-29.8-36.5-29.8-36.5z"/>
					<path id="&lt;Path&gt;" class="s15" d="m556.1 152c0 0 6.1-8.8 44-18.4 0 0-1.2 26.7-16.9 32.4-10.3 3.8-27.1-14-27.1-14z"/>
					<path id="&lt;Path&gt;" class="s16" d="m561.4 151.8l35.3-15.3c-0.9 7.1-7 18.8-14.1 22.3-10.8 5.3-21.2-7-21.2-7z"/>
					<path id="&lt;Path&gt;" class="s10" d="m594.9 143c-10.4 6.7-25.1 12-26.3 11.7-0.8-0.1-2.3-2.7-3.4-4.6l31.5-13.6c-0.3 1.9-0.9 4.2-1.8 6.5z"/>
				</g>
				<g id="&lt;Group&gt;">
					<g id="&lt;Group&gt;">
						<path id="&lt;Path&gt;" class="s15" d="m547.2 316.8c1 31.3-32.3 87.8-32.3 87.8l-48.8 9.8-25.6-49.8c0 0 26.7-1.4 28-18.6 3-41.4 14.1-60.5 14.1-60.5 0 0 63.6 0 64.6 31.3z"/>
						<path id="&lt;Path&gt;" class="s18" d="m540.3 311c0 0 25 56.9-2.7 34.2-27.6-22.8-57.6-53.9-57.6-53.9z"/>
						<g id="&lt;Group&gt;">
							<path id="&lt;Path&gt;" class="s15" d="m456.9 384.3c0 0-1 8.7-4.4 9.7-3.5 1-11.1-2.7-11.1-2.7 0 0-2.3 4.8-5.8 6.2-3.9 1.6-10.5-4.3-10.5-4.3 0 0-1.3 3.3-4.1 4.5-4.1 1.7-22-13.4-24-20.8-0.5-2.1 0.8-5.6 3.2-7.7 2.5-2.1 8.5-0.9 9.9-1.4 1.5-0.5 2.7-6.3 6.7-8.1 4-1.8 8.3 1.2 9.6 0.3 1.3-0.9 2-6 5.6-7.8 2.9-1.4 7 0.3 8.6-0.4 2-0.8 4.2-6.9 7.3-8.1 4.6-1.8 9.1 0.9 10.4 3.5 0.9 1.8 30.5 57.8 22.2 62.4-9.4 5.4-23.6-25.3-23.6-25.3z"/>
							<path id="&lt;Path&gt;" class="s16" d="m478.2 411.3q-1 0-2.1-0.4c-7.4-2.4-15.6-17.1-18.7-23.4-0.7 2.8-2.1 6.7-4.7 7.4-3.1 0.9-8.6-1.3-10.8-2.3-0.9 1.5-3.1 4.7-5.9 5.8-3.6 1.5-8.5-1.9-10.6-3.6-0.7 1.2-2 3-4 3.8-2.7 1.1-8.3-2.7-11.4-5.1-0.4-0.4-0.5-1-0.2-1.4 0.4-0.5 1-0.6 1.4-0.2 5.4 4.2 8.6 5.2 9.4 4.9 2.3-1 3.6-3.9 3.6-4 0.1-0.3 0.4-0.5 0.7-0.6 0.3 0 0.7 0.1 0.9 0.3 1.7 1.5 6.7 5.2 9.4 4.1 3.1-1.3 5.3-5.7 5.3-5.7 0.3-0.5 0.9-0.7 1.4-0.5 2 1 7.7 3.3 10.3 2.6 2.1-0.6 3.4-6.2 3.7-8.8 0.1-0.5 0.4-0.8 0.8-0.9 0.5-0.1 0.9 0.1 1.1 0.5 0.1 0.3 10.5 22.5 18.9 25.2q1.8 0.6 3.3-0.2c1.5-0.9 4.7-7-17.5-50.9-0.2-0.5 0-1.1 0.5-1.4 0.5-0.2 1.1 0 1.3 0.5 24.7 49 18.7 52.4 16.7 53.5q-1.3 0.8-2.8 0.8z"/>
							<path id="&lt;Path&gt;" class="s16" d="m456.9 385.3c-0.4 0-0.8-0.3-0.9-0.7-2.8-8.5-11.3-22.8-11.4-22.9-0.3-0.5-0.1-1.1 0.3-1.4 0.5-0.3 1.1-0.1 1.4 0.3 0.4 0.6 8.7 14.7 11.6 23.4 0.1 0.5-0.2 1-0.7 1.2q-0.1 0.1-0.3 0.1z"/>
							<path id="&lt;Path&gt;" class="s16" d="m441.4 392.3c-0.3 0-0.6-0.2-0.8-0.5-3-5-12-23.1-12.3-23.9-0.3-0.5-0.1-1.1 0.4-1.3 0.5-0.3 1.1-0.1 1.4 0.4 0 0.2 9.2 18.8 12.2 23.8 0.3 0.5 0.1 1.1-0.3 1.4q-0.3 0.1-0.6 0.1z"/>
							<path id="&lt;Path&gt;" class="s16" d="m425.1 394.2c-0.2 0-0.5-0.1-0.7-0.3-5.4-6-12.1-18.8-12.4-19.3-0.2-0.5-0.1-1.1 0.4-1.4 0.5-0.2 1.1 0 1.4 0.5 0.1 0.1 6.9 13 12.1 18.9 0.3 0.4 0.3 1-0.1 1.4q-0.3 0.2-0.7 0.2z"/>
						</g>
					</g>
					<g id="&lt;Group&gt;">
						<path id="&lt;Path&gt;" class="s19" d="m574.7 187.3c0 0 34.8 37.9 88.7-30.1 0 0 86.1 2 113.1 32.3 22.5 25.3 30.9 81.5 30.9 81.5l-47.1 37.7c0 0-14.1 76.1-14.1 104.3 0 28.3 20.7 146.7 20.7 164.9 0 18.1-197.8 13.5-242.2-51.1 0 0 18.8-113.8 10.8-140-8.1-26.3-20.3-76.1-20.3-76.1l-37.2-20.4c0 0 5.4-96.1 96.7-103z"/>
						<path id="&lt;Path&gt;" class="s2" d="m723.3 302.3c-0.3 0-0.6-0.2-0.8-0.4-23.7-33.6-27.9-59.7-27.3-75.7 0.7-17.4 6.9-26.8 7.2-27.2 0.3-0.5 0.9-0.6 1.4-0.3 0.4 0.3 0.6 1 0.3 1.4-0.1 0.1-6.3 9.4-6.9 26.3-0.5 13.2 2.4 33.2 17 58.7-6.9-16-14.5-40.3-7.8-58.9 0.2-0.5 0.7-0.8 1.3-0.6 0.5 0.2 0.7 0.8 0.6 1.3-10.4 28.7 15.6 73.4 15.9 73.9 0.2 0.4 0.1 1-0.4 1.3q-0.2 0.2-0.5 0.2z"/>
						<path id="&lt;Path&gt;" class="s2" d="m723.3 302.3q-0.1 0-0.3-0.1c-0.4-0.1-0.7-0.5-0.7-1 0-0.3 2.1-29.9 25-61.8 0.3-0.4 0.9-0.5 1.3-0.2 0.5 0.3 0.6 1 0.3 1.4-17.1 23.9-22.4 46.4-24 56 6.1-9.7 23.7-33.5 53.8-44.1 0.5-0.1 1 0.1 1.2 0.7 0.2 0.5-0.1 1-0.6 1.2-37.3 13.2-54.9 47-55.1 47.3-0.2 0.4-0.5 0.6-0.9 0.6z"/>
						<path id="&lt;Path&gt;" class="s2" d="m516.7 307.2c-0.6 0-1-0.5-1-1-0.7-21.4 6.4-52.1 6.5-52.4 0.1-0.5 0.7-0.9 1.2-0.7 0.5 0.1 0.9 0.6 0.7 1.2 0 0.3-7.1 30.7-6.4 51.8 0 0.6-0.5 1-1 1.1q0 0 0 0z"/>
						<path id="&lt;Path&gt;" class="s2" d="m667.9 420c-8.3 0-17.1-0.7-26.3-2.4-0.6-0.1-0.9-0.6-0.8-1.2 0.1-0.5 0.6-0.9 1.1-0.8 60.4 11.1 96.7-18.2 101.1-27.1 0.5-1.2 0.5-1.8 0.3-1.9-0.4-0.5-3.4-0.5-11.1 4.5-24.7 15.7-66.7 15.5-72.7 11.2-1.1-0.8-1.1-1.7-1-2.1 0.3-0.9 0.8-3.1 16.4-5.1 44.8-5.7 72.2-61.4 72.5-62 0.2-0.5 0.8-0.7 1.3-0.5 0.5 0.3 0.7 0.9 0.5 1.4-0.3 0.5-28.1 57.2-74.1 63.1-11.8 1.5-14.1 3.1-14.5 3.5 0.2 0.2 0.8 0.6 2.7 1.1 11.9 2.9 46.7 1.2 67.8-12.3 4.9-3.1 11.2-6.4 13.6-4.3 0.7 0.6 1.2 1.8 0 4.3-5 10.3-33.7 30.6-76.8 30.6z"/>
					</g>
					<path id="&lt;Path&gt;" class="s20" d="m487 487.8c-4.1-2.7-79.9-92.3-77.9-96.3 2-4.1 142.5-0.7 147.9 0 5.4 0.7 66 101 66 101 0 0-132-2-136-4.7z"/>
					<g id="&lt;Group&gt;">
						<g id="&lt;Group&gt;">
							<path id="&lt;Path&gt;" class="s15" d="m723.3 301.3c0 0 43.7 3.3 84.1-30.3 0 0 27 43.1 29.7 92.9 2.7 49.8 9.4 41.7 5.4 57.9-4.1 16.1-74.1 64.6-163 88.8 0 0-71.3 7.7-80.1 3.6-19.9-9.2-35.7-15.9-46.2-23.7-4.2-3.2-13.1-14.5-9.9-18.7 1.7-2.1 9.9 4.1 9.9 4.1 0 0-22.2-12.4-19.8-18 3.3-7.4 36.2 10.2 36.2 10.2 0 0-23-13.1-19.3-18.7 4.8-7.3 33.4 10.5 33.4 10.5l25.3 10-8-12.9c0 0 12-3.8 17.9-3.4 11.5 0.9 36.4 18.7 43.1 16.7 30.8-9.3 78.9-74 102.4-78.1 11.4-2.1-12.2-21.6-21.6-40.4-10-20-19.5-50.5-19.5-50.5z"/>
							<path id="&lt;Path&gt;" class="s16" d="m697.9 495.8c-0.5 0-0.9-0.3-1-0.7-0.2-0.6 0.2-1.1 0.7-1.3 89.1-24.5 120.1-75 120.4-75.5 0.2-0.5 0.9-0.6 1.3-0.3 0.5 0.3 0.7 0.9 0.4 1.3-0.3 0.6-7.9 13.1-26.8 28.9-17.3 14.6-47.8 34.7-94.8 47.6q-0.1 0-0.2 0z"/>
							<path id="&lt;Path&gt;" class="s18" d="m817.4 289.9c-45.3 20.5-77.5 18.5-94 11.9q-0.1-0.5-0.1-0.5c0 0 43.7 3.3 84.1-30.3 0 0 7 11.8 10 18.9z"/>
							<path id="&lt;Path&gt;" class="s16" d="m612.4 470.2c-1.4 0-2.6-0.1-3.6-0.2-0.5-0.1-0.9-0.6-0.8-1.2 0.1-0.5 0.6-0.9 1.2-0.8 3.7 0.6 12.5-0.4 12.6-0.4 0.5-0.1 1 0.3 1.1 0.8 0 0.6-0.4 1.1-0.9 1.1-0.3 0.1-5.4 0.7-9.6 0.7z"/>
							<path id="&lt;Path&gt;" class="s16" d="m614.8 491.2q-0.1 0-0.3-0.1c0 0-8.1-2-13.3-3.2-5.4-1.3-31.1-18.3-32.2-19-0.4-0.3-0.5-0.9-0.2-1.4 0.3-0.4 0.9-0.6 1.3-0.2 7.4 4.8 27.4 17.7 31.5 18.6 5.2 1.2 13.3 3.3 13.4 3.3 0.6 0.1 0.9 0.7 0.7 1.2-0.1 0.4-0.5 0.8-0.9 0.8z"/>
							<path id="&lt;Path&gt;" class="s16" d="m599.4 501.7q-0.1 0-0.2 0c-0.9-0.1-9.3-1.4-11.9-4-1-1-7.1-4.2-12.5-7-11.2-5.8-14.8-7.9-15.3-9.1-0.5-1.1-7.1-5-12.9-8-0.4-0.2-0.6-0.8-0.4-1.3 0.3-0.5 0.9-0.7 1.4-0.5 3.8 2 12.9 6.9 13.8 9.1 0.7 0.9 8.6 5 14.3 8 7.3 3.9 11.9 6.3 13 7.4 1.8 1.8 8.4 3.1 10.8 3.4 0.6 0.1 0.9 0.6 0.9 1.1-0.1 0.5-0.5 0.9-1 0.9z"/>
						</g>
						<g id="&lt;Group&gt;">
							<path id="&lt;Path&gt;" class="s9" d="m682.1 494.3c10.2-2.7 26.9 0.7 26.8 10.6-0.3 13.2-39.6 21.8-44.5 9.6-3.3-8.6 7.5-17.5 17.7-20.2z"/>
							<path id="&lt;Path&gt;" class="s9" d="m670.2 508.5c0 0 0.6-33.9-9.8-38.3 0 0 10.3-16.2 22.1-12.2 11.9 3.9 19.8 40.4 19.8 43 0 2.6-32.1 7.5-32.1 7.5z"/>
							<path id="&lt;Compound Path&gt;" fill-rule="evenodd" class="s8" d="m680.7 520.8c-5.5 0-10.2-1.3-11.7-4.5-0.9-1.9-0.8-3.8 0.1-5.7 2.3-4.6 9.1-8.1 14.5-9.3 5.9-1.3 15.1-0.5 19.6 3.1 1.7 1.4 2.6 3.2 2.6 5.1-0.1 5.2-8.6 8.8-15.8 10.3-3 0.6-6.3 1-9.3 1zm3.3-17.5c-5.9 1.3-11.4 4.8-13.1 8.2q-1 2-0.1 3.9c1.5 3.3 9.6 4.3 18.8 2.4 8.3-1.7 14.1-5.2 14.2-8.4q0-1.9-1.8-3.4c-3.9-3.2-12.5-4-18-2.7z"/>
						</g>
					</g>
				</g>
				<g id="&lt;Group&gt;">
					<path id="&lt;Path&gt;" class="s21" d="m594 378.1c-0.4 0-0.8-0.3-0.9-0.8-0.2-0.6-20.1-69.5-25.9-101.5-8.9-48 4.3-88.6 4.5-89 0.2-0.5 0.7-0.8 1.2-0.6 0.6 0.2 0.9 0.7 0.7 1.2-0.2 0.4-13.2 40.6-4.5 88 5.1 27.4 20.4 82 24.7 97.3 2.4-11.8 10.4-47.2 28.3-86.8 35.7-79.4 34.9-133.3 34.8-133.8 0-0.6 0.5-1 1-1 0.6-0.1 1 0.4 1 0.9 0.1 0.6 0.9 54.9-35 134.7-21.8 48.3-28.8 90.1-28.9 90.5 0 0.5-0.4 0.8-0.9 0.9q0 0-0.1 0z"/>
					<path id="&lt;Path&gt;" class="s10" d="m564.6 383.3c2-2.8 63.2-10.3 63.2-10.3 0 0 7.2 34.2 5.6 34.8-1.2 0.5-43.8 9.3-57 9.9-0.1 0-8.4-12.5-8.5-12.7-2.1-9.8-3.3-21.7-3.3-21.7z"/>
				</g>
			</g>
		</g>
	</g>
</svg>