<svg version="1.2" xmlns="http://www.w3.org/2000/svg" viewBox="0 0 846 711" width="846" height="711">
	<title>iStock-1-ai</title>
	<style>
		.s0 { fill: #bc7e84 } 
		.s1 { fill: #a1596b } 
		.s2 { fill: #8b5366 } 
		.s3 { fill: #7c7bc6 } 
		.s4 { fill: #6463b1 } 
		.s5 { fill: #f5c57b } 
		.s6 { fill: #ea9d63 } 
		.s7 { fill: #e9e8fb } 
		.s8 { fill: #cdcdec } 
		.s9 { fill: #7a4357 } 
		.s10 { fill: #75384d } 
		.s11 { fill: #823f53 } 
		.s12 { fill: #ffffff } 
		.s13 { fill: #4a4968 } 
		.s14 { fill: #f6848e } 
		.s15 { fill: #ee6e81 } 
		.s16 { fill: #ffc9d2 } 
		.s17 { fill: #de94a7 } 
		.s18 { fill: #3d3851 } 
	</style>
	<g id="Illustration">
		<g id="Workout complete">
			<g id="&lt;Group&gt;">
				<g id="&lt;Group&gt;">
					<g id="&lt;Group&gt;">
						<path id="&lt;Path&gt;" class="s0" d="m309.6 630.2c0 0 7.2 33.1 0.5 83.5l-108.2-0.7c0 0 1.3-54.1 11.5-69 10.1-14.9 96.2-13.8 96.2-13.8z"/>
						<path id="&lt;Path&gt;" class="s1" d="m312.7 664.1c0 0 0.4 14.4 0 20.7 0 0-54 8.2-84.7-3.9-27-10.7-5.1-32.2-5.1-32.2z"/>
					</g>
					<g id="&lt;Group&gt;">
						<path id="&lt;Path&gt;" class="s0" d="m224.9 660.9c0 0-8.1 38.7-13.3 52.6l-106.4-0.5c0 0 1.3-54.1 11.5-69 10.1-14.9 108.2 16.9 108.2 16.9z"/>
						<path id="&lt;Path&gt;" class="s2" d="m222.4 712.4q-0.1 0-0.2 0c-0.5-0.1-0.9-0.7-0.7-1.2 3.5-14.2 5.8-33.1 5.8-33.3 0.1-0.5 0.6-0.9 1.1-0.9 0.6 0.1 1 0.6 0.9 1.2 0 0.1-2.3 19.1-5.9 33.5-0.1 0.4-0.5 0.7-1 0.7z"/>
					</g>
					<g id="&lt;Group&gt;">
						<path id="&lt;Path&gt;" class="s3" d="m309.1 456.6c0 0 42.5 170.7 31.8 196.4-10.6 25.7-89.4 28.4-93.9 27-4.6-1.3-5.1 9.5-18.2 13.4-11.3 3.4-145.5 13.5-148.6-10.9-3-24.3 51.6-205.6 51.6-205.6z"/>
						<path id="&lt;Path&gt;" class="s4" d="m125.4 498.5l189.5-16.7c0 0-28.9 39.7-117.7 44.7-49.7 2.7-71.6 4-81.2 4.5 3.5-12.4 6.7-23.5 9.4-32.5z"/>
						<path id="&lt;Path&gt;" class="s4" d="m97 692.7q0 0-0.1 0c-0.6-0.1-0.9-0.6-0.9-1.2 15.1-90.3 45.4-193.9 45.7-195 0.2-0.5 0.8-0.8 1.3-0.6 0.5 0.1 0.8 0.7 0.7 1.2-0.3 1-30.6 104.5-45.7 194.7-0.1 0.5-0.5 0.9-1 0.9z"/>
						<path id="&lt;Path&gt;" class="s4" d="m244.2 681.1q-0.2 0-0.4-0.1c-0.5-0.2-0.7-0.8-0.5-1.3 3-7.5 8.8-61.2 8.8-61.8 0.1-0.5 0.6-0.9 1.1-0.9 0.6 0.1 1 0.6 0.9 1.1-0.2 2.3-5.8 54.6-9 62.3-0.1 0.4-0.5 0.7-0.9 0.7z"/>
					</g>
				</g>
				<g id="&lt;Group&gt;">
					<g id="&lt;Group&gt;">
						<path id="&lt;Path&gt;" class="s0" d="m404.7 216.5l27.7 7.8c0 0-6.4-55.9-17.6-75.6-0.5-1-28-5.9-32.9-14.3-6.7-11.4-10.6-17.6-8.4-19.2 7.3-5.3 16.3 7.3 16.3 7.3l5.1 0.6c0 0-21.6-29.3-26-36.8-5.2-9 0.8-11.6 0.8-11.6-1.3-8.6 6.1-4.9 6.1-4.9 2.4-12.3 29.4 10.5 29.4 10.5 0 0-13.4-22.3 7.6-5.4 32.8 26.4 32.6 51.4 39.4 63.3 42.9 75.1 45.4 146.4 27.1 155.2-10.5 5.1-99.8-9.4-99.8-9.4z"/>
						<path id="&lt;Path&gt;" class="s2" d="m388.9 128.4q-0.1 0-0.2-0.1c-0.6-0.1-0.9-0.6-0.8-1.2l0.9-3.8c0.1-0.5 0.7-0.9 1.2-0.7 0.6 0.1 0.9 0.6 0.8 1.2l-0.9 3.8c-0.1 0.4-0.6 0.8-1 0.8z"/>
						<path id="&lt;Path&gt;" class="s2" d="m434.4 137.9c-0.4 0-0.8-0.3-0.9-0.8-3.6-18.4-37-12.8-37.3-12.7-0.6 0.1-1.1-0.3-1.2-0.8-0.1-0.6 0.3-1.1 0.8-1.2 1.5-0.3 35.7-6 39.6 14.3 0.1 0.6-0.2 1.1-0.8 1.2q-0.1 0-0.2 0z"/>
						<path id="&lt;Path&gt;" class="s2" d="m393.4 102.1q-0.4 0-0.7-0.3c-1-1-20.5-22.1-22.8-24.5-0.3-0.4-0.3-1.1 0.1-1.4 0.4-0.4 1-0.4 1.4 0 8.7 9.5 21.9 23.7 22.7 24.4 0.4 0.4 0.4 1 0 1.4-0.2 0.2-0.4 0.4-0.7 0.4z"/>
						<path id="&lt;Path&gt;" class="s2" d="m402.4 95.5q-0.4 0-0.7-0.3l-24.8-24.2c-0.4-0.3-0.4-1 0-1.4 0.4-0.4 1-0.4 1.4 0l24.8 24.2c0.4 0.4 0.4 1 0 1.4-0.2 0.2-0.4 0.3-0.7 0.3z"/>
						<path id="&lt;Path&gt;" class="s2" d="m412.8 89q-0.4 0-0.7-0.3l-6.7-6.1c-0.5-0.3-0.5-1-0.1-1.4 0.4-0.4 1-0.4 1.4-0.1l6.8 6.1c0.4 0.4 0.4 1 0 1.4-0.2 0.3-0.4 0.4-0.7 0.4z"/>
						<path id="&lt;Path&gt;" class="s2" d="m448.9 254.5c-0.4 0-0.8-0.2-0.9-0.6-0.1-0.1-6.6-15.2-16.4-29-0.3-0.5-0.2-1.1 0.3-1.4 0.4-0.4 1-0.2 1.4 0.2 9.9 14 16.4 29.3 16.5 29.4 0.2 0.5 0 1.1-0.5 1.3q-0.2 0.1-0.4 0.1z"/>
					</g>
					<path id="&lt;Path&gt;" class="s0" d="m115.6 329.9l-35 46.3c0 0-54.1 42.4-70.2 21.6-16-20.8 35.3-83.9 35.3-83.9z"/>
					<g id="&lt;Group&gt;">
						<path id="&lt;Path&gt;" class="s5" d="m285.3 168.5c49.2 4.8 75.8 41.2 87.8 41.2 12 0 42.7 8 42.7 8 1.3 14.7-34.7 68-34.7 68l-52.8-7.6c-8 28-12 45.3-12.5 54.2-0.8 17-13.9 55.3-8 68.6 5.8 12.9 10.7 80 10.7 80-48 51.5-199.1 32.9-199.1 32.9 0 0 8.9-31.1 6.3-51.6-2.7-20.4 10.6-51.5 8-80.8-1.7-17.8-4.5-66-4.5-66l-29.3 37.4c-26.7 6.2-66.6-26.7-66.6-26.7 8-13.3 23.1-34.6 28.4-43.5 5.3-8.9 14.2-49.8 32-64.9 17.7-15.1 80.8-37.3 80.8-37.3 0 0 61.6-16.6 110.8-11.9z"/>
						<path id="&lt;Path&gt;" class="s6" d="m236.9 477.9c-50.7 0-102.8-22.5-108.5-31-1-1.5-0.6-2.6-0.2-3.1 2.1-2.8 13.5-1.3 33.8 4.6 32.9 9.6 66.4 5.6 88.6 0.6 25.1-5.6 45.9-14.9 52.9-20.8 1.9-1.6 1.9-2.2 1.9-2.2 0 0-2.3-2.7-27.3 5.7-29.5 9.8-55.4 9.7-71.9 7.8-19.7-2.2-33.7-7.8-37.3-12.2-1.5-1.8-1.1-3.2-0.8-3.9 2.7-4.6 19-3 28.5-1.6 66.5 9.7 101.2-26.6 101.5-27 0.4-0.4 1.1-0.4 1.5 0 0.4 0.4 0.4 1 0 1.4-0.4 0.4-9 9.5-26.1 17.6-15.7 7.4-41.9 15.1-77.2 10-23.4-3.4-26.2 0.2-26.4 0.6q-0.3 0.6 0.5 1.7c6.6 7.9 53.5 21.5 107 3.7 17.7-5.9 27.7-7.6 29.6-5 0.3 0.4 0.8 1.4-0.3 2.9-3.3 4.9-22.8 15.2-50.9 22.2-23.6 5.8-59.2 10.6-94.4 0.4-28.9-8.4-31.5-5.4-31.6-5.3-0.1 0.1 0 0.4 0.3 0.8 2.9 4.4 21.9 14.5 49.9 22.1 18.9 5.1 55.6 12.5 88.7 4.5 0.6-0.1 1.1 0.2 1.2 0.8 0.2 0.5-0.2 1.1-0.7 1.2-10.4 2.5-21.3 3.5-32.3 3.5z"/>
						<path id="&lt;Path&gt;" class="s6" d="m328.3 279.1q-0.2 0-0.3 0c-0.5-0.1-0.8-0.7-0.7-1.2l5.1-19.9c0.2-0.6 0.7-0.9 1.3-0.7 0.5 0.1 0.8 0.6 0.7 1.2l-5.2 19.9c-0.1 0.4-0.5 0.7-0.9 0.7z"/>
						<path id="&lt;Path&gt;" class="s6" d="m129.2 315.4c-0.3 0-0.5-0.1-0.7-0.3-0.4-0.4-0.4-1 0-1.4 17.9-16.4 29-44 29.1-44.3 0.2-0.5 0.8-0.8 1.3-0.6 0.5 0.2 0.7 0.8 0.5 1.3-0.1 0.3-11.3 28.4-29.5 45.1q-0.3 0.2-0.7 0.2z"/>
						<path id="&lt;Path&gt;" class="s6" d="m235.1 219.7c-6.3 0-13.8-1.2-22.4-4.5-0.5-0.2-0.8-0.8-0.6-1.3 0.2-0.5 0.8-0.8 1.3-0.6 33.3 12.8 48-6.1 48.2-6.3 0.3-0.4 0.9-0.5 1.4-0.2 0.4 0.4 0.5 1 0.1 1.4-0.1 0.2-8.9 11.5-28 11.5z"/>
					</g>
				</g>
				<g id="&lt;Group&gt;">
					<g id="&lt;Group&gt;">
						<path id="&lt;Path&gt;" class="s7" d="m302.5 159.1c39.3 39.3 60.6 91.9 60.6 91.9-2 10-23.3 16-39.3 14.7-16-1.3-22.6 13.3-24.6 12.7-2-0.7-20-44.7-22.7-70-2.2-21.2-14-40.7-14-40.7 0 0 0.7-48 40-8.6z"/>
						<path id="&lt;Path&gt;" class="s8" d="m337.4 250.5c-0.4 0-0.7-0.2-0.9-0.5-0.3-0.6-37-56.9-44.9-70-0.3-0.6-0.6-0.9-0.7-1.1-1.7 5.5 5.9 49.2 11.7 61.5 0.3 0.5 0.1 1.1-0.4 1.4-0.5 0.2-1.1 0-1.4-0.5-3.1-6.5-6.8-22.6-9.2-35.7-3.2-18-3.8-27.6-1.6-28.8 1.5-0.8 2.9 1.3 3.3 2.2 7.9 13 44.5 69.3 44.9 69.9 0.3 0.5 0.2 1.1-0.3 1.4q-0.2 0.2-0.5 0.2z"/>
					</g>
					<g id="&lt;Group&gt;">
						<path id="&lt;Path&gt;" class="s0" d="m277.6 165.3l-10.7 25.7c0 0-31.1 43.6-76.4-3.5 4.5-9.8 23.1-55.1 23.1-55.1z"/>
						<path id="&lt;Path&gt;" class="s0" d="m279.9 52.8c0.7 0.5 17.9 16.1 19.3 43 1.3 27.3 5.3 65.3-1.4 73.9-6.6 8.7-73.3-4.6-78.6-16.6-5.3-12-12-47.4-14.7-50.7-2.6-3.3-8.5-29.8 6.2-49.1 14.5-19.1 50.6-14.2 69.2-0.5z"/>
						<g id="&lt;Group&gt;">
							<path id="&lt;Path&gt;" class="s9" d="m270.1 129.6c11.1-5.4 18.6-3.9 22.6-4.1 4-0.2 7.8-2.8 10.7 1 3.4 4.2-2.2 14.8-0.3 27.5 1.3 9 10 23.3 6.1 30.4-8.5 15.1-67.4 9.3-78.7-10.7-11.3-20-6.4-50.1-7.3-68.5 0-0.4-17.6 0.7-21.7-4.5-3.4-4.3-8-7.2-7.4-24.6 0.5-15.8 20.4-29.6 20.4-29.6 0 0 41.5-23.1 62.5-13.9 7.4 3.2 5.3 15.6 3 20.1-5.3 10.2-32.4 13.1-41.2 20.5-5.1 4.3-5.6 17.4-6.4 24.1-1.2 10.2 2.9 34.4 14.2 38.4 11.4 4 16.8-2.9 23.5-6.1z"/>
							<path id="&lt;Path&gt;" class="s10" d="m238.2 65.7c-14 0-29.7-3.4-30.8-3.6-0.5-0.1-0.8-0.7-0.7-1.2 0.1-0.5 0.6-0.9 1.2-0.8 12 2.7 44.5 7.4 49.9-2.1 1-1.8 0.5-2.6 0.3-2.9-2.3-3.6-15.3-4.3-38.6-2-1.8 0.1-2.7 0.2-3 0.2-0.8 0-1.2-0.5-1.3-1 0-0.7 0.2-1.2 4.3-3.1 2.7-1.2 6.1-2.6 9.7-3.8 5.7-2.1 16.9-5.6 27.6-6.8 6.6-0.8 11.1 0.5 13.5 3.6 3.7 4.7 0.9 11.9 0.8 12.2-0.2 0.6-0.8 0.8-1.3 0.6-0.5-0.2-0.8-0.8-0.6-1.3 0-0.1 2.5-6.5-0.5-10.3-1.9-2.5-5.8-3.5-11.7-2.9-13.8 1.6-29.6 7.3-36.5 10.5 16.7-1.6 35.7-2.5 39.3 3 0.6 1 1.1 2.7-0.2 5-3 5.2-11.8 6.7-21.4 6.7z"/>
							<path id="&lt;Path&gt;" class="s10" d="m220.9 88.6c-11.5 0-21.7-8.5-23.7-12.6-0.8-1.4-0.4-2.2 0-2.7 0.9-1 2.7-0.4 3.9 0.1 9.4 3.8 27.1 2.6 27.3 2.6 0.6-0.1 1 0.3 1.1 0.9 0 0.5-0.4 1-1 1.1-0.7 0-18.3 1.2-28.1-2.8-0.8-0.3-1.3-0.4-1.6-0.4 0.2 0.6 1 1.8 2.8 3.5 4.5 4.4 12.9 9.1 21.5 8.2 0.5 0 1 0.4 1.1 0.9 0 0.6-0.4 1.1-0.9 1.1q-1.2 0.1-2.4 0.1z"/>
							<path id="&lt;Path&gt;" class="s10" d="m230.8 155.7c-0.4 0-0.7-0.1-0.9-0.5-3.7-6.4-2.2-33.1-2.1-34.2 0-0.5 0.5-1 1.1-0.9 0.5 0 0.9 0.5 0.9 1-0.5 7.6-1 28.2 1.8 33.1 0.3 0.5 0.2 1.1-0.3 1.4q-0.3 0.1-0.5 0.1z"/>
							<path id="&lt;Path&gt;" class="s10" d="m243.6 169.6q-0.3 0-0.6-0.3c-6.2-5.4-9.5-35.6-9.6-36.9 0-0.6 0.4-1 0.9-1.1 0.5-0.1 1 0.3 1.1 0.9 0.9 8.5 4.3 31.5 8.9 35.6 0.4 0.4 0.5 1 0.1 1.5-0.2 0.2-0.5 0.3-0.8 0.3z"/>
							<path id="&lt;Path&gt;" class="s10" d="m259.8 183.1q-0.3 0-0.6-0.2c-9.1-7.4-12.8-34.2-12.9-35.3-0.1-0.5 0.3-1 0.8-1.1 0.6-0.1 1.1 0.3 1.2 0.8 0 0.3 3.6 27.1 12.2 34.1 0.4 0.3 0.4 0.9 0.1 1.4-0.2 0.2-0.5 0.3-0.8 0.3z"/>
							<path id="&lt;Path&gt;" class="s10" d="m277 186.1q-0.2 0-0.4-0.1c-9.2-4.1-16.4-27.3-16.7-28.3-0.2-0.6 0.1-1.1 0.6-1.3 0.5-0.1 1.1 0.2 1.3 0.7 0 0.2 7.2 23.4 15.6 27.1 0.5 0.2 0.7 0.8 0.5 1.3-0.2 0.4-0.5 0.6-0.9 0.6z"/>
						</g>
						<g id="&lt;Group&gt;">
							<path id="&lt;Path&gt;" class="s0" d="m294.5 154.8c-2.4 4-13.9 7-19.9 3.5-7.8-4.5-11-16.5-11-16.5 3.5 0.9 27.1-5.2 27.1-5.2 3.2 0.9 7.9 0.7 7.9 0.7 0 0-2.3 14.6-4.1 17.5z"/>
							<g id="&lt;Group&gt;">
								<path id="&lt;Path&gt;" class="s11" d="m285.3 154.4c-4 0.6-9.4-3.3-13.3-6.7-2.7-2.4 13.7-6.4 20.4-7.2 2.5-0.3 4.1-0.5 4.1-0.5 0 0-4.2 13.3-11.2 14.4z"/>
								<path id="&lt;Path&gt;" class="s12" d="m267.3 143.1c5.2-0.2 18.4-1.8 25.1-2.6-0.2 1.8-0.7 4.1-1.5 4.6-1.1 0.7-12.3 2.1-18.9 2.6-2.7-2.4-4.7-4.6-4.7-4.6z"/>
							</g>
						</g>
						<g id="&lt;Group&gt;">
							<path id="&lt;Path&gt;" class="s10" d="m272.7 101.1c0 2.1-1.1 3.8-2.5 3.8-1.5 0-2.6-1.7-2.6-3.8 0-2.1 1.1-3.2 2.6-3.2 1.4 0 2.5 1.1 2.5 3.2z"/>
							<path id="&lt;Path&gt;" class="s10" d="m264.9 101.4c-0.3 0-0.6-0.2-0.8-0.5-0.3-0.4-0.2-1.1 0.2-1.4 4.7-3.1 9.6-1.8 9.8-1.8 0.5 0.2 0.8 0.7 0.7 1.3-0.1 0.5-0.7 0.8-1.2 0.7-0.1 0-4.3-1.1-8.2 1.5q-0.2 0.2-0.5 0.2z"/>
						</g>
						<g id="&lt;Group&gt;">
							<path id="&lt;Path&gt;" class="s10" d="m298 99.9c0 2.1-1.1 3.8-2.5 3.8-1.4 0-2.6-1.7-2.6-3.8 0-2.1 1.2-3.2 2.6-3.2 1.4 0 2.5 1.1 2.5 3.2z"/>
							<path id="&lt;Path&gt;" class="s10" d="m290.2 100.1c-0.3 0-0.6-0.1-0.8-0.4-0.3-0.5-0.2-1.1 0.3-1.4 4.6-3.1 9.5-1.8 9.7-1.8 0.6 0.2 0.9 0.7 0.7 1.3-0.1 0.5-0.7 0.8-1.2 0.7-0.1-0.1-4.3-1.1-8.1 1.5q-0.3 0.1-0.6 0.1z"/>
						</g>
						<g id="&lt;Group&gt;">
							<path id="&lt;Path&gt;" class="s9" d="m291.6 87.4c2.3-1.3 5.4-1.5 6.8-1.3 1.9 0.1 2.5 7.7-0.1 6.9-3.5-1.1-7.2 0.3-9-1.5-1.4-1.5 0.2-2.9 2.3-4.1z"/>
						</g>
						<g id="&lt;Group&gt;">
							<path id="&lt;Path&gt;" class="s9" d="m277.3 92.3c-1.9 1.8-18.8 1.8-22.5 2.7-2.5 0.7 3.5-6.2 5.4-6.4 1.8-0.3 11.9-1.5 14.1-0.1 2.1 1.3 4.4 2.4 3 3.8z"/>
						</g>
						<g id="&lt;Group&gt;">
							<path id="&lt;Path&gt;" class="s0" d="m287.7 97.5c0 0 14.8 19.5 14.8 22.8 0 3.2-2.1 7-16.3 4.4z"/>
							<path id="&lt;Path&gt;" class="s2" d="m294.3 126.6q-3.4 0-8.3-0.9c-0.5-0.1-0.9-0.7-0.8-1.2 0.1-0.6 0.6-0.9 1.2-0.8 8.9 1.7 12.5 0.6 13.9-0.6 0.8-0.6 1.2-1.5 1.2-2.8 0-1.9-7.4-12.8-14.6-22.2-0.4-0.5-0.3-1.1 0.2-1.4 0.4-0.4 1-0.3 1.4 0.2 2.5 3.3 15 19.9 15 23.4q0 2.8-1.9 4.4-2.3 1.9-7.3 1.9z"/>
						</g>
						<g id="&lt;Group&gt;">
							<path id="&lt;Path&gt;" class="s0" d="m221.2 106.5c0 0 4.5 21.4-1.4 22.4-5.9 1.1-13.4-8.9-14.4-10.9-1-2-9.5-16.8-0.4-21.8 9.2-5 16.2 9.4 16.2 9.4z"/>
							<path id="&lt;Path&gt;" class="s2" d="m210.7 117.7c-0.3 0-0.7-0.2-0.9-0.5l-0.1-0.4c-5.2-10-2.7-14.1 0.3-15.8 0.5-0.2 1.1-0.1 1.3 0.4 0.3 0.5 0.1 1.1-0.4 1.4-4 2.2-1.9 8.4 0.5 13.1l0.2 0.4c0.3 0.5 0.1 1.1-0.4 1.3q-0.2 0.1-0.5 0.1z"/>
							<path id="&lt;Path&gt;" class="s2" d="m218.8 129.8c-3 0-6-1.8-8-3.5-0.4-0.4-0.5-1-0.1-1.5 0.3-0.4 1-0.4 1.4-0.1 2.8 2.4 5.5 3.5 7.7 3.1 0.5-0.1 1 0.2 1.1 0.8 0.1 0.5-0.2 1-0.8 1.1q-0.6 0.1-1.3 0.1z"/>
							<path id="&lt;Path&gt;" class="s2" d="m216.8 117.5c-0.4 0-0.8-0.2-0.9-0.6-2.1-4.4-0.1-8.1 1.7-9.9-0.9-1.5-3.3-5.3-6.5-6.3-1.3-0.4-2.6-0.3-3.9 0.4-1.1 0.7-1.9 1.6-2.3 2.8-0.2 0.5-0.7 0.8-1.2 0.6-0.6-0.1-0.9-0.7-0.7-1.2q0.8-2.6 3.3-3.9 2.7-1.5 5.4-0.6c4.8 1.5 7.9 7.8 8 8 0.2 0.5 0.1 1-0.3 1.3-0.1 0.1-4 3.2-1.7 7.9 0.2 0.5 0 1.1-0.5 1.4q-0.2 0.1-0.4 0.1z"/>
						</g>
					</g>
					<g id="&lt;Group&gt;">
						<path id="&lt;Path&gt;" class="s7" d="m213.4 133.9c0 0-3.2 69.6 16 127.3 12.4 37.3 15.4 97.9 15.4 102.6 0 4.7-30.2 10-51 4-20.7-6-43.8 17.3-61.6 15.3 0 0 21.3-176.6 27.2-197.2 6-20.7 23.8-25.4 26.7-34 3-8.7 26.7-22 27.3-18z"/>
						<path id="&lt;Path&gt;" class="s8" d="m165.4 353.1c-0.5 0-1-0.5-1-1 0-24.3 2.6-70.4 6.3-112.1 1.9-21.3 4-39.4 5.9-52.2 3.3-22.8 5.4-22.8 6.7-22.8 3.1 0 4 8.3 5.6 41.5 1.6 30.7 3.7 72.6 11.6 78.7 0.8 0.6 1.5 0.8 2.3 0.6 1.4-0.3 5.5-5.9-1.1-63.7-3.5-31.3-8.5-62.6-8.5-62.9-0.1-0.6 0.2-1.1 0.8-1.2 0.5 0 1 0.3 1.1 0.9 0.1 0.3 5.1 31.7 8.6 63 7.3 64.1 1.7 65.3-0.4 65.8q-2.2 0.5-4-0.9c-8.7-6.6-10.6-45.7-12.4-80.2-0.8-17.3-1.8-36.9-3.7-39.5-2.1 2.5-6.1 23.5-10.6 75.2-3.7 40.9-6.2 86.1-6.2 109.8 0 0.5-0.4 1-1 1z"/>
					</g>
				</g>
				<g id="&lt;Group&gt;">
					<path id="&lt;Path&gt;" class="s12" d="m225.9 349.1c3.8-2.8 40.9 4.5 41.7 6.9 0.7 2.4-11.8 107.4-18.3 109.7-6.6 2.3-42.3-3.7-41.7-6.9 0.5-3.3 15.1-107.5 18.3-109.7z"/>
					<path id="&lt;Path&gt;" class="s13" d="m228.3 323.6c3.5-0.1 41.9 6.5 42.9 7.2 1.1 0.7 2.3 24.7-4.1 24.4-6.3-0.3-43-6.5-42.9-7.2 0.1-0.7 1.2-24.2 4.1-24.4z"/>
				</g>
				<g id="&lt;Group&gt;">
					<path id="&lt;Path&gt;" class="s0" d="m84.8 361.7c0 0 14.7 12.2 29.8 17.7 10.5 3.7 58.6 15.7 69.9 13.8 11.3-1.9 37.8-13.2 43.5-13.2 5.6 0 42 7.7 41.4 13.7-0.7 6.3-9.3 7.1-9.3 7.1 0 0 11.6 0.7 11.6 6.4 0 7.9-33.4 9.6-33.4 9.6 0 0 25.5 1.9 26.5 7.6 0.9 5.7-40.6 19.8-47.2 19.8-6.6 0-23.7-9.4-33.1-13.2-9.4-3.8-79.3 3-99.2 0.9-21.7-2.2-71.8-19.8-75.5-34.9-3.8-15.1 75-35.3 75-35.3z"/>
					<path id="&lt;Path&gt;" class="s2" d="m235.2 433.6c-5.7 0-13.2-1.8-13.6-1.9-0.5-0.1-0.8-0.6-0.7-1.2 0.1-0.5 0.7-0.9 1.2-0.7 0.1 0 9.2 2.1 14.7 1.7 5.6-0.4 18.6-2.2 18.7-2.2 0.6-0.1 1.1 0.3 1.2 0.9 0 0.5-0.3 1-0.9 1.1-0.1 0-13.2 1.8-18.9 2.2q-0.8 0.1-1.7 0.1z"/>
					<path id="&lt;Path&gt;" class="s2" d="m238.3 417.8q0 0-0.1 0l-11.2-1.9c-0.6-0.1-0.9-0.6-0.8-1.2 0.1-0.5 0.6-0.9 1.1-0.8l11.2 1.9c0.6 0.1 0.9 0.7 0.8 1.2-0.1 0.5-0.5 0.8-1 0.8z"/>
					<path id="&lt;Path&gt;" class="s2" d="m260.1 401.8q-0.1 0-0.3 0c-0.1-0.1-13-3.1-18.1-3.1-5.3 0-14.8-1.7-15.2-1.7-0.5-0.1-0.9-0.7-0.8-1.2 0.1-0.5 0.6-0.9 1.2-0.8 0.1 0 9.6 1.7 14.8 1.7 5.3 0 18.1 3 18.6 3.1 0.5 0.1 0.9 0.7 0.7 1.2-0.1 0.5-0.5 0.8-0.9 0.8z"/>
					<path id="&lt;Path&gt;" class="s2" d="m221 394.6c-0.4 0-0.8-0.2-1-0.6-1.4-4.5 0.5-7.6 0.6-7.8 0.3-0.4 0.9-0.6 1.3-0.3 0.5 0.3 0.7 0.9 0.4 1.4-0.1 0.1-1.5 2.5-0.4 6 0.2 0.6-0.1 1.1-0.6 1.3q-0.2 0-0.3 0z"/>
					<path id="&lt;Path&gt;" class="s2" d="m221 410.9c-0.4 0-0.8-0.3-1-0.7-1.4-4.4 0.5-7.6 0.6-7.8 0.3-0.4 0.9-0.6 1.3-0.3 0.5 0.3 0.7 0.9 0.4 1.4-0.1 0.1-1.5 2.5-0.4 6 0.2 0.6-0.1 1.1-0.6 1.3q-0.2 0.1-0.3 0.1z"/>
					<path id="&lt;Path&gt;" class="s2" d="m219.7 427.1c-0.4 0-0.8-0.3-0.9-0.8-1.2-4.5 0.9-7.6 1-7.7 0.4-0.4 1-0.5 1.4-0.2 0.5 0.3 0.6 0.9 0.3 1.4-0.1 0.1-1.7 2.4-0.8 6 0.1 0.5-0.2 1.1-0.7 1.2q-0.1 0.1-0.3 0.1z"/>
					<path id="&lt;Path&gt;" class="s2" d="m218.7 442.3c-0.4 0-0.8-0.4-1-0.8-1.1-4.5 1-7.6 1.1-7.7 0.3-0.4 1-0.5 1.4-0.2 0.5 0.3 0.6 0.9 0.3 1.4-0.1 0.1-1.7 2.4-0.8 6 0.1 0.5-0.2 1.1-0.7 1.2q-0.2 0.1-0.3 0.1z"/>
					<path id="&lt;Path&gt;" class="s2" d="m89.5 366.6q-0.3 0-0.5-0.1c-19.2-12.2-45.8-4.6-46.1-4.5-0.5 0.1-1-0.2-1.2-0.7-0.2-0.5 0.2-1.1 0.7-1.3 1.1-0.3 27.7-7.9 47.7 4.8 0.4 0.3 0.6 0.9 0.3 1.4-0.2 0.3-0.5 0.4-0.9 0.4z"/>
				</g>
			</g>
			<g id="&lt;Group&gt;">
				<g id="&lt;Group&gt;">
					<path id="&lt;Path&gt;" class="s14" d="m581.4 713c0.7-5.4 1.7-14.2 3.4-28.4 5-43.7 32.4-191.9 32.4-191.9 0 0 136.4-83.2 174.3 2.1 34.9 78.6 33 199.8 32.5 218.2z"/>
					<path id="&lt;Path&gt;" class="s15" d="m731.9 710.6q0 0-0.1 0c-0.5-0.1-0.9-0.6-0.9-1.1 4.1-34.9 18.9-66.3 19.1-66.6 0.2-0.5 0.8-0.7 1.3-0.5 0.5 0.2 0.7 0.8 0.5 1.3-0.2 0.3-14.9 31.4-18.9 66 0 0.5-0.5 0.9-1 0.9z"/>
					<path id="&lt;Path&gt;" class="s15" d="m804.2 530.2c-9.7 1.6-31.8 4.1-81.7 6.9-75.3 4.1-102.9-18.8-108.8-24.8q0.1-0.9 0.3-1.7l174.8-21.3q1.4 2.6 2.7 5.5c4.9 11.1 9.1 23 12.7 35.4z"/>
				</g>
				<g id="&lt;Group&gt;">
					<path id="&lt;Path&gt;" class="s16" d="m629.7 129.8c0 0-12-0.7-11.5-6.2 0.1-2.2 13.1-22.5 13.1-22.5z"/>
					<path id="&lt;Path&gt;" class="s16" d="m709.8 46.4c7.9 6.4 14.7 18.8 17.7 36 3 17.1-7.7 39.5-7.6 47.4 0.3 13.5 10 35.9 17.2 42.5 8.3 7.5-65 22.3-65 22.3l-11.3-24.2c0 0-13.3 4.8-20.7 1.4-12.1-5.6-18.2-74.7-14.1-92.2 3.9-17 9.1-33.5 31.2-40.8 17.8-5.9 41.7-1.3 52.6 7.6z"/>
					<path id="&lt;Path&gt;" class="s0" d="m627 96.6c0 0-3.9-0.9-3.9-4.5-0.1-3.6 2.1-6.7 2.1-6.7z"/>
					<path id="&lt;Path&gt;" class="s17" d="m636.2 152.3q0 0 0 0c-0.5 0-1-0.5-1-1 0.2-5.9-3-10.3-3-10.4-0.3-0.4-0.2-1 0.2-1.4 0.4-0.3 1.1-0.2 1.4 0.3 0.1 0.2 3.6 5 3.4 11.5 0 0.6-0.4 1-1 1z"/>
					<path id="&lt;Path&gt;" class="s17" d="m660.6 170.7c-0.4 0-0.7-0.2-0.9-0.6-0.9-2.2-3.8-12.3-4-12.8-0.1-0.5 0.2-1.1 0.7-1.2 0.5-0.2 1.1 0.1 1.3 0.7 0 0.1 3 10.4 3.9 12.6 0.2 0.5-0.1 1-0.6 1.3q-0.2 0-0.4 0z"/>
					<path id="&lt;Path&gt;" class="s17" d="m625.6 129.4c-0.5 0-1-0.4-1-1 0-0.5-0.4-7.1-0.7-11.5 0-0.5 0.4-1 1-1 0.6-0.1 1 0.3 1 0.9 0.1 1.1 0.7 10.9 0.7 11.6 0 0.6-0.4 1-1 1z"/>
					<g id="&lt;Group&gt;">
						<path id="&lt;Path&gt;" class="s0" d="m718.9 33.6c11.2 8.1 14.7 22.7 10.8 50.8-2.6 19.4-9.7 40.7-9.7 45 0.1 4.3-27.4-0.9-31.7-8.1-4.3-7.2-14.1-35.1-22.8-33.7-8.6 1.4-14.6 15-14.6 15h-9.3c0 0 0.5-15.6-4.3-20.1-6.3-5.9 1.5-27.7 1.5-27.7l-8.8 10.3c0 0-19.1-23.5-10.1-30.8 9.2-7.7 19.4-2.3 25.8-4.8 10.5-4.2 19.5-15.4 33.9-8.7 19.7 9.2 29.1 5.5 39.3 12.8z"/>
						<g id="&lt;Group&gt;">
							<path id="&lt;Path&gt;" class="s1" d="m729.7 84.4c-2.6 19.4-9.7 40.7-9.7 45 0 0.5-0.3 0.9-1.1 1.1 0.7-9.6 2.2-25.5 4-39.3 3.9-28.1-1.3-39.6-12.5-47.7-10.2-7.3-18.5-0.2-38.2-9.4-14.4-6.7-23.3 1.7-33.8 5.9-5.3 2.1-12.9-5-20.8-1.7 0.3-1.6 1-3 2.3-4 9.2-7.7 19.4-2.3 25.8-4.8 10.5-4.2 19.5-15.4 33.9-8.7 19.7 9.2 29.1 5.5 39.3 12.8 11.2 8.1 14.7 22.7 10.8 50.8z"/>
						</g>
						<path id="&lt;Path&gt;" class="s2" d="m630 56.1q-0.2 0-0.4-0.1c-0.5-0.2-0.7-0.8-0.5-1.3 0.3-0.6 7-14.5 16.1-10.3 7.6 3.6 16.6-4.8 16.7-4.9 0.4-0.4 1-0.4 1.4 0 0.4 0.4 0.3 1.1-0.1 1.4-0.4 0.4-10 9.5-18.8 5.3-7.4-3.4-13.4 9.2-13.5 9.3-0.1 0.4-0.5 0.6-0.9 0.6z"/>
						<path id="&lt;Path&gt;" class="s2" d="m659.6 59.2c-5.6 0-11.1-1.8-11.4-2-0.6-0.1-0.8-0.7-0.7-1.2 0.2-0.6 0.8-0.8 1.3-0.7 0.1 0.1 12.6 4.3 18.3-0.1 6.5-4.9 16.6-4 20.1 0.1 0.3 0.5 0.3 1.1-0.2 1.5-0.4 0.3-1 0.3-1.4-0.2-2.6-3.1-11.4-4.3-17.3 0.2-2.3 1.8-5.5 2.4-8.7 2.4z"/>
						<path id="&lt;Path&gt;" class="s2" d="m698.5 95.2q0 0-0.1 0c-0.5-0.1-0.9-0.6-0.8-1.1 1.3-9.3-2.1-11.3-6-13.8-2.5-1.5-5.2-3.2-6.4-6.8-2.5-7.2-13.4-5.9-13.5-5.9-0.5 0.1-1-0.3-1.1-0.8-0.1-0.6 0.3-1.1 0.9-1.1 0.5-0.1 12.6-1.5 15.6 7.1 1 3 3.2 4.4 5.6 5.8 3.9 2.5 8.4 5.2 6.8 15.7 0 0.5-0.5 0.9-1 0.9z"/>
						<path id="&lt;Path&gt;" class="s2" d="m715.1 97.6q-0.1 0-0.3-0.1c-0.5-0.1-0.8-0.7-0.6-1.2 3.4-11.5-0.3-16.9-4.5-20.6-6.2-5.6-4.5-17.3-4.4-17.8 0-0.5 0.5-0.9 1.1-0.8 0.5 0.1 0.9 0.6 0.8 1.1 0 0.1-1.6 11.1 3.9 16 4.6 4.1 8.8 10.1 5 22.7-0.1 0.4-0.5 0.7-1 0.7z"/>
						<path id="&lt;Path&gt;" class="s2" d="m711.6 116.2c-0.5 0-0.9-0.3-1-0.8 0-0.2-0.9-5.4-7.6-5.4-8.3 0-11.5-8.9-11.6-9.3-0.2-0.5 0.1-1 0.6-1.2 0.5-0.2 1.1 0.1 1.3 0.6 0 0.1 2.8 7.9 9.7 7.9 8.5 0 9.6 7 9.6 7.1 0 0.5-0.3 1-0.9 1.1q-0.1 0-0.1 0z"/>
					</g>
					<g id="&lt;Group&gt;">
						<path id="&lt;Path&gt;" class="s16" d="m657.6 97.9c0 0 6.3-16.1 16.5-11.5 10.3 4.5 2.5 21.2 1.5 23.4-2 4.7-8.1 13.7-14.5 13-6.4-0.6-3.5-24-3.5-24z"/>
						<path id="&lt;Path&gt;" class="s17" d="m661.6 123.9q-0.3 0-0.6-0.1c-2.1-0.2-3.5-2-4.3-5.5-0.1-0.6 0.2-1.1 0.7-1.2 0.6-0.1 1.1 0.2 1.2 0.7 0.4 1.8 1.2 3.9 2.6 4 5.5 0.6 12.4-9.7 13.5-12.3q0.1-0.3 0.2-0.6c0.6-1.3 1.7-3.9 2.5-7 0.2-0.5 0.7-0.8 1.2-0.7 0.6 0.1 0.9 0.7 0.7 1.2-0.8 3.2-2 5.9-2.5 7.3q-0.2 0.3-0.3 0.5c-1 2.5-7.9 13.7-14.9 13.7z"/>
						<path id="&lt;Path&gt;" class="s17" d="m659.3 95.4q-0.3 0-0.5-0.1c-0.5-0.3-0.7-0.9-0.4-1.4 1-1.8 3.3-4.9 4.9-6.6 0.4-0.3 1.1-0.3 1.4 0 0.4 0.4 0.4 1.1 0 1.5-1.5 1.5-3.6 4.4-4.6 6.1-0.1 0.3-0.5 0.5-0.8 0.5z"/>
						<path id="&lt;Path&gt;" class="s17" d="m669.8 109.9q-0.2 0-0.4-0.1c-0.5-0.2-0.7-0.8-0.5-1.3l0.1-0.4c2.3-5.3 4-12.2-0.6-14.2-0.5-0.3-0.7-0.8-0.5-1.3 0.2-0.6 0.8-0.8 1.3-0.5 3.4 1.5 6.4 5.6 1.7 16.8l-0.2 0.4c-0.1 0.4-0.5 0.6-0.9 0.6z"/>
						<path id="&lt;Path&gt;" class="s17" d="m663.3 110.2q-0.2 0-0.4-0.1c-0.5-0.2-0.8-0.8-0.6-1.3 2.1-5.4-2.4-8.4-2.6-8.5-0.4-0.3-0.6-0.8-0.4-1.2 0.1-0.3 2.9-7.3 7.9-9.3q2.9-1.2 5.8 0.1 2.7 1.2 3.8 3.9c0.3 0.5 0 1.1-0.5 1.3-0.5 0.2-1.1 0-1.3-0.5-0.5-1.3-1.4-2.2-2.8-2.8-1.4-0.7-2.9-0.7-4.3-0.1-3.3 1.3-5.6 5.7-6.4 7.4 2 1.7 4.6 5.5 2.7 10.4-0.1 0.4-0.5 0.7-0.9 0.7z"/>
					</g>
				</g>
				<g id="&lt;Group&gt;">
					<g id="&lt;Group&gt;">
						<path id="&lt;Path&gt;" class="s16" d="m833.6 286.1c0 0 6 50-1.3 90.7-7.4 40.6-3.4 46.6-4.7 56.6-1.3 10-30 76-55.3 82-25.3 6-21.3-120.6-21.3-120.6l18.6-101.3z"/>
						<path id="&lt;Path&gt;" class="s17" d="m814 315l21-13.1 0.6 10.8-22.5 9.7z"/>
					</g>
					<g id="&lt;Group&gt;">
						<path id="&lt;Path&gt;" class="s13" d="m654.1 188.4c0 0 56.1-37.6 81-23.8 41.3 22.9 45 17.7 74.1 46 32.4 31.5 27.1 90.6 27.1 90.6l-21.4 13.4c0 0-18.6 82.2-19.9 104.8-1.4 22.7 5.3 31.7 1.3 53-4 21.3 2.7 47.2 2.7 47.2 0 0-158.7 17.9-186.6-8.8l-14.7-183.4-52-71c0 0 21-61.8 87.5-65.4 16.9-0.8 20.9-2.6 20.9-2.6z"/>
						<path id="&lt;Path&gt;" class="s18" d="m604.4 324.4c-0.4 0-0.7-0.1-0.9-0.4-0.2-0.4-0.2-0.9 0.1-1.2 0.3-0.3 26.5-31 28.5-68.7 0-0.6 0.5-1 1-1 0.6 0.1 1 0.5 1 1.1-1.7 31.5-19.9 58.1-26.6 66.9 20.7-9.5 37.6-34.1 37.8-34.4 0.3-0.4 0.9-0.5 1.4-0.2 0.4 0.3 0.6 0.9 0.2 1.4-0.7 1.1-19.4 28.2-42.2 36.5q-0.2 0-0.3 0z"/>
						<path id="&lt;Path&gt;" class="s18" d="m604.4 324.4q-0.2 0-0.4 0c-0.5-0.3-0.8-0.8-0.6-1.3 0.1-0.3 10.8-31.4 3.5-57.4-0.1-0.6 0.2-1.1 0.7-1.3 0.6-0.1 1.1 0.2 1.3 0.7 4.6 16.5 2.1 34.9-0.4 46.7 10.9-29.9 6.9-66.5 6.9-66.9-0.1-0.5 0.3-1 0.8-1.1 0.6 0 1.1 0.3 1.1 0.9 0.1 0.5 5.2 47.8-12.1 79.2-0.1 0.4-0.5 0.5-0.8 0.5z"/>
						<path id="&lt;Path&gt;" class="s18" d="m624.8 516.9q-0.4 0-0.7-0.3c-2.7-2.7-2.5-11.4-2.2-23.4 0.2-9.2 0.4-19.5-0.8-28.3-1.1-8.2-0.1-14.6 0.9-20.8 1.4-8.7 2.6-16.2-2.6-26.9-8.8-18.7-3-98.4-2.7-101.8 0-0.6 0.5-1 1.1-0.9 0.5 0 0.9 0.5 0.9 1-0.1 0.8-6.1 82.6 2.6 100.8 5.3 11.3 4 19.5 2.7 28.1-1 6.1-2 12.3-0.9 20.2 1.2 8.9 1 19.4 0.8 28.6-0.3 10.2-0.5 19.9 1.6 22 0.4 0.4 0.4 1 0 1.4q-0.3 0.3-0.7 0.3z"/>
						<path id="&lt;Path&gt;" class="s18" d="m672.3 207.8c-0.3 0-0.7-0.2-0.9-0.6-4.4-9.4-26.4-15.3-26.6-15.4-0.5-0.1-0.8-0.6-0.8-1.1 0.1-0.5 0.5-0.9 1-0.9 0.2 0 21.9-0.5 42.5 12.8 0.5 0.3 0.6 1 0.3 1.4-0.3 0.5-0.9 0.6-1.3 0.3-12.6-8.1-25.6-11-33.6-11.9 7.2 2.6 17.3 7.5 20.3 14 0.3 0.5 0.1 1.1-0.4 1.3q-0.3 0.1-0.5 0.1z"/>
						<path id="&lt;Path&gt;" class="s18" d="m814.9 315.6q-0.1 0-0.3-0.1c-0.5-0.2-0.8-0.7-0.6-1.2 4.8-16.6 10.1-43.2 10.2-43.5 0.1-0.5 0.6-0.9 1.2-0.8 0.5 0.1 0.9 0.7 0.7 1.2 0 0.2-3.4 17-7.2 32.2l9.8-21.2c0.2-0.5 0.8-0.8 1.3-0.5 0.5 0.2 0.7 0.8 0.5 1.3l-14.6 32c-0.2 0.4-0.6 0.6-1 0.6z"/>
						<path id="&lt;Path&gt;" class="s18" d="m775.2 513.3c-6.4 0-19.8-1.8-48.6-8.6-25.6-6.1-51.2-13.2-51.4-13.2-0.6-0.2-0.9-0.7-0.7-1.3 0.1-0.5 0.7-0.8 1.2-0.7 0.3 0.1 25.8 7.2 51.4 13.2 49.4 11.7 52.1 8.3 52.2 7.9 0.1-0.2 0.1-1.9-11.2-8.3-7.4-4.2-17.5-9.3-28.3-14.6-34.5-17.3-56.8-29.1-53.7-35.8 2.9-6.3 21.5 0.8 51.7 13.2 17.9 7.4 38.2 15.7 41.3 13.2 0.1-0.1 0.3-0.2 0.2-1-1.1-5.7-22.9-19.4-44.1-32.6-31.1-19.4-63.2-39.5-61.6-51.2 0.2-1.5 1-2.6 2.3-3.3 8-3.8 36.6 13.2 73.2 35.8 16.8 10.4 35.8 22.2 39.1 21.8-1-5.3-25.8-25.7-47.7-43.7-23.4-19.3-47.7-39.3-51.7-47.3q-1.1-2.3 0-3.3c1.3-1 3.9-3.3 51.8 28.6 23.3 15.5 46.3 31.9 46.5 32.1 0.4 0.3 0.5 0.9 0.2 1.3-0.3 0.5-0.9 0.6-1.4 0.3-42-29.9-88.8-60.8-95.4-60.8q-0.1 0-0.3 0.1c0.1 0.1 0.1 0.4 0.4 0.8 3.8 7.7 27.9 27.5 51.2 46.6 29.8 24.5 47.9 39.8 48.4 45.3 0 0.7-0.3 1.3-0.8 1.7-2.8 1.7-13.6-4.6-41.3-21.8-26.9-16.6-63.6-39.3-71.4-35.6-0.7 0.3-1 0.8-1.2 1.7-1.4 10.4 33.1 31.9 60.8 49.2 23.5 14.7 43.7 27.4 45 34 0.3 1.5-0.3 2.4-0.9 2.9-3.8 3.1-19-2.9-43.3-12.9-19.8-8.1-46.9-19.3-49.2-14.3-0.6 1.3 0.6 4.7 15.2 13.4 10.3 6.1 24.2 13.1 37.6 19.8 29.9 14.9 41.9 21.3 40.5 25.3-0.2 0.8-0.7 2.1-6 2.1z"/>
					</g>
					<g id="&lt;Group&gt;">
						<path id="&lt;Path&gt;" class="s16" d="m545.7 256.4c0 0 46.8 23.3 56.5 66.8 0 0-94 80.2-142.7 56.2-29.4-14.5-15.1-176.8-15.1-176.8 0 0-10-17.8-3.5-58.6 3.8-24.7 5.7-43.1 11.1-43.1 6.2 0 2.2 32.4 2.2 32.4 0 0 12.8-40.3 19.9-49.3 4.7-5.9 8.3 1.3 8.3 1.3 0 0 10-12 11.8-0.4 0.6 3.7-6.5 20.3-5.4 20.8 1 0.5 9.2-21.7 14.9-19.1 9.2 4.3-14.7 57.2-10.4 58.2 3.5 0.9 19.6-20.4 25.3-8.4 2.5 5.1-13.9 14.1-16.9 24-7.1 23.7-16.4 40.4-16.4 40.4 0 0 3.4 38 7.1 44.7 11.3 20.6 10.2 34.4 12 43.3 0 0 12-24 41.3-32.4z"/>
						<path id="&lt;Path&gt;" class="s17" d="m470.6 131.6c-0.5 0-0.9-0.4-1-0.9-0.4-5.4 10.4-42.4 10.8-44 0.2-0.5 0.8-0.8 1.3-0.7 0.5 0.2 0.8 0.7 0.7 1.3-3.1 10.6-11.1 39-10.8 43.2 0.1 0.6-0.3 1.1-0.9 1.1q0 0-0.1 0z"/>
						<path id="&lt;Path&gt;" class="s17" d="m481.7 134.5q0 0 0 0c-0.6 0-1-0.5-1-1 0.3-5.2 6.3-25.4 6.5-26.3 0.2-0.5 0.7-0.8 1.3-0.6 0.5 0.1 0.8 0.7 0.6 1.2 0 0.2-6.1 20.8-6.4 25.8 0 0.5-0.4 0.9-1 0.9z"/>
						<path id="&lt;Path&gt;" class="s17" d="m494.2 163c-0.5 0-0.9-0.3-1-0.7-2.1-7.5-1.4-16.4-1.4-16.8 0.1-0.5 0.6-0.9 1.1-0.9 0.6 0.1 1 0.6 0.9 1.1 0 0.1-0.7 8.9 1.3 16 0.2 0.6-0.1 1.1-0.6 1.3q-0.2 0-0.3 0z"/>
						<path id="&lt;Path&gt;" class="s17" d="m491.5 358.2c-0.5 0-0.9-0.4-1-0.9 0-0.5 0.3-1 0.9-1.1 40.7-5.2 63-51.4 63.2-51.8 0.2-0.5 0.8-0.8 1.3-0.5 0.5 0.2 0.7 0.8 0.5 1.3-0.2 0.5-22.9 47.7-64.8 53q0 0-0.1 0z"/>
						<path id="&lt;Path&gt;" class="s17" d="m494.2 318.7q-0.2 0-0.4-0.1c-0.5-0.3-0.8-0.8-0.5-1.3 0-0.2 7.9-17.3 8.8-25.5 0-0.6 0.5-0.9 1.1-0.9 0.5 0.1 0.9 0.6 0.9 1.1-0.9 8.5-8.7 25.4-9 26.1-0.2 0.4-0.5 0.6-0.9 0.6z"/>
						<path id="&lt;Path&gt;" class="s17" d="m460 325.3c-0.5 0-0.9-0.3-1-0.7-5.7-21.2-2.8-73.6-2.7-75.9 0-0.5 0.5-0.9 1.1-0.9 0.5 0 0.9 0.5 0.9 1.1 0 0.5-3 54.2 2.6 75.2 0.2 0.5-0.1 1.1-0.7 1.2q-0.1 0-0.2 0z"/>
						<path id="&lt;Path&gt;" class="s17" d="m602.2 323.2c0 0-3.5 3-9.4 7.6-1.6-29.2-37.5-65.1-47.3-74.4q0.1 0 0.2 0c0 0 46.8 23.3 56.5 66.8z"/>
					</g>
				</g>
			</g>
		</g>
	</g>
</svg>