<svg version="1.2" xmlns="http://www.w3.org/2000/svg" viewBox="0 0 129 128" width="850" height="843">
	<title>iStock-iconPage-ai</title>
	<style>
		.s0 { fill: #34444d } 
		.s1 { fill: #b3b9bc } 
		.s2 { fill: #ffffff } 
		.s3 { fill: none;stroke: #ffffff;stroke-linejoin: round;stroke-width: 2 } 
		.s4 { fill: none;stroke: #d9dcde;stroke-width: 2 } 
		.s5 { fill: none;stroke: #011520;stroke-linejoin: round;stroke-width: 4 } 
		.s6 { fill: none;stroke: #011520;stroke-width: 4 } 
		.s7 { fill: none;stroke: #011520;stroke-linecap: round;stroke-linejoin: round;stroke-width: 4 } 
		.s8 { fill: none;stroke: #011520;stroke-linecap: round;stroke-width: 4 } 
	</style>
	<g id="Icons">
		<g id="&lt;Group&gt;">
			<g id="&lt;Group&gt;">
				<g id="&lt;Group&gt;">
					<path id="&lt;Path&gt;" class="s0" d="m1043.5-44.5v218h-109-108.9v-218h108.9z"/>
				</g>
				<g id="&lt;Group&gt;">
					<path id="&lt;Compound Path&gt;" class="s1" d="m880.7 71.9c6 0 9.1 3.6 9.1 9.9v1.2h-5.9v-1.6c0-2.8-1.1-3.9-3.1-3.9-1.9 0-3 1.1-3 3.9 0 8.1 12 9.6 12 20.8 0 6.3-3.1 9.9-9.2 9.9-6 0-9.2-3.6-9.2-9.9v-2.4h5.9v2.8c0 2.8 1.2 3.8 3.2 3.8 1.9 0 3.2-1 3.2-3.8 0-8.1-12.1-9.6-12.1-20.8 0-6.3 3.1-9.9 9.1-9.9z"/>
					<path id="&lt;Compound Path&gt;" class="s1" d="m891.6 72.4h19.1v5.6h-6.5v33.7h-6.2v-33.7h-6.4z"/>
					<path id="&lt;Compound Path&gt;" fill-rule="evenodd" class="s1" d="m926.3 111.7c-0.4-1-0.6-1.7-0.6-4.9v-6.1c0-3.7-1.2-5-4-5h-2.2v16h-6.1v-39.3h9.3c6.4 0 9.1 2.9 9.1 9v3.1c0 4-1.3 6.7-4 8 3.1 1.3 4.1 4.2 4.1 8.3v6.1c0 1.9 0 3.3 0.7 4.8zm-6.8-33.7v12h2.4c2.3 0 3.7-1 3.7-4.1v-3.9c0-2.8-0.9-4-3.1-4z"/>
					<path id="&lt;Compound Path&gt;" fill-rule="evenodd" class="s1" d="m935.4 81.8c0-6.3 3.3-9.9 9.4-9.9 6.1 0 9.4 3.6 9.4 9.9v20.4c0 6.3-3.3 9.9-9.4 9.9-6.1 0-9.4-3.6-9.4-9.9zm6.2 20.9c0 2.8 1.2 3.8 3.2 3.8 2 0 3.2-1 3.2-3.8v-21.3c0-2.8-1.2-3.8-3.2-3.8-2 0-3.2 1-3.2 3.8z"/>
					<path id="&lt;Compound Path&gt;" class="s1" d="m966.2 96l-1.9 3.6v12.1h-6.1v-39.3h6.1v17.1l8.1-17.1h6.2l-8.6 17.5 8.6 21.8h-6.4z"/>
					<path id="&lt;Compound Path&gt;" class="s1" d="m987.6 88.9h8.5v5.6h-8.5v11.6h10.6v5.6h-16.8v-39.3h16.8v5.6h-10.6z"/>
				</g>
				<g id="&lt;Group&gt;">
					<path id="&lt;Compound Path&gt;" class="s2" d="m877 33.4h6.9v4.6h-6.9v9.5h8.7v4.6h-13.8v-32.3h13.8v4.6h-8.7z"/>
					<path id="&lt;Compound Path&gt;" fill-rule="evenodd" class="s2" d="m888.9 19.8h8c5.1 0 7.5 2.8 7.5 8v16.3c0 5.2-2.4 8-7.5 8h-8zm5 4.6v23h2.9c1.6 0 2.6-0.8 2.6-3.1v-16.8c0-2.3-1-3.1-2.6-3.1z"/>
					<path id="&lt;Compound Path&gt;" class="s2" d="m907.7 19.8h5v32.3h-5z"/>
					<path id="&lt;Compound Path&gt;" class="s2" d="m915 19.8h15.6v4.6h-5.3v27.7h-5v-27.7h-5.3z"/>
					<path id="&lt;Compound Path&gt;" fill-rule="evenodd" class="s2" d="m947.5 52.1h-5.1l-0.9-5.9h-6.2l-0.9 5.9h-4.6l5.1-32.3h7.4zm-11.5-10.2h4.9l-2.5-16.4z"/>
					<path id="&lt;Compound Path&gt;" fill-rule="evenodd" class="s2" d="m965 27.2v1.2c0 3.3-1 5.4-3.2 6.5 2.7 1 3.7 3.5 3.7 6.9v2.6c0 5-2.6 7.7-7.7 7.7h-7.9v-32.3h7.6c5.3 0 7.5 2.5 7.5 7.4zm-10.1-2.8v8.5h2c1.9 0 3.1-0.8 3.1-3.4v-1.8c0-2.3-0.8-3.3-2.6-3.3zm0 13.2v9.9h2.9c1.7 0 2.6-0.8 2.6-3.2v-2.8c0-3-1-3.9-3.3-3.9z"/>
					<path id="&lt;Compound Path&gt;" class="s2" d="m968.6 19.8h5.1v27.7h8.3v4.6h-13.4z"/>
					<path id="&lt;Compound Path&gt;" class="s2" d="m989.3 33.4h7v4.6h-7v9.5h8.7v4.6h-13.8v-32.3h13.8v4.6h-8.7z"/>
				</g>
				<path id="&lt;Path&gt;" class="s3" d="m1007.6 60.7h-145.3v-50.6h145.3z"/>
			</g>
			<g id="&lt;Group&gt;">
				<g id="&lt;Group&gt;">
					<path id="&lt;Path&gt;" class="s4" d="m1043.5-44.5v218h-109-108.9v-218h108.9z"/>
				</g>
				<path id="&lt;Path&gt;" class="s4" d="m-46.5-44.5h218v218h-218z"/>
				<path id="&lt;Path&gt;" class="s4" d="m171.5-44.5h218v218h-218z"/>
				<path id="&lt;Path&gt;" class="s4" d="m389.5-44.5h218v218h-218z"/>
				<path id="&lt;Path&gt;" class="s4" d="m-46.5 173.5h218v218h-218z"/>
				<path id="&lt;Path&gt;" class="s4" d="m171.5 173.5h218v218h-218z"/>
				<path id="&lt;Path&gt;" class="s4" d="m389.5 173.5h218v218h-218z"/>
				<path id="&lt;Path&gt;" class="s4" d="m607.5 173.5h218v218h-218z"/>
				<path id="&lt;Path&gt;" class="s4" d="m607.5-44.5h218v218h-218z"/>
				<path id="&lt;Path&gt;" class="s4" d="m825.5 173.5h218v218h-218z"/>
				<path id="&lt;Path&gt;" class="s4" d="m-46.5 391.5h218v218h-218z"/>
				<path id="&lt;Path&gt;" class="s4" d="m171.5 391.5h218v218h-218z"/>
				<path id="&lt;Path&gt;" class="s4" d="m389.5 391.5h218v218h-218z"/>
				<path id="&lt;Path&gt;" class="s4" d="m607.5 391.5h218v218h-218z"/>
				<path id="&lt;Path&gt;" class="s4" d="m825.5 391.5h218v218h-218z"/>
				<path id="&lt;Path&gt;" class="s4" d="m-46.5 609.5h218v218h-218z"/>
				<path id="&lt;Path&gt;" class="s4" d="m171.5 609.5h218v218h-218z"/>
				<path id="&lt;Path&gt;" class="s4" d="m389.5 609.5h218v218h-218z"/>
				<path id="&lt;Path&gt;" class="s4" d="m607.5 609.5h218v218h-218z"/>
				<path id="&lt;Path&gt;" class="s4" d="m825.5 609.5h218v218h-218z"/>
				<path id="&lt;Path&gt;" class="s4" d="m-46.5 827.5h218v218h-218z"/>
				<path id="&lt;Path&gt;" class="s4" d="m171.5 827.5h218v218h-218z"/>
				<path id="&lt;Path&gt;" class="s4" d="m389.5 827.5h218v218h-218z"/>
				<path id="&lt;Path&gt;" class="s4" d="m607.5 827.5h218v218h-218z"/>
				<path id="&lt;Path&gt;" class="s4" d="m825.5 827.5h218v218h-218z"/>
			</g>
		</g>
		<g id="&lt;Group&gt;">
			<path id="&lt;Path&gt;" class="s5" d="m776.3 310.8l-1.6 23.2c0.1 1.4-0.9 3-2.1 3.7l-5.2 3c-0.7 0.4-1.2 0.3-1.6 0.1-1.9-1.1-7-4.1-7-4.1-0.4-0.2-0.6-0.7-0.6-1.4 0 0 1.9-7.7 2.2-13.4"/>
			<path id="&lt;Path&gt;" class="s5" d="m723.4 293.3c5.3-0.7 20.8-3.2 34.3-9.6 3.1-1.5 7.6-1.9 12 0.1 3.1-0.7 8.3 0 11.6 5.3 2.1 3.6 1 8.9-0.7 11 0.2 5.4-2.6 10.3-8.4 13.7-10.3 6.1-21.1 15.3-26.3 19.7"/>
			<path id="&lt;Path&gt;" class="s5" d="m742.2 310.1c6.7 12.8 6 26.4-1.6 30.3-7.5 4-19.1-3.1-25.8-15.9-6.7-12.8-6.1-26.4 1.5-30.3 7.5-4 19.1 3.1 25.9 15.9z"/>
			<path id="&lt;Path&gt;" class="s5" d="m745.3 317.9l-9.1 4c-2.2 1.2-5.6-0.6-7.4-4-1.9-3.5-1.6-7.2 0.6-8.4l9-5.3"/>
			<g id="&lt;Group&gt;">
				<path id="&lt;Path&gt;" class="s6" d="m711.5 316.5h-49.2c-1.4 0-2.6-1.2-2.6-2.7v-78.1c0-1.5 1.2-2.7 2.6-2.7h92.5c1.5 0 2.7 1.2 2.7 2.7v48"/>
				<path id="&lt;Path&gt;" class="s6" d="m660.1 254.8h97"/>
				<path id="&lt;Path&gt;" class="s6" d="m673.6 267.9h29.6"/>
				<path id="&lt;Path&gt;" class="s6" d="m673.6 279.8h29.6"/>
				<path id="&lt;Path&gt;" class="s6" d="m673.6 291.7h29.6"/>
				<path id="&lt;Path&gt;" class="s6" d="m673.6 303.6h29.6"/>
				<path id="&lt;Path&gt;" class="s5" d="m714 295.9v-28h29.5v21.1"/>
				<path id="&lt;Path&gt;" class="s7" d="m681.7 239.1l4.8 4.8-4.8 4.8"/>
				<path id="&lt;Path&gt;" class="s7" d="m672.9 248.7l-4.8-4.8 4.8-4.8"/>
			</g>
		</g>
		<g id="&lt;Group&gt;">
			<path id="&lt;Path&gt;" class="s6" d="m87.5 104.5h-74.9c-1.5 0-2.8-1.3-2.8-2.8v-83.2c0-1.6 1.3-2.8 2.8-2.8h98.5c1.6 0 2.9 1.2 2.9 2.8v61.6"/>
			<path id="&lt;Path&gt;" class="s6" d="m10.2 38.9h103.3"/>
			<path id="&lt;Path&gt;" class="s6" d="m24.7 52.8h31.4"/>
			<path id="&lt;Path&gt;" class="s6" d="m24.7 65.4h31.4"/>
			<path id="&lt;Path&gt;" class="s6" d="m24.7 78.1h31.4"/>
			<path id="&lt;Path&gt;" class="s6" d="m24.7 90.8h31.4"/>
			<path id="&lt;Path&gt;" class="s5" d="m88.4 90.8h-20.8v-38h31.5v13.7"/>
			<path id="&lt;Path&gt;" class="s5" d="m102.8 104.7l-10.2 6.2 6.4-36.2 26.2 25.7-12.3 1.1 4.5 14.1-10.1 3.2z"/>
			<path id="&lt;Path&gt;" class="s7" d="m33.3 22.1l5.1 5.2-5.1 5.1"/>
			<path id="&lt;Path&gt;" class="s7" d="m23.9 32.4l-5.1-5.1 5.1-5.2"/>
		</g>
		<g id="&lt;Group&gt;">
			<path id="&lt;Path&gt;" class="s6" d="m59.4 322.7h-48.3c-1.5 0-2.7-1.2-2.7-2.7v-78.9c0-1.4 1.2-2.6 2.7-2.6h93.4c1.5 0 2.7 1.2 2.7 2.6v59.9"/>
			<path id="&lt;Path&gt;" class="s6" d="m8.8 260.5h98"/>
			<path id="&lt;Path&gt;" class="s6" d="m22.5 273.6h29.8"/>
			<path id="&lt;Path&gt;" class="s6" d="m22.5 285.6h29.8"/>
			<path id="&lt;Path&gt;" class="s6" d="m22.5 297.6h29.8"/>
			<path id="&lt;Path&gt;" class="s6" d="m22.5 309.7h29.8"/>
			<path id="&lt;Path&gt;" class="s6" d="m63.2 273.6h29.9"/>
			<path id="&lt;Path&gt;" class="s6" d="m63.2 285.6h29.9"/>
			<path id="&lt;Path&gt;" class="s5" d="m90.3 295.6c19.2 0 34.7 22.4 34.7 22.4 0 0-15.5 22.4-34.7 22.4-19.1 0-34.6-22.4-34.6-22.4 0 0 15.5-22.4 34.6-22.4z"/>
			<path id="&lt;Path&gt;" class="s5" d="m112.8 318c0 12.4-10.1 22.4-22.5 22.4-12.3 0-22.4-10-22.4-22.4 0-12.4 10.1-22.5 22.4-22.5 12.4 0 22.5 10.1 22.5 22.5z"/>
			<path id="&lt;Path&gt;" class="s5" d="m97.5 318c0 3.9-3.2 7.1-7.2 7.1-3.9 0-7.1-3.2-7.1-7.1 0-4 3.2-7.2 7.1-7.2 4 0 7.2 3.2 7.2 7.2z"/>
			<path id="&lt;Path&gt;" class="s7" d="m30.8 244.6l4.8 4.8-4.8 4.9"/>
			<path id="&lt;Path&gt;" class="s7" d="m21.8 254.3l-4.8-4.9 4.8-4.8"/>
		</g>
		<g id="&lt;Group&gt;">
			<path id="&lt;Path&gt;" class="s6" d="m755 713.1v29.1"/>
			<path id="&lt;Path&gt;" class="s6" d="m764 752.2l-1.3 6.8c-0.9 2.4-1.7 3.8-3.8 3.8h-105.5c-2.1 0-3.2-1.7-3.8-3.8l-1.3-6.8c0-2.1 1.7-3.8 3.8-3.8h108.1c2.1 0 3.8 1.7 3.8 3.8z"/>
			<path id="&lt;Path&gt;" class="s6" d="m657.4 742.2v-49.4c0-3.1 2.5-5.7 5.6-5.7h64.4"/>
			<path id="&lt;Path&gt;" class="s6" d="m673.3 718.5h10.8"/>
			<path id="&lt;Path&gt;" class="s6" d="m689.6 718.5h49.4"/>
			<path id="&lt;Path&gt;" class="s6" d="m673.3 703h10.8"/>
			<path id="&lt;Path&gt;" class="s6" d="m689.6 703h33"/>
			<path id="&lt;Path&gt;" class="s6" d="m673.3 734h10.8"/>
			<path id="&lt;Path&gt;" class="s6" d="m689.6 734h49.4"/>
			<path id="&lt;Path&gt;" class="s5" d="m785.7 712.7c3.7 3.1 3.5 8.3 0.4 11.4-3.3 3.4-8.2 3.1-11.4-0.4l-11.6-13.4c-3.5 2-7.5 3.1-11.7 3.1-13.2 0-24-10.8-24-24 0-13.1 10.8-23.9 24-23.9 13.1 0 23.9 10.8 23.9 23.9 0 4.3-1.1 8.3-3.1 11.7z"/>
			<path id="&lt;Path&gt;" class="s5" d="m751.4 704.8c-8.5 0-15.4-6.9-15.4-15.4 0-8.4 6.9-15.3 15.4-15.3 8.4 0 15.3 6.9 15.3 15.3 0 8.5-6.9 15.4-15.3 15.4z"/>
			<path id="&lt;Path&gt;" class="s8" d="m752.4 755.6h0.5"/>
		</g>
		<g id="&lt;Group&gt;">
			<path id="&lt;Compound Path&gt;" class="s5" d="m554.6 549c3.3 5.7 0.7 12.2-4.6 14.8-2.8 1.3-5.7 1.4-8.1 0.5-2.8-1-5.1-3.1-6.3-6.2l-8-20.5c-2.1 0.4-4.2 0.6-6.4 0.6-13.5 0-26-7.9-31.8-20.1-4-8.4-4.5-18-1.3-26.8 3.1-8.9 9.5-16 18-20 4.8-2.3 9.8-3.4 15.1-3.4 13.5 0 26 7.9 31.7 20.1 4.1 8.5 4.5 18 1.4 26.9-2.1 6-5.8 11.1-10.6 15.1z"/>
			<path id="&lt;Path&gt;" class="s7" d="m481.1 449.9c-3.5-2.5-5.8-6.7-5.7-11.4"/>
			<path id="&lt;Path&gt;" class="s7" d="m503.2 438.8c-0.1 4.7-2.5 8.9-6.1 11.3"/>
			<path id="&lt;Path&gt;" class="s7" d="m514.3 461.7l7.7-8.7 10.4-5.4"/>
			<path id="&lt;Path&gt;" class="s7" d="m524.4 485.6l7.3 0.6 8.7 15.3"/>
			<path id="&lt;Path&gt;" class="s7" d="m522.5 498.8l6.4 5.6v14.8"/>
			<path id="&lt;Path&gt;" class="s7" d="m444 449.9l13.8 5.6 8.8 14.2"/>
			<path id="&lt;Path&gt;" class="s7" d="m434.5 492.2l10.3-13 17.3-0.7"/>
			<path id="&lt;Path&gt;" class="s7" d="m443.8 518.5v-15.6l15.9-10.6"/>
			<path id="&lt;Path&gt;" class="s5" d="m547.2 503c0 14.4-11.6 26.1-26 26.1-14.4 0-26.1-11.7-26.1-26.1 0-14.4 11.7-26.1 26.1-26.1 14.4 0 26 11.7 26 26.1z"/>
			<path id="&lt;Path&gt;" class="s5" d="m516.1 477.4c2.5 5.6 3.3 11.9 1.8 18-2.3 8.9-10.1 16.6-17.6 23.3"/>
			<path id="&lt;Path&gt;" class="s5" d="m493.4 524.6c-1.6 1.2-2.8 1.6-4.6 1.6-3.2 0-4.6-1.5-10.1-6.4-7.4-6.5-16-14.4-18.5-23.5-2.1-9.5 2.2-23.9 10.5-29.8q2.9-2.4 6.2-3.9c-1.2-6.3 2.5-16.3 13.5-15.3 8.8 0.8 12.6 9.9 10.9 15.4 3.6 1.5 6.9 3.9 9.5 6.8"/>
		</g>
		<g id="&lt;Group&gt;">
			<path id="&lt;Path&gt;" class="s5" d="m464 45.3v-41c0-1.1 0.9-1.9 1.9-1.9h70.9c1.1 0 1.9 0.8 1.9 1.9v79.7"/>
			<path id="&lt;Path&gt;" class="s5" d="m473.9 84h33"/>
			<path id="&lt;Path&gt;" class="s5" d="m480.8 66.7c0 0-6.4 15.4-8.2 20.9-3.1 8.9-4.4 12.8-5.4 14.2-1 1.5-5.3 7.1-7.5 10-1.4 1.9-3 1.3-4.8 1l-11.9-2.2c-2.6-0.5-3-1.6-3.2-4.1l-1.2-32.8c-0.2-2.1-0.6-5.5 1.8-8.1l23.6-21v18.1l-8.1 9.6 2.4 10.4 10.1-20.3c1.8-3.3 5.3-3.9 7.9-2.8 3.9 1.5 5.2 4.7 4.5 7.1z"/>
			<path id="&lt;Path&gt;" class="s5" d="m529.1 129.5c-7.4 0-12.8-3.7-19.8-13.6-4.4-6.2-8.7-9.7-11.5-12-2.4-2-3.7-3.1-3.4-4.6 0.3-1.4 2.4-3.8 5.7-4.8q0.7-0.2 1.6-0.2c2.2 0 5.4 1.1 8.3 3.8l-6.1-27.6c-0.7-3.2 1.3-6.3 4.5-7.1q0.7-0.1 1.3-0.1c2.7 0 5.2 1.9 5.8 4.6l3.7 16.6q0.3-0.4 0.6-0.7c1.1-1.2 2.6-1.8 4.3-1.8 2.2 0 3.9 1.1 5 3 1.3-2 3.6-2.8 5.1-2.8 2.8 0.1 5.2 2 5.8 4.7l0.1 0.3c1.1-1.4 2.9-2 4.4-2 2.7 0 5.1 1.9 5.7 4.6l3.7 16.6c1.4 6.6-1.8 18.5-16.8 22-3.2 0.7-5.7 1.1-8 1.1z"/>
			<path id="&lt;Path&gt;" class="s5" d="m464 26.6v18"/>
			<path id="&lt;Path&gt;" class="s5" d="m468.7 98.3h26.2"/>
			<path id="&lt;Path&gt;" class="s7" d="m482.9 20.9h40l-2.6 23.8h-32.5l-6.1-29.2h-4.7"/>
			<path id="&lt;Path&gt;" class="s7" d="m491 28.9h25.1"/>
			<path id="&lt;Path&gt;" class="s7" d="m493.3 36.3h22.9"/>
			<path id="&lt;Path&gt;" class="s7" d="m519.9 51.9h-32v-7.2"/>
			<path id="&lt;Path&gt;" class="s7" d="m488.4 57.3h0.2"/>
			<path id="&lt;Path&gt;" class="s7" d="m519.8 57.3h0.2"/>
		</g>
		<g id="&lt;Group&gt;">
			<path id="&lt;Path&gt;" class="s6" d="m240.8 559.9c-1.3 0-2.3-1-2.3-2.3v-68.2c0-1.3 1-2.3 2.3-2.3h80.7c1.3 0 2.3 1 2.3 2.3v68.2c0 1.3-1 2.3-2.3 2.3z"/>
			<path id="&lt;Path&gt;" class="s6" d="m238.8 506.1h84.7"/>
			<path id="&lt;Path&gt;" class="s6" d="m250.6 517.5h25.8"/>
			<path id="&lt;Path&gt;" class="s6" d="m250.6 527.9h25.8"/>
			<path id="&lt;Path&gt;" class="s6" d="m250.6 538.3h25.8"/>
			<path id="&lt;Path&gt;" class="s6" d="m250.6 548.6h25.8"/>
			<path id="&lt;Path&gt;" class="s5" d="m311.6 548.6h-25.8v-31.1h25.8z"/>
			<path id="&lt;Path&gt;" class="s7" d="m257.7 492.4l4.2 4.2-4.2 4.2"/>
			<path id="&lt;Path&gt;" class="s7" d="m250 500.8l-4.2-4.2 4.2-4.2"/>
			<path id="&lt;Path&gt;" class="s6" d="m238.5 513.5c-11.9-1.5-21.1-11.6-21.1-23.8 0-13.3 10.8-24.1 24-24.1 1.3 0 2.5-0.8 2.8-2.1 3.5-12 14.1-20 26.6-20 8.7 0 17 4.2 22.2 11.3 0.6 0.9 1.6 1.3 2.7 1.2 1.5-0.2 15.6-1.2 22 12.5 0.5 1 1.6 1.7 2.7 1.7 6.3-0.3 12.1 1.9 16.4 6 4.3 4.1 6.7 9.8 6.7 15.6 0 11.2-8.3 20.8-19.4 21.8"/>
		</g>
		<g id="&lt;Group&gt;">
			<path id="&lt;Path&gt;" class="s6" d="m76 973.6h-72c-1.6 0-2.9-1.3-2.9-3v-85.3c0-1.6 1.3-2.9 2.9-2.9h101.1c1.6 0 2.9 1.3 2.9 2.9v59.5"/>
			<path id="&lt;Path&gt;" class="s6" d="m1.6 906.2h106"/>
			<path id="&lt;Path&gt;" class="s6" d="m16.4 920.5h32.3"/>
			<path id="&lt;Path&gt;" class="s6" d="m16.4 933.5h32.3"/>
			<path id="&lt;Path&gt;" class="s6" d="m16.4 946.5h32.3"/>
			<path id="&lt;Path&gt;" class="s6" d="m16.4 959.5h32.3"/>
			<path id="&lt;Path&gt;" class="s5" d="m75.1 959.5h-14.6v-39h32.3v24.2"/>
			<path id="&lt;Path&gt;" class="s7" d="m25.3 889l5.2 5.3-5.2 5.2"/>
			<path id="&lt;Path&gt;" class="s7" d="m15.6 899.5l-5.3-5.2 5.3-5.3"/>
			<path id="&lt;Path&gt;" class="s5" d="m99.4 953.3c6.8 0 12 0.7 15.5 1.5v11c0 13.4-10 19.1-15.5 21.3z"/>
			<path id="&lt;Compound Path&gt;" class="s5" d="m75.1 965.5v-17.3c7.2-2.5 15.6-3.7 24.8-3.7 11.5 0 18.6 1.7 23.9 3.7v17.3c0 22.2-19.4 29.4-24.4 30.9-4.9-2-24.3-9.1-24.3-30.9z"/>
		</g>
		<g id="&lt;Group&gt;">
			<path id="&lt;Path&gt;" class="s5" d="m275.9 754.8c-11.3-4.5-31.9-16.3-31.9-43.9v-22.5c7.3-1.7 18-3.2 31.9-3.2z"/>
			<path id="&lt;Path&gt;" class="s7" d="m329.6 749.7c0 11.8-9.6 21.3-21.4 21.3-11.8 0-21.3-9.5-21.3-21.3 0-11.8 9.5-21.3 21.3-21.3 11.8 0 21.4 9.5 21.4 21.3z"/>
			<path id="&lt;Path&gt;" class="s7" d="m318.9 741.7l-12.9 17.6-9.6-7.5"/>
			<path id="&lt;Compound Path&gt;" class="s5" d="m291.4 762.8c-6.5 3.8-12.3 6-15.2 7-9.5-2.8-46.4-16.4-46.4-58.6v-33c10-3.7 23.6-7 45.4-7 17.5 0 33.4 2.4 47.2 7.1v32.9c0 7.5-1.3 14.2-3.4 20.1"/>
		</g>
		<g id="&lt;Group&gt;">
			<path id="&lt;Path&gt;" class="s5" d="m297.7 975.7h-42.7v-43.3"/>
			<path id="&lt;Path&gt;" class="s5" d="m293.4 888.5h33.8v77"/>
			<path id="&lt;Path&gt;" class="s5" d="m339.1 978.4c-0.2 0.6-0.6 1-1.2 1l-15.1 1.4 6.8 21.4c0.3 0.8-0.1 1.6-0.9 1.8l-10.4 3.4q-0.3 0.1-0.5 0.1c-0.6 0-1.2-0.4-1.4-1.1l-6.9-21.4-12.3 7.5q-0.4 0.2-0.8 0.2-0.4 0-0.8-0.3c-0.5-0.3-0.7-0.9-0.6-1.4l8.1-45.8c0.1-0.6 0.4-1 1-1.2q0.2-0.1 0.4-0.1c0.4 0 0.8 0.2 1.1 0.5l33.2 32.5c0.4 0.4 0.5 1 0.3 1.5z"/>
			<path id="&lt;Path&gt;" class="s8" d="m298.1 930.6l3.2 7.4"/>
			<path id="&lt;Path&gt;" class="s8" d="m287.8 946.1l7.3 2.5"/>
			<path id="&lt;Path&gt;" class="s8" d="m316.3 933.7l-3.2 7"/>
			<path id="&lt;Path&gt;" class="s5" d="m215.6 911.4l10.7-9.9-9.3-10 15.4-4-0.9-12.7 15.2 3.2 7.9-11.4 10.2 9.4 14.2-6.5 2 12.6 15.9 0.4-6.9 11.8 12.6 7.3-13.6 7.3 5.3 11.8-16 0.4-3.6 12.6-13.3-6.6-11.5 9.4-6.3-11.5-15.7 3.2 2.6-12.7z"/>
			<path id="&lt;Path&gt;" class="s7" d="m249.6 913.5l1.9-21.1 6.5 20.1"/>
			<path id="&lt;Path&gt;" class="s7" d="m250 910.1l6.7-0.8"/>
			<path id="&lt;Path&gt;" class="s7" d="m270.2 911.2l-6.5 0.7-2.3-20.9"/>
			<path id="&lt;Path&gt;" class="s7" d="m281.7 909.9l-7.1 0.8-2.3-20.6 7.1-0.8"/>
			<path id="&lt;Path&gt;" class="s7" d="m273.4 900.3l6-0.7"/>
			<path id="&lt;Path&gt;" class="s7" d="m243.3 898.3c0 0 0.3-5.2-4.3-4.7-3.8 0.4-3.9 3.9-3.2 5.5 1.6 3.6 8.9 5 8.9 11.3 0 1.3-0.3 3.7-3.4 4-4.9 0.6-4.8-5-4.8-5"/>
		</g>
		<g id="&lt;Group&gt;">
			<path id="&lt;Path&gt;" class="s5" d="m85.8 690.9c0 11.3-9.2 20.5-20.5 20.5-11.3 0-20.5-9.2-20.5-20.5 0-11.4 9.2-20.5 20.5-20.5 11.3 0 20.5 9.1 20.5 20.5z"/>
			<path id="&lt;Path&gt;" class="s6" d="m92.9 755.7h15.1"/>
			<path id="&lt;Path&gt;" class="s6" d="m22.8 755.7h14.9"/>
			<path id="&lt;Path&gt;" class="s6" d="m92.9 765.6h6.6c1.1 0 1.6 0.9 1.1 1.9l-7 9.1c-0.8 1-1.5 0.8-2.4 0.8h-51.8c-0.9 0-1.4 0.2-1.9-0.7l-7.5-9.2c-0.5-1 0-1.9 1.1-1.9h6.6"/>
			<path id="&lt;Path&gt;" class="s6" d="m37.7 777v-36.8c0-0.9 0.8-1.6 1.7-1.6h51.8c0.9 0 1.7 0.7 1.7 1.6v37"/>
			<path id="&lt;Path&gt;" class="s8" d="m64.8 758h1"/>
			<path id="&lt;Path&gt;" class="s6" d="m9 672.3v19.1"/>
			<path id="&lt;Path&gt;" class="s6" d="m33.4 668v23.4"/>
			<path id="&lt;Path&gt;" class="s6" d="m21.2 660.7v30.7"/>
			<path id="&lt;Path&gt;" class="s6" d="m27.1 718c0 2.5-2 4.5-4.5 4.5-2.5 0-4.5-2-4.5-4.5 0-2.4 2-4.4 4.5-4.4 2.5 0 4.5 2 4.5 4.4z"/>
			<path id="&lt;Path&gt;" class="s6" d="m38.5 704.6c0 2.4-2 4.4-4.5 4.4-2.4 0-4.4-2-4.4-4.4 0-2.5 2-4.5 4.4-4.5 2.5 0 4.5 2 4.5 4.5z"/>
			<path id="&lt;Path&gt;" class="s6" d="m0.5 722.5c0 2.5-2 4.5-4.5 4.5-2.5 0-4.5-2-4.5-4.5 0-2.5 2-4.5 4.5-4.5 2.5 0 4.5 2 4.5 4.5z"/>
			<path id="&lt;Path&gt;" class="s6" d="m11.9 709c0 2.5-2 4.5-4.4 4.5-2.5 0-4.5-2-4.5-4.5 0-2.4 2-4.4 4.5-4.4 2.4 0 4.4 2 4.4 4.4z"/>
			<path id="&lt;Path&gt;" class="s6" d="m-1.1 719.1l5.6-6.6"/>
			<path id="&lt;Path&gt;" class="s6" d="m11.2 711.5l7.5 4.3"/>
			<path id="&lt;Path&gt;" class="s6" d="m25.5 714.6l5.8-6.5"/>
			<path id="&lt;Path&gt;" class="s5" d="m114.8 696.4l-15.2 13.2c-7.3-8.4-6.5-21.2 2-28.5 3.8-3.3 8.1-4.9 13.2-4.9z"/>
			<path id="&lt;Path&gt;" class="s5" d="m114.8 696.4l20 2.8c-1.6 11-11.8 18.7-22.8 17.1-5-0.7-9.1-2.9-12.4-6.7z"/>
			<path id="&lt;Path&gt;" class="s5" d="m114.8 696.4v-20.2c11.1 0 20.2 9 20.2 20.2 0 1-0.1 1.8-0.2 2.8z"/>
			<path id="&lt;Path&gt;" class="s5" d="m29.3 755.7v-12.8c0-11.4 7.9-21 22.6-24.6l13.4 10.2 13.3-10.1c14.7 3.9 22.7 14.2 22.7 24.5v12.8"/>
		</g>
		<g id="&lt;Group&gt;">
			<path id="&lt;Path&gt;" class="s5" d="m299.9 61.8h-34.4v-15.9h34.4z"/>
			<path id="&lt;Path&gt;" class="s6" d="m278.2 34.6c0 2.5-3.2 4.5-7.2 4.5-3.9 0-7.2-2-7.2-4.5 0-2.4 3.3-4.4 7.2-4.4 4 0 7.2 2 7.2 4.4z"/>
			<path id="&lt;Path&gt;" class="s6" d="m282.4 34.6h19.3"/>
			<path id="&lt;Path&gt;" class="s5" d="m263.8 71.3h37.8"/>
			<path id="&lt;Path&gt;" class="s5" d="m263.8 81h37.8"/>
			<path id="&lt;Path&gt;" class="s6" d="m299.8 110.2l-27.6 11.9c-18.8 8-47.2-7-44.9-36.6 0.5-7.6 3.5-16.7 6.6-25.9 7.6-22.5 0.5-34.6 3.7-36.5 2.8-1.6 12.6 0.1 15.2 7.9"/>
			<path id="&lt;Path&gt;" class="s6" d="m313.2 102.7c0 3.7-4.1 6.3-7.9 6.9-8.5 0.8-13.2 1-21.3 1-8.1 0-16.2-0.4-24.6-1.2-3.7-0.4-6.6-3.9-6.6-7.9v-84.8c0-4 2.9-7.5 6.5-7.9 8.5-0.8 16-1.2 23.5-1.2 7.4 0 14.9 0.4 23.3 1.2 3.7 0.4 6.6 3.9 6.6 7.9v39.5"/>
			<path id="&lt;Path&gt;" class="s6" d="m321.8 83.8l-7 3c-0.8 0.3-1.6 0.5-2.5 0.5-2.4 0-4.9-1.3-6-4.1-1.4-3.4 0.1-7.4 3.5-8.8l7-3.1q1.1-0.5 2.4-0.5c2.4 0 5 1.4 6.1 4.2 1.4 3.4-0.2 7.3-3.5 8.8z"/>
			<path id="&lt;Path&gt;" class="s6" d="m312.7 102.7c-2.2 0-4.5-1.2-5.5-3.7-1.3-3.1 0.1-6.7 3.1-8l6.4-2.7q1-0.5 2.2-0.5c2.2 0 4.5 1.2 5.5 3.7 1.2 3.1-0.2 6.7-3.2 8l-6.3 2.8c-0.7 0.3-1.5 0.4-2.2 0.4z"/>
			<path id="&lt;Path&gt;" class="s6" d="m309.8 57.5l4.7-2.2c0.8-0.3 1.6-0.5 2.5-0.5 2.4 0 4.9 1.3 6.1 4.1 1.3 3.5-0.2 7.4-3.5 8.8l-4.8 2.2q-1.1 0.5-2.4 0.5c-2.4 0-5-1.3-6.1-4.1-1.4-3.4 0.2-7.4 3.5-8.8z"/>
			<path id="&lt;Path&gt;" class="s8" d="m275.6 101.1h14.3"/>
			<path id="&lt;Path&gt;" class="s8" d="m280.3 15.7h4.9"/>
			<path id="&lt;Path&gt;" class="s6" d="m252.8 92.4h55.6"/>
			<path id="&lt;Path&gt;" class="s6" d="m252.8 23.2h59.9"/>
			<path id="&lt;Path&gt;" class="s6" d="m312.7 32c1.5-0.6 6.9-2.5 8.1-2.8 4.6-1.4 7.4 0.9 8.6 4 1.6 3.9-0.2 8.4-3.9 10l-12.8 5.5"/>
		</g>
		<g id="&lt;Group&gt;">
			<path id="&lt;Path&gt;" class="s5" d="m302.9 342.1h-7.2l12.2-12.3 12.3 12.3h-7c0 6.5-6 16.8-17.4 16.8q-1.2 0-2.5-0.2c5.5-3.6 9.6-9.4 9.6-16.6z"/>
			<path id="&lt;Path&gt;" class="s5" d="m281.2 216.5c13.1 0 23 17.7 23 49.3 0 19.3-8.3 37-8.3 37l1.1 13.6c0 0.6-0.4 1.2-0.9 1.3l-30.8-0.1c-0.6-0.2-1-0.7-0.9-1.3l1.2-13.8c0 0-7.9-15.9-7.9-36.9 0-31.6 10.9-49.1 23.5-49.1z"/>
			<path id="&lt;Path&gt;" class="s5" d="m292.7 317.5c2.4 4 2 9.3-1.7 15.5-6 10.1-9 17.2-9 21.1-0.1 0.5-0.6 1-1.3 0.9q-0.2 0-0.4 0c-0.5-0.2-0.8-0.5-0.8-0.9 0.1-4.1-2.9-11.2-8.7-21.2-3.6-6.2-4.2-11.4-1.6-15.4"/>
			<path id="&lt;Path&gt;" class="s5" d="m281 267.9c-5.4 0-9.8-6.2-9.8-13.8 0-7.6 4.4-13.7 9.8-13.7 5.4 0 9.8 6.1 9.8 13.7 0 7.6-4.4 13.8-9.8 13.8z"/>
			<path id="&lt;Path&gt;" class="s7" d="m281.2 216.2v-5.7"/>
			<path id="&lt;Path&gt;" class="s5" d="m264.4 230.2h33.5"/>
			<path id="&lt;Path&gt;" class="s5" d="m265.6 302.5h30.3"/>
			<path id="&lt;Path&gt;" class="s5" d="m302.6 281.4c13.8 8 23.8 26.7 17.2 45.5q-0.1 0.3-0.3 0.5c-0.2 0.2-0.5 0.3-0.8 0.3-0.6 0-1-0.4-1.2-0.9-3-11-11-19.8-21.5-24"/>
			<path id="&lt;Path&gt;" class="s5" d="m265.5 302.5c-4.5 1.6-8.7 4.4-12.4 8.1-4.7 4.6-8.3 10.6-9.7 15.9-0.1 0.5-0.6 0.8-1.1 0.9-0.5 0-1-0.3-1.2-0.8-3.3-8.5-3.7-25.9 9.3-38.8 2.5-2.6 5.4-4.8 8.7-6.7"/>
		</g>
		<g id="&lt;Group&gt;">
			<path id="&lt;Compound Path&gt;" class="s5" d="m743.3 41c8.5 2.2 14.7 8 14.7 14.9 0 2.7-1 7.6-7.5 9.1-6.2 1.6-9.6 3.8-10.4 7-0.5 1.8 0 3.4 0.6 4.7-6-1.8-21-6.8-25.6-15.6"/>
			<path id="&lt;Compound Path&gt;" class="s5" d="m691.1 42.4c-8.7-2.1-10-8.5-10-12.1 0-11.6 13.3-21.1 29.5-21.1 9.8 0 19 3.5 24.5 9.4 3.3 3.5 5 7.5 4.9 11.6-0.1 16-26.4 25-35.9 27.7 0.8-1.7 1.5-3.9 0.9-6.2-1.1-4.2-5.6-7.3-13.9-9.3z"/>
			<path id="&lt;Path&gt;" class="s5" d="m776.3 83.7c0 7.6-6.1 13.6-13.6 13.6-7.5 0-13.6-6-13.6-13.6 0-7.5 6.1-13.5 13.6-13.5 7.5 0 13.6 6 13.6 13.5z"/>
			<path id="&lt;Path&gt;" class="s5" d="m739.3 122.5c0-11 10.4-17.3 23.4-17.3 12.9 0 23.4 6.3 23.4 17.3"/>
			<path id="&lt;Path&gt;" class="s5" d="m729.3 23.5h-36"/>
			<path id="&lt;Path&gt;" class="s5" d="m729.3 34.1h-36"/>
			<path id="&lt;Path&gt;" class="s5" d="m697.7 75.1c0 10.1-8.1 18.2-18.2 18.2-10 0-18.2-8.1-18.2-18.2 0-10 8.2-18.2 18.2-18.2 10.1 0 18.2 8.2 18.2 18.2z"/>
			<path id="&lt;Path&gt;" class="s5" d="m648.2 121.5c0-11.3 8.3-18.8 20-21.7l11.3 9 11.3-9c11.7 2.9 20 10.4 20 21.7"/>
		</g>
		<g id="&lt;Group&gt;">
			<path id="&lt;Path&gt;" class="s6" d="m728 545.4l-27.6 12c-17.6 7.5-44.1-6.5-42-34.2 0.5-7.2 3.3-15.6 6.2-24.3 7.1-21 0.5-32.3 3.5-34 2.6-1.6 11.8 0 14.2 7.3"/>
			<path id="&lt;Path&gt;" class="s6" d="m746.8 521.5l-6.6 2.9q-1.1 0.5-2.3 0.5c-2.2 0-4.6-1.3-5.6-3.9-1.3-3.2 0.1-6.9 3.2-8.2l6.6-2.9q1.1-0.4 2.3-0.4c2.2 0 4.6 1.2 5.6 3.8 1.3 3.2-0.1 6.9-3.2 8.2z"/>
			<path id="&lt;Path&gt;" class="s6" d="m738.2 539.3c-2 0-4.1-1.2-5.1-3.5-1.2-2.9 0.2-6.2 3-7.5l5.9-2.5q1-0.5 2.1-0.5c2 0 4.1 1.2 5.1 3.5 1.2 2.9-0.2 6.2-3 7.5l-5.9 2.5c-0.6 0.3-1.3 0.5-2.1 0.5z"/>
			<path id="&lt;Path&gt;" class="s6" d="m735.6 497l4.4-2.1c0.7-0.3 1.5-0.4 2.3-0.4 2.2 0 4.6 1.2 5.7 3.8 1.3 3.2-0.2 6.9-3.3 8.3l-4.5 2q-1 0.4-2.2 0.4c-2.3 0-4.7-1.2-5.7-3.8-1.3-3.2 0.1-6.9 3.3-8.2z"/>
			<path id="&lt;Path&gt;" class="s8" d="m704.9 536.4h14.2"/>
			<path id="&lt;Path&gt;" class="s8" d="m709.6 451.6h4.9"/>
			<path id="&lt;Path&gt;" class="s6" d="m682.3 527.9h54.8"/>
			<path id="&lt;Path&gt;" class="s6" d="m682.3 459.1h44.7"/>
			<path id="&lt;Path&gt;" class="s5" d="m777.4 493.7c3.5 3 3.3 7.8 0.4 10.7-3.1 3.1-7.7 2.9-10.6-0.3l-10.9-12.6c-3.3 1.8-7 2.9-11 2.9-12.3 0-22.4-10.1-22.4-22.4 0-12.3 10.1-22.4 22.4-22.4 12.3 0 22.4 10.1 22.4 22.4 0 4-1.1 7.7-2.9 10.9z"/>
			<path id="&lt;Path&gt;" class="s5" d="m745.3 486.4c-7.9 0-14.4-6.5-14.4-14.4 0-7.9 6.5-14.4 14.4-14.4 7.9 0 14.4 6.5 14.4 14.4 0 7.9-6.5 14.4-14.4 14.4z"/>
			<path id="&lt;Path&gt;" class="s7" d="m737.4 472c0-4.4 3.5-7.9 7.9-7.9"/>
			<path id="&lt;Path&gt;" class="s6" d="m741.7 538.2c-0.1 3.7-4.1 6.2-7.8 6.7-8.5 0.8-13.8 1.1-21.9 1.1-8.1 0-14.8-0.4-23.2-1.2-3.7-0.5-6.5-4-6.5-7.9v-84.3c0-3.9 2.8-7.3 6.4-7.8 8.5-0.8 15.9-1.2 23.3-1.2 7.5 0 14.9 0.4 23.2 1.2 2.9 0.3 5.2 2.5 6.1 5.2"/>
			<path id="&lt;Path&gt;" class="s6" d="m698.5 515.1v-23.1"/>
			<path id="&lt;Path&gt;" class="s6" d="m709.8 515.1v-34.1"/>
			<path id="&lt;Path&gt;" class="s6" d="m721 515.1v-13.3"/>
		</g>
		<g id="&lt;Group&gt;">
			<path id="&lt;Path&gt;" class="s6" d="m503.3 976.7h-65.5c-1.6 0-2.9-1.3-2.9-2.9v-85.3c0-1.6 1.3-2.9 2.9-2.9h101.1c1.6 0 2.9 1.3 2.9 2.9v44.1"/>
			<path id="&lt;Path&gt;" class="s6" d="m435.4 909.4h106"/>
			<path id="&lt;Path&gt;" class="s6" d="m450.2 923.6h32.3"/>
			<path id="&lt;Path&gt;" class="s6" d="m450.2 936.6h32.3"/>
			<path id="&lt;Path&gt;" class="s6" d="m450.2 949.6h32.3"/>
			<path id="&lt;Path&gt;" class="s6" d="m450.2 962.6h32.3"/>
			<path id="&lt;Path&gt;" class="s5" d="m511.5 962.6h-17.2v-39h32.3v24.3"/>
			<path id="&lt;Path&gt;" class="s7" d="m459 892.2l5.3 5.2-5.3 5.3"/>
			<path id="&lt;Path&gt;" class="s7" d="m449.4 902.7l-5.3-5.3 5.3-5.2"/>
			<path id="&lt;Compound Path&gt;" class="s6" d="m499.3 994.6l5.6-25.1 39.8-39.9c1.4-1.4 3.9-1.4 5.4 0l16 16.1c1.5 1.5 1.5 3.9 0 5.4l-39.8 39.8-24.9 5.8c-0.6 0.1-1.3-0.2-1.6-0.5-0.5-0.5-0.6-1-0.5-1.6z"/>
			<path id="&lt;Path&gt;" class="s6" d="m501.8 982.7l11.2 11.2"/>
			<path id="&lt;Path&gt;" class="s8" d="m512.5 975.7l25.8-25.8"/>
			<path id="&lt;Path&gt;" class="s8" d="m520.5 983.7l25.8-25.7"/>
			<path id="&lt;Path&gt;" class="s6" d="m531.5 942.8l21.5 21.4"/>
			<path id="&lt;Path&gt;" class="s6" d="m536.6 937.7l21.5 21.5"/>
		</g>
		<g id="&lt;Group&gt;">
			<path id="&lt;Path&gt;" class="s6" d="m895.4 971.3h-16c-1.5 0-2.8-1.3-2.8-2.8v-81.7c0-1.6 1.3-2.8 2.8-2.8h96.8c1.6 0 2.8 1.2 2.8 2.8v72.5"/>
			<path id="&lt;Path&gt;" class="s6" d="m877.1 906.8h101.5"/>
			<path id="&lt;Path&gt;" class="s6" d="m891.2 920.4h38.6"/>
			<path id="&lt;Path&gt;" class="s6" d="m891.2 932.9h38.6"/>
			<path id="&lt;Path&gt;" class="s6" d="m891.2 945.3h38.6"/>
			<path id="&lt;Path&gt;" class="s6" d="m891.2 957.8h34.8"/>
			<path id="&lt;Path&gt;" class="s7" d="m899.7 890.3l5.1 5-5.1 5.1"/>
			<path id="&lt;Path&gt;" class="s7" d="m890.4 900.4l-5-5.1 5-5"/>
			<path id="&lt;Path&gt;" class="s7" d="m960.3 943.5v4.2c-0.5 3.4-3.4 6.1-7 6.1-3.9 0-7-3.2-7-7.1 0-2.8 1.6-5.2 4-6.3v-4.5"/>
			<path id="&lt;Path&gt;" class="s6" d="m957.2 922.3c3.2 0 4.2 2.1 2.2 4.6l-5.7 7c-2 2.6-5.3 2.6-7.4 0l-5.6-7c-2.1-2.5-1.1-4.6 2.2-4.6z"/>
			<path id="&lt;Path&gt;" class="s6" d="m950.4 912.7v9.6"/>
			<path id="&lt;Path&gt;" class="s5" d="m923.3 971.8l29.3-17.9 28 17.9"/>
			<path id="&lt;Path&gt;" class="s5" d="m1000.4 986.8v6.2h-96.8v-6.2h2.5v-7.6h-2.5v-7.5h96.8v7.5h-2.6v7.6z"/>
			<path id="&lt;Path&gt;" class="s5" d="m905.4 979.2h92.4"/>
		</g>
		<g id="&lt;Group&gt;">
			<path id="&lt;Path&gt;" class="s8" d="m42.6 545.4h15.2"/>
			<path id="&lt;Path&gt;" class="s8" d="m47.6 454.7h5.3"/>
			<path id="&lt;Path&gt;" class="s6" d="m18.4 536.3h63.6"/>
			<path id="&lt;Path&gt;" class="s6" d="m18.4 462.7h50.3"/>
			<path id="&lt;Path&gt;" class="s5" d="m120.2 502.7c3.7 3.1 3.5 8.3 0.4 11.4-3.3 3.3-8.3 3.1-11.4-0.4l-11.6-13.4c-3.5 1.9-7.5 3.1-11.8 3.1-13.1 0-23.9-10.8-23.9-24 0-13.2 10.8-23.9 23.9-23.9 13.2 0 24 10.7 24 23.9 0 4.3-1.1 8.3-3.1 11.7z"/>
			<path id="&lt;Path&gt;" class="s5" d="m85.8 494.8c-8.4 0-15.3-6.9-15.3-15.4 0-8.5 6.9-15.4 15.3-15.4 8.5 0 15.4 6.9 15.4 15.4 0 8.5-6.9 15.4-15.4 15.4z"/>
			<path id="&lt;Path&gt;" class="s7" d="m77.4 479.4c0-4.6 3.8-8.5 8.4-8.5"/>
			<path id="&lt;Path&gt;" class="s6" d="m26.8 491.4h10.8"/>
			<path id="&lt;Path&gt;" class="s6" d="m43.1 491.4h22"/>
			<path id="&lt;Path&gt;" class="s6" d="m26.8 476.2h10.8"/>
			<path id="&lt;Path&gt;" class="s6" d="m43.1 476.2h19"/>
			<path id="&lt;Path&gt;" class="s6" d="m26.8 506.6h10.8"/>
			<path id="&lt;Path&gt;" class="s6" d="m43.1 506.6h29.2"/>
			<path id="&lt;Path&gt;" class="s6" d="m26.8 521.8h10.8"/>
			<path id="&lt;Path&gt;" class="s6" d="m43.1 521.8h29.2"/>
			<path id="&lt;Path&gt;" class="s6" d="m82 503.1v44c0 4-4.4 6.8-8.4 7.4-9 0.8-14.7 1.1-23.4 1.1-8.6 0-15.8-0.4-24.8-1.3-3.9-0.5-7-4.2-7-8.4v-90.2c0-4.1 3.1-7.8 6.9-8.3 9.1-0.9 17-1.3 25-1.3 7.9 0 15.8 0.4 24.8 1.3 3.9 0.5 6.9 4.1 6.9 8.3"/>
		</g>
		<g id="&lt;Group&gt;">
			<path id="&lt;Path&gt;" class="s5" d="m940.7 488.5l5.1-29.1c0.2-0.9 0.8-1.6 1.6-1.8q0.3-0.1 0.7-0.1c0.6 0 1.1 0.2 1.6 0.6l50.9 49.9c0.6 0.6 0.9 1.5 0.6 2.4-0.3 0.8-1.1 1.4-2 1.5l-23.1 2.1 10.5 32.8c0.4 1.2-0.3 2.5-1.5 2.9l-15.9 5.1q-0.4 0.1-0.7 0.1c-1 0-1.9-0.6-2.2-1.6l-10.6-32.8-9.3 5.6"/>
			<path id="&lt;Path&gt;" class="s8" d="m938.2 437l5 11.3"/>
			<path id="&lt;Path&gt;" class="s8" d="m922.5 460.9l11.1 3.7"/>
			<path id="&lt;Path&gt;" class="s8" d="m966.2 441.8l-4.9 10.7"/>
			<path id="&lt;Path&gt;" class="s7" d="m897.4 559.7c-16.4-2.2-26.4-18.6-26.3-28h-10.4l18.4-18.4 18.3 18.4h-10.8c0 3.2 0.5 6.3 1.5 9.1"/>
			<path id="&lt;Path&gt;" class="s5" d="m926.2 532.2c-1-0.9-3.5-2.3-8-2.9-32.1-3.7-28.1-33.3-6.7-38.7v-7.1h13.8v7.1c9.7 2.5 16.7 10.1 16.7 19h-14.4c0-4.3-4.1-7.7-9.2-7.7-9.2 0-10.6 8.6-8 10.9 1.2 1.1 3.6 2.9 10.1 3.7 32 4.2 24 34 4.8 37.7v6.5h-13.8v-6.5c-8.5-2.2-14.9-8.3-16.3-15.9h14.8c1.4 2.8 4.6 4.7 8.4 4.7 9.2 0 10.8-8 7.8-10.8z"/>
		</g>
		<g id="&lt;Group&gt;">
			<path id="&lt;Path&gt;" class="s8" d="m884.5 693.8h8.5"/>
			<path id="&lt;Path&gt;" class="s8" d="m900.1 693.8h2.7"/>
			<path id="&lt;Path&gt;" class="s8" d="m909.9 693.8h7.2"/>
			<path id="&lt;Path&gt;" class="s8" d="m924.2 693.8h7.4"/>
			<path id="&lt;Path&gt;" class="s8" d="m884.5 719.7h8.5"/>
			<path id="&lt;Path&gt;" class="s8" d="m901.1 719.7h2.7"/>
			<path id="&lt;Path&gt;" class="s8" d="m911.9 719.7h7.2"/>
			<path id="&lt;Path&gt;" class="s8" d="m884.5 706.8h3.4"/>
			<path id="&lt;Path&gt;" class="s8" d="m895 706.8h9.5"/>
			<path id="&lt;Path&gt;" class="s8" d="m911.6 706.8h7.2"/>
			<path id="&lt;Path&gt;" class="s8" d="m925.9 706.8h5.7"/>
			<path id="&lt;Path&gt;" class="s5" d="m872.4 740.5h58.6"/>
			<path id="&lt;Path&gt;" class="s5" d="m916.2 761.7v-9.1h-38.9c-2.7 0-4.9-2.2-4.9-4.8v-67.5c0 0-0.1-4.1 4-4.1h67.6"/>
			<path id="&lt;Path&gt;" class="s6" d="m965 673.9c11 0 19.9 8.9 19.9 19.9 0 11-8.9 19.9-19.9 19.9-11 0-19.8-8.9-19.8-19.9 0-11 8.8-19.9 19.8-19.9z"/>
			<path id="&lt;Path&gt;" class="s6" d="m928.4 770.6v-17.2c0-4 3.2-7.2 7.1-7.2h59c4 0 7.2 3.2 7.2 7.2v17.2"/>
			<path id="&lt;Path&gt;" class="s6" d="m930.6 748v-3.3c0-12.7 10.3-23 23-23h22.9c12.7 0 22.9 10.3 22.9 23v3.3"/>
			<path id="&lt;Path&gt;" class="s7" d="m900.6 761.7h27.8"/>
		</g>
		<g id="&lt;Group&gt;">
			<path id="&lt;Path&gt;" class="s5" d="m664 925.9c2.4-1.8 5.1-2.5 7.9-2.8 5.7-0.6 12.3 4.1 14 11 1.3 5.7-1.2 10.9-5.6 14.3-1.2 0.9-2.6 1.7-4.1 2.4-4.4 1.9-6.3 2.6-9.2 0.6-2.8-1.8-3.8-6.4-4.9-11.2-1.8-7.5-2.2-11.1 1.9-14.3z"/>
			<path id="&lt;Path&gt;" class="s5" d="m677.4 950.8c8.9 7.8 24.1 13.6 34.1 15.2l-5.2 29.2"/>
			<path id="&lt;Path&gt;" class="s5" d="m750.3 995.2l2.3-16.1"/>
			<path id="&lt;Compound Path&gt;" class="s6" d="m674.5 923.2c0-0.4-0.1-0.9-0.3-1.6-0.6-2.3-1.1-3.5-4.3-9.1-3.3-5.5-4.1-9.6-4.1-12.2 0-11.2 9.2-20.3 20.4-20.3 14.6 0 20.4 11.9 20.3 20.4 0 2.8-0.7 6.7-4 12.1-2.4 3.9-3.7 6.5-4.3 9-0.2 1-0.4 2.6-0.4 3.1 0.1 1.7-0.7 2.7-2 2.7h-13.7"/>
			<path id="&lt;Path&gt;" class="s8" d="m687 886.9c-7.7 0-14 6.3-14 14.1"/>
			<path id="&lt;Path&gt;" class="s8" d="m699.1 868.2l-1.9 4.6"/>
			<path id="&lt;Path&gt;" class="s8" d="m673.5 868l1.9 4.7"/>
			<path id="&lt;Path&gt;" class="s8" d="m655.3 886.1l4.7 1.9"/>
			<path id="&lt;Path&gt;" class="s8" d="m712.5 888.2l4.7-1.9"/>
			<path id="&lt;Path&gt;" class="s6" d=""/>
			<path id="&lt;Path&gt;" class="s6" d="m765.9 913.1c0 12.9-10.4 23.2-23.2 23.2-12.8 0-23.2-10.3-23.2-23.2 0-12.8 10.4-23.2 23.2-23.2 12.8 0 23.2 10.4 23.2 23.2z"/>
			<path id="&lt;Path&gt;" class="s5" d="m685.8 927.3h10.1c1.4 0 2 1.5 2 2.5 0 1.3-0.9 2.4-2 2.4 1.1 0 2 1.1 2 2.5 0 1.3-0.9 2.4-2 2.4h-3.3l-0.9 2.9c-0.1 0.4-0.5 0.7-0.9 0.7h-5"/>
			<path id="&lt;Path&gt;" class="s5" d="m693 937.1c9.3 4.1 22.2 6.1 30.1 5.8l11.6 13.7 18.8-9.9c15.7 3.7 24.8 13.1 23 29.4l-3.7 19.1"/>
		</g>
		<g id="&lt;Group&gt;">
			<path id="&lt;Path&gt;" class="s6" d="m491.2 753.6h-52.6c-1.5 0-2.7-1.2-2.7-2.6v-78.9c0-1.5 1.2-2.7 2.7-2.7h93.3c1.5 0 2.7 1.2 2.7 2.7v27.3"/>
			<path id="&lt;Path&gt;" class="s6" d="m436.3 691.4h97.9"/>
			<path id="&lt;Path&gt;" class="s6" d="m450 704.6h29.8"/>
			<path id="&lt;Path&gt;" class="s6" d="m450 716.6h29.8"/>
			<path id="&lt;Path&gt;" class="s6" d="m450 728.6h29.8"/>
			<path id="&lt;Path&gt;" class="s6" d="m450 740.6h29.8"/>
			<path id="&lt;Path&gt;" class="s6" d="m490.7 704.6h29.8"/>
			<path id="&lt;Path&gt;" class="s6" d="m490.7 716.6h29.8"/>
			<path id="&lt;Path&gt;" class="s7" d="m458.2 675.6l4.9 4.8-4.9 4.9"/>
			<path id="&lt;Path&gt;" class="s7" d="m449.3 685.3l-4.9-4.9 4.9-4.8"/>
			<path id="&lt;Compound Path&gt;" fill-rule="evenodd" class="s5" d="m490.3 763.2l-2.6-6.1c-0.2-0.5 0-1.1 0.5-1.3l3.7-2.8q-0.3-2.6 0-5.4l-3.8-2.6c-0.6-0.2-0.8-0.8-0.6-1.3l2.5-6.2c0.1-0.4 0.5-0.8 1.3-0.6l4.6 0.7q1.6-2.2 3.7-3.8l-0.8-4.6c-0.3-0.5 0-1.1 0.5-1.3l6.2-2.7c0.6-0.3 0.9 0.1 1.3 0.6l2.7 3.7q1.5-0.2 3-0.2 1.2 0 2.4 0.1l2.6-3.8c0.5-0.7 0.9-0.7 1.3-0.6l6.3 2.5c0.5 0.2 0.7 0.8 0.5 1.3l-0.7 4.6q2.2 1.6 3.9 3.8l4.5-0.9c0.8-0.2 1.2 0.1 1.4 0.5l2.6 6.2c0.2 0.5 0.1 1-0.5 1.3l-3.7 2.8q0.3 2.6 0 5.3l3.8 2.7c0.6 0.2 0.8 0.8 0.6 1.3l-2.5 6.2c-0.3 0.5-0.5 0.7-1.3 0.6l-4.6-0.7q-1.6 2.2-3.7 3.8l0.8 4.6c0.2 0.5 0 1.1-0.5 1.3l-6.2 2.7c-0.4 0.1-1 0-1.3-0.6l-2.7-3.7q-1.5 0.2-3 0.2-1.2 0-2.4-0.1l-2.6 3.8c-0.4 0.6-0.8 0.8-1.3 0.5l-6.3-2.4c-0.5-0.2-0.7-0.8-0.5-1.3l0.7-4.6q-2.2-1.7-3.9-3.8l-4.5 0.9c-0.5 0.1-1 0.1-1.4-0.6zm32.6-13.2c0-5.7-4.7-10.3-10.4-10.3-5.7 0-10.4 4.6-10.4 10.3 0 5.8 4.7 10.4 10.4 10.4 5.7 0 10.4-4.6 10.4-10.4z"/>
			<path id="&lt;Compound Path&gt;" fill-rule="evenodd" class="s5" d="m534.4 730.8l-3.6-3.7c-0.3-0.3-0.3-0.7 0-1l1.9-3q-1-1.8-1.6-3.9l-3.4-0.7c-0.5 0-0.8-0.4-0.8-0.8v-5.2c0-0.3 0.2-0.7 0.8-0.7l3.4-0.8q0.6-2.1 1.6-3.8l-1.9-3c-0.3-0.3-0.3-0.8 0-1.1l3.6-3.7c0.4-0.4 0.7-0.2 1.1 0l3 1.9q1-0.5 2.1-1 0.8-0.3 1.7-0.6l0.8-3.4c0.1-0.7 0.5-0.8 0.8-0.8h5.1c0.5 0 0.8 0.4 0.8 0.8l0.8 3.4q2 0.6 3.8 1.6l3-1.9c0.5-0.3 0.9-0.2 1.1 0l3.6 3.7q0.5 0.4 0 1.1l-1.8 3q1 1.7 1.5 3.8l3.5 0.8c0.4 0 0.8 0.3 0.8 0.7v5.2c-0.2 0.4-0.2 0.6-0.8 0.7l-3.5 0.8q-0.5 2.1-1.5 3.8l1.8 3c0.3 0.3 0.3 0.8 0 1.1l-3.6 3.7c-0.2 0.2-0.7 0.3-1.1 0l-3-1.9q-1 0.6-2 1-0.9 0.3-1.8 0.6l-0.8 3.4c-0.1 0.6-0.3 0.8-0.7 0.8h-5.2c-0.4 0-0.8-0.4-0.8-0.8l-0.8-3.4q-2-0.6-3.8-1.6l-3 1.9c-0.3 0.2-0.6 0.4-1.1 0zm19.4-18.6c-1.6-4.1-6.2-6.1-10.3-4.5-4 1.7-6 6.3-4.4 10.3 1.6 4.1 6.2 6.1 10.3 4.5 4.1-1.6 6.1-6.3 4.4-10.3z"/>
		</g>
		<g id="&lt;Group&gt;">
			<path id="&lt;Path&gt;" class="s5" d="m518.9 275.9l4.7 22.4c-0.1-2.7 1.7-5.2 4.5-5.7q0.7-0.2 1.3-0.1c3 0 4.8 2.2 5.5 5.6 0.4-4 3.7-5.2 5.6-5.2q0 0 0.1 0c2.5 0 4.8 1.8 5.4 4.4l0.6 3.2c0.7-3.2 3.5-4.2 5.4-4.2q0 0 0 0c2.5 0 4.7 1.7 5.3 4.3l3.9 18.6c1.5 7.2-2.2 19.4-18.1 23-17.5 4-23-4.2-29.8-13.7-8.7-12.2-16.9-15.6-16.3-17.9 0.8-2.8 4.8-4.5 7.2-4.6 3.1-0.2 7.6 2 11.1 6.9l-7.3-34.7c-0.7-3 1.3-5.9 4.3-6.6 2.5-0.7 5.9 0.8 6.6 4.3z"/>
			<path id="&lt;Path&gt;" class="s6" d="m494.2 317.6h-37.3"/>
			<path id="&lt;Path&gt;" class="s6" d="m456.9 317.6c0 3-2.5 5.5-5.5 5.5-3 0-5.5-2.5-5.5-5.5 0-3 2.5-5.5 5.5-5.5 3 0 5.5 2.5 5.5 5.5z"/>
			<path id="&lt;Path&gt;" class="s6" d="m512.7 299.7h-65.1c-2.1 0-3.8-1.8-3.8-3.9v-64.3c0-2.2 1.7-3.9 3.8-3.9h82.5c2.1 0 3.8 1.7 3.8 3.9v64.3"/>
			<path id="&lt;Path&gt;" class="s5" d="m501.9 264.7l-23 16.5v-33z"/>
		</g>
		<g id="&lt;Group&gt;">
			<path id="&lt;Path&gt;" class="s6" d="m892.1 307.4v-22.5"/>
			<path id="&lt;Path&gt;" class="s6" d="m904.5 269.8v37.6"/>
			<path id="&lt;Path&gt;" class="s6" d="m916.8 279.5v27.9"/>
			<path id="&lt;Path&gt;" class="s6" d="m936.4 319.5h-55.5c-1.5 0-2.8-1.3-2.8-2.8v-83.2c0-1.6 1.3-2.8 2.8-2.8h98.5c1.6 0 2.8 1.2 2.8 2.8v60.8"/>
			<path id="&lt;Path&gt;" class="s6" d="m878.5 253.9h103.3"/>
			<path id="&lt;Path&gt;" class="s7" d="m901.6 237.1l5.1 5.1-5.1 5.2"/>
			<path id="&lt;Path&gt;" class="s7" d="m892.1 247.4l-5.1-5.2 5.1-5.1"/>
			<path id="&lt;Path&gt;" class="s6" d="m963.5 314.6l-17.7 21.2c-11.7-9.9-13.2-27.3-3.4-39 5.4-6.5 12.7-9.8 21.1-9.8z"/>
			<path id="&lt;Path&gt;" class="s6" d="m963.5 314.6l27.2 4.8c-2.6 15-16.9 25-32 22.4-5-0.9-9-2.8-12.9-6z"/>
			<path id="&lt;Path&gt;" class="s6" d="m963.5 314.6v-27.6c15.3 0 27.7 12.3 27.7 27.6 0 1.7-0.2 3.1-0.5 4.8z"/>
			<path id="&lt;Path&gt;" class="s6" d="m947.3 271.3c0 2.3-1.9 4.2-4.2 4.2-2.4 0-4.2-1.9-4.2-4.2 0-2.3 1.8-4.2 4.2-4.2 2.3 0 4.2 1.9 4.2 4.2z"/>
			<path id="&lt;Path&gt;" class="s6" d="m935.2 283.9c0 2.3-1.9 4.2-4.2 4.2-2.3 0-4.2-1.9-4.2-4.2 0-2.3 1.9-4.2 4.2-4.2 2.3 0 4.2 1.9 4.2 4.2z"/>
			<path id="&lt;Path&gt;" class="s6" d="m962.7 276.7c0 2.3-1.9 4.2-4.2 4.2-2.3 0-4.2-1.9-4.2-4.2 0-2.3 1.9-4.2 4.2-4.2 2.3 0 4.2 1.9 4.2 4.2z"/>
			<path id="&lt;Path&gt;" class="s6" d="m972.6 265.4c0 2.3-1.8 4.2-4.2 4.2-2.3 0-4.2-1.9-4.2-4.2 0-2.3 1.9-4.2 4.2-4.2 2.4 0 4.2 1.9 4.2 4.2z"/>
			<path id="&lt;Path&gt;" class="s6" d="m933.9 280.9l6.3-6.6"/>
			<path id="&lt;Path&gt;" class="s6" d="m947 272.7l7.6 2.6"/>
			<path id="&lt;Path&gt;" class="s6" d="m961.2 273.5l4.5-5"/>
		</g>
	</g>
</svg>