<svg version="1.2" xmlns="http://www.w3.org/2000/svg" viewBox="0 0 162 121" width="850" height="635">
	<title>iStock-fitness-ai</title>
	<style>
		.s0 { fill: #34444d } 
		.s1 { fill: #b3b9bc } 
		.s2 { fill: #ffffff } 
		.s3 { fill: none;stroke: #ffffff;stroke-linejoin: round;stroke-width: 2 } 
		.s4 { fill: none;stroke: #d9dcde;stroke-width: 2 } 
		.s5 { fill: none;stroke: #011520;stroke-linejoin: round;stroke-width: 4 } 
		.s6 { fill: none;stroke: #011520;stroke-linecap: round;stroke-linejoin: round;stroke-width: 4 } 
		.s7 { fill: none;stroke: #011520;stroke-linejoin: round;stroke-width: 5.1 } 
		.s8 { fill: none;stroke: #011520;stroke-linejoin: round;stroke-width: 5 } 
		.s9 { fill: none;stroke: #011520;stroke-width: 4 } 
		.s10 { fill: none;stroke: #011520;stroke-linecap: round;stroke-width: 4 } 
	</style>
	<g id="Icons">
		<g id="&lt;Group&gt;">
			<g id="&lt;Group&gt;">
				<g id="&lt;Group&gt;">
					<path id="&lt;Path&gt;" class="s0" d="m627-704v218h-109-108.9v-218h108.9z"/>
				</g>
				<g id="&lt;Group&gt;">
					<path id="&lt;Compound Path&gt;" class="s1" d="m464.2-587.6c6 0 9.1 3.6 9.1 9.9v1.2h-5.9v-1.6c0-2.8-1.1-3.9-3.1-3.9-1.9 0-3 1.1-3 3.9 0 8.1 12 9.6 12 20.8 0 6.3-3.1 9.9-9.2 9.9-6 0-9.2-3.6-9.2-9.9v-2.4h5.9v2.8c0 2.8 1.2 3.8 3.2 3.8 1.9 0 3.2-1 3.2-3.8 0-8.1-12.1-9.6-12.1-20.8 0-6.3 3.1-9.9 9.1-9.9z"/>
					<path id="&lt;Compound Path&gt;" class="s1" d="m475.1-587.1h19.1v5.6h-6.5v33.7h-6.2v-33.7h-6.4z"/>
					<path id="&lt;Compound Path&gt;" fill-rule="evenodd" class="s1" d="m509.8-547.8c-0.4-1-0.6-1.7-0.6-4.9v-6.1c0-3.7-1.2-5-4-5h-2.2v16h-6.1v-39.3h9.3c6.4 0 9.1 2.9 9.1 9v3.1c0 4-1.3 6.7-4 8 3.1 1.3 4.1 4.2 4.1 8.3v6.1c0 1.9 0 3.3 0.7 4.8zm-6.8-33.7v12h2.4c2.3 0 3.7-1 3.7-4.1v-3.9c0-2.8-0.9-4-3.1-4z"/>
					<path id="&lt;Compound Path&gt;" fill-rule="evenodd" class="s1" d="m518.9-577.7c0-6.3 3.3-9.9 9.4-9.9 6.1 0 9.4 3.6 9.4 9.9v20.4c0 6.3-3.3 9.9-9.4 9.9-6.1 0-9.4-3.6-9.4-9.9zm6.2 20.9c0 2.8 1.2 3.8 3.2 3.8 2 0 3.2-1 3.2-3.8v-21.3c0-2.8-1.2-3.8-3.2-3.8-2 0-3.2 1-3.2 3.8z"/>
					<path id="&lt;Compound Path&gt;" class="s1" d="m549.7-563.5l-1.9 3.6v12.1h-6.1v-39.3h6.1v17.1l8.1-17.1h6.2l-8.6 17.5 8.6 21.8h-6.4z"/>
					<path id="&lt;Compound Path&gt;" class="s1" d="m571.1-570.6h8.5v5.6h-8.5v11.6h10.6v5.6h-16.8v-39.3h16.8v5.6h-10.6z"/>
				</g>
				<g id="&lt;Group&gt;">
					<path id="&lt;Compound Path&gt;" class="s2" d="m460.5-626.1h6.9v4.6h-6.9v9.5h8.7v4.6h-13.8v-32.3h13.8v4.6h-8.7z"/>
					<path id="&lt;Compound Path&gt;" fill-rule="evenodd" class="s2" d="m472.4-639.7h8c5.1 0 7.5 2.8 7.5 8v16.3c0 5.2-2.4 8-7.5 8h-8zm5 4.6v23h2.9c1.6 0 2.6-0.8 2.6-3.1v-16.8c0-2.3-1-3.1-2.6-3.1z"/>
					<path id="&lt;Compound Path&gt;" class="s2" d="m491.2-639.7h5v32.3h-5z"/>
					<path id="&lt;Compound Path&gt;" class="s2" d="m498.5-639.7h15.6v4.6h-5.3v27.7h-5v-27.7h-5.3z"/>
					<path id="&lt;Compound Path&gt;" fill-rule="evenodd" class="s2" d="m531-607.4h-5.1l-0.9-5.9h-6.2l-0.9 5.9h-4.6l5.1-32.3h7.4zm-11.5-10.2h4.9l-2.5-16.4z"/>
					<path id="&lt;Compound Path&gt;" fill-rule="evenodd" class="s2" d="m548.5-632.3v1.2c0 3.3-1 5.4-3.2 6.5 2.7 1 3.7 3.5 3.7 6.9v2.6c0 5-2.6 7.7-7.7 7.7h-7.9v-32.3h7.6c5.3 0 7.5 2.5 7.5 7.4zm-10.1-2.8v8.5h2c1.9 0 3.1-0.8 3.1-3.4v-1.8c0-2.3-0.8-3.3-2.6-3.3zm0 13.2v9.9h2.9c1.7 0 2.6-0.8 2.6-3.2v-2.8c0-3-1-3.9-3.3-3.9z"/>
					<path id="&lt;Compound Path&gt;" class="s2" d="m552.1-639.7h5.1v27.7h8.3v4.6h-13.4z"/>
					<path id="&lt;Compound Path&gt;" class="s2" d="m572.8-626.1h7v4.6h-7v9.5h8.7v4.6h-13.8v-32.3h13.8v4.6h-8.7z"/>
				</g>
				<path id="&lt;Path&gt;" class="s3" d="m591.1-598.8h-145.3v-50.6h145.3z"/>
			</g>
			<g id="&lt;Group&gt;">
				<g id="&lt;Group&gt;">
					<path id="&lt;Path&gt;" class="s4" d="m627-704v218h-109-108.9v-218h108.9z"/>
				</g>
				<path id="&lt;Path&gt;" class="s4" d="m-463-704h218v218h-218z"/>
				<path id="&lt;Path&gt;" class="s4" d="m-245-704h218v218h-218z"/>
				<path id="&lt;Path&gt;" class="s4" d="m-27-704h218v218h-218z"/>
				<path id="&lt;Path&gt;" class="s4" d="m-463-486h218v218h-218z"/>
				<path id="&lt;Path&gt;" class="s4" d="m-245-486h218v218h-218z"/>
				<path id="&lt;Path&gt;" class="s4" d="m-27-486h218v218h-218z"/>
				<path id="&lt;Path&gt;" class="s4" d="m191-486h218v218h-218z"/>
				<path id="&lt;Path&gt;" class="s4" d="m191-704h218v218h-218z"/>
				<path id="&lt;Path&gt;" class="s4" d="m409-486h218v218h-218z"/>
				<path id="&lt;Path&gt;" class="s4" d="m-463-268h218v218h-218z"/>
				<path id="&lt;Path&gt;" class="s4" d="m-245-268h218v218h-218z"/>
				<path id="&lt;Path&gt;" class="s4" d="m-27-268h218v218h-218z"/>
				<path id="&lt;Path&gt;" class="s4" d="m191-268h218v218h-218z"/>
				<path id="&lt;Path&gt;" class="s4" d="m409-268h218v218h-218z"/>
				<path id="&lt;Path&gt;" class="s4" d="m-463-50h218v218h-218z"/>
				<path id="&lt;Path&gt;" class="s4" d="m-245-50h218v218h-218z"/>
				<path id="&lt;Path&gt;" class="s4" d="m-27-50h218v218h-218z"/>
				<path id="&lt;Path&gt;" class="s4" d="m191-50h218v218h-218z"/>
				<path id="&lt;Path&gt;" class="s4" d="m409-50h218v218h-218z"/>
				<path id="&lt;Path&gt;" class="s4" d="m-463 168h218v218h-218z"/>
				<path id="&lt;Path&gt;" class="s4" d="m-245 168h218v218h-218z"/>
				<path id="&lt;Path&gt;" class="s4" d="m-27 168h218v218h-218z"/>
				<path id="&lt;Path&gt;" class="s4" d="m191 168h218v218h-218z"/>
				<path id="&lt;Path&gt;" class="s4" d="m409 168h218v218h-218z"/>
			</g>
		</g>
		<g id="&lt;Group&gt;">
			<path id="&lt;Path&gt;" class="s5" d="m-350.4 218.9c11.3 0 20.4 9.1 20.4 20.4 0 11.4-9.1 20.5-20.4 20.5-11.3 0-20.5-9.1-20.5-20.5 0-11.3 9.2-20.4 20.5-20.4z"/>
			<path id="&lt;Path&gt;" class="s5" d="m-329.3 325l-46.2 12.8v-15.3l46.2-12.9z"/>
			<path id="&lt;Path&gt;" class="s5" d="m-375.5 322.5v-15.1l24.9 8.1"/>
			<path id="&lt;Path&gt;" class="s5" d="m-329.3 325v12.8l-21.3-6.9"/>
			<path id="&lt;Path&gt;" class="s6" d="m-352.7 323.4v-7.3"/>
			<path id="&lt;Path&gt;" class="s6" d="m-365.6 319.7v5"/>
			<path id="&lt;Path&gt;" class="s6" d="m-339.7 312.5v5"/>
			<path id="&lt;Compound Path&gt;" class="s5" d="m-373.3 308.6v-21.5c-10.4-6.5-29.3-14.4-40.8-42.2-2.2-5-0.2-11.1 3.5-13 4.6-2.4 10.3-2.2 13.6 3.2 6.5 10.7 17.2 22.9 29.3 28.7 14.6 6.9 20.9 3 35.5 7.7 16.7 5.5 24 18 36.9 43.2 2.5 4.9 0.3 11.2-3.3 13.1-6 3.2-11-0.1-12.5-3.8 0 0-6.3-19.4-20.6-27.9v14.4"/>
		</g>
		<g id="&lt;Group&gt;">
			<path id="&lt;Path&gt;" class="s5" d="m-96.2-197.5c5.8 0 10.4 4.6 10.4 10.4 0 9.7-18.7 21.8-18.7 21.8 0 0-18.8-11.6-18.8-21.8 0-5.8 4.6-10.4 10.4-10.4 3.4 0 6.5 1.6 8.4 4.2 1.8-2.6 4.9-4.2 8.3-4.2z"/>
			<path id="&lt;Path&gt;" class="s5" d="m-166.1-104.7l15.3-10.5"/>
			<path id="&lt;Path&gt;" class="s5" d="m-187.2-104.7l84.9-49.4c1.3-0.2 2.9 0.5 3.5 1.7l28 47.7"/>
			<path id="&lt;Path&gt;" class="s5" d="m-100.7-126.6l15 21.9"/>
			<path id="&lt;Path&gt;" class="s5" d="m-174.7-151.1l-0.8 10c-0.2 1.8-0.5 2.9-0.8 3.9-1.4 3.7-4.5 12.1-5.3 14-1.2 2.6-3.6 2.9-6.2 2-0.8-0.3-3.3-2-2.2-5.8 0.6-2.2 3.4-11.8 4.2-14.4l0.5-14.8"/>
			<path id="&lt;Path&gt;" class="s5" d="m-162.7-186.4l7.7 11.2 8.8 5.3c1.3 0.8 2.2 1.8 2.5 2.9 0.2 1 0.1 2.3-0.4 3.3-0.7 1.1-1.9 1.9-3.2 1.9q-1.4 0-3-0.8l-10.4-5.4c-0.9-0.5-1.5-0.9-2.2-1.6l-3.4-3.6-4.3 9.7 0.7 0.3c2.5 1.3 10.7 5.7 13.7 7.6 1.2 0.8 1.3 2.4 1.3 3.7 0.1 1.8 0.1 13.5-0.1 18-0.1 3.2-1.9 5.3-4.7 5.3-3.5 0-4.8-2.2-4.9-4.3l-0.8-14.4-0.5-0.2c-3.2-1.2-13.9-5.6-18.2-7.9-3.8-2.1-4-5.7-3.1-8.1 1.2-3 6.8-14.3 6.8-14.3l-4.9 3.3-8.1 7.8c-0.9 0.9-2.1 1.4-3.3 1.4-1 0-2-0.4-2.9-1.1-0.7-0.7-1.2-1.7-1.2-2.8 0-1.5 0.6-2.9 1.7-4l8.4-9.5c0.8-0.7 1.5-1.1 2.4-1.5 1.5-0.7 9.4-4.9 12.8-5.9 3.2-1 9.2-1.3 12.8 3.7z"/>
			<path id="&lt;Path&gt;" class="s5" d="m-156.3-192.3c-5.5 0-9.9-4.4-9.9-9.9 0-5.4 4.4-9.9 9.9-9.9 5.4 0 9.9 4.5 9.9 9.9 0 5.5-4.5 9.9-9.9 9.9z"/>
		</g>
		<g id="&lt;Group&gt;">
			<path id="&lt;Path&gt;" class="s7" d="m20.8 67.8c-14.9-26.5 2.9-56 30.9-56 12.1 0 22.8 6 29.5 15 6.6-9 17.3-15 29.4-15 28.5 0 47.2 31.8 30.3 56.7-5.5 8.2-15 18-24.9 27.2-1.4-11.4-8.1-14.6-27.2-17.6-23.9-3.6-33.5-34-33.5-34-1.7-4.4-6.1-4.3-8.5-3-3.1 1.7-2.9 4.4-1.8 8.2 6.2 27.4 22.6 39.8 22.6 39.8l-1.4 25.1c-14.7-11.5-36.1-29.9-45.4-46.4z"/>
			<path id="Forma 2" class="s7" d="m155-66"/>
			<path id="Forma 1" class="s7" d="m132-43"/>
			<path id="&lt;Path&gt;" class="s8" d="m78.3 54.3c1.1-7.7 8.3-13 16-11.9 7.7 1.2 13 8.3 11.9 16-1.2 7.7-8.4 13-16.1 11.9-7.7-1.2-13-8.3-11.8-16z"/>
			<path id="&lt;Path&gt;" class="s8" d="m59.9 35.4c2.9-1.1 6.1 0.4 7.2 3.3l1.7 4.4c1 2.9-0.4 6.1-3.3 7.2-2.9 1.1-6.1-0.4-7.2-3.3l-1.7-4.4c-1.1-2.9 0.4-6.1 3.3-7.2z"/>
			<path id="&lt;Path&gt;" class="s8" d="m35.4 46.5c2.9-1.1 6.2 0.3 7.3 3.2l1.6 4.5c1.1 2.9-0.3 6.1-3.2 7.2-2.9 1.1-6.2-0.4-7.2-3.3l-1.7-4.4c-1.1-2.9 0.4-6.1 3.2-7.2z"/>
		</g>
		<g id="&lt;Group&gt;">
			<path id="&lt;Path&gt;" class="s5" d="m-179.7-600.3l-17.7 6.3-6.5-21 45.1-12.1c1.1-2 3.8-4 7.2-5 3.8-1.2 6.9-0.3 8.8 0.7l13-3.5c3.1-4.2 9.2-7.5 16.4-9.7 15-4.7 25.8 4.8 25.8 4.8 0 0-2.6 13.8-18.4 18.7-7.3 2.3-14.2 2.9-19.1 1.3l-37.1 13.2c-1.2 2.1-3.5 4.7-7.8 6-3.7 1.1-7.3 1.2-9.7 0.3z"/>
			<path id="&lt;Path&gt;" class="s5" d="m-114-644.4c2.5-2.9 6.3-5.6 11-7.6 12-4.9 21.5 2.1 21.5 2.1 0 0 0 5.9-6.1 10.1"/>
			<path id="&lt;Path&gt;" class="s5" d="m-87.6-639.8c7.1 0.4 10.9 5.5 10.9 5.5 0 0-3.8 11.2-16.5 13.9-5.4 1.2-10.5 1-14.4-0.2"/>
			<path id="&lt;Path&gt;" class="s5" d="m-84.9-651.7c10.1-0.1 16.8 5.9 16.8 5.9 0 0-1.5 8.1-9.7 13.8"/>
			<path id="&lt;Path&gt;" class="s6" d="m-142.9-612.5v9"/>
			<path id="&lt;Path&gt;" class="s6" d="m-129-617.4l-0.1 13.9"/>
			<path id="&lt;Path&gt;" class="s5" d="m-125.5-535.9l-2-37.4c7-1.3 12.3-8.5 12.3-17.2l-1.1-27.5"/>
			<path id="&lt;Path&gt;" class="s5" d="m-155-608.1l-0.7 17.6c-0.1 8.7 5.3 15.9 12.3 17.2l-2.4 37.4"/>
		</g>
		<g id="&lt;Group&gt;">
			<path id="&lt;Path&gt;" class="s6" d="m295.3 223.8c-6.6 18.7-28 26.6-29.6 27.2-1.1-0.2-5.3-2.5-7.1-3.3l-28.9 20.3c-2.9 1.7-7.6 1.4-10.5-0.2-1.5-0.9-2.3-2-2.3-3.1v-1.1q0-0.1 0-0.1c0-1.1 0.7-2.2 2.1-3 2.4-1.5 45.1-27.4 70.5-41.3 0.9-0.5 3.1-0.9 4.5-0.1 1 0.6 2.2 2.3 1.3 4.7z"/>
			<path id="&lt;Path&gt;" class="s6" d="m370.7 293.9c0 0-9 9.3-17.6 13.1"/>
			<path id="&lt;Path&gt;" class="s6" d="m376.5 297.6c0 0-9.1 8.7-17.6 13.1"/>
			<path id="&lt;Path&gt;" class="s6" d="m382.7 301.3c0 0-11.2 10.5-20.9 16.2-4.4 2.6-10.7 3.1-14.8 1.4-17.3 6.3-25.4 15.5-31.3 19.4-2.6 1.7-7.1 1.5-9.9 0-2.7-1.6-2.5-3.8 0-5.8 4.4-3.4 18.8-13.4 33.2-18.2-2.9-2.4-2.3-6.5 2.3-8.6 13.4-5.8 23-15 23-15"/>
			<path id="&lt;Compound Path&gt;" class="s6" d="m293.7 313.2c-28.4 0-51.3-13.3-51.3-29.7 0-16.4 22.9-29.7 51.3-29.7 28.3 0 51.3 13.3 51.3 29.7 0 16.4-23 29.7-51.3 29.7z"/>
			<path id="&lt;Path&gt;" class="s9" d="m300.8 295.3c-8.8 0-42.7-5.4-42.7-12.9 0-7.5 33.9-12.9 42.7-12.9 8.9 0 10.5 5.4 10.5 12.9 0 7.5-1.6 12.9-10.5 12.9z"/>
			<path id="&lt;Path&gt;" class="s10" d="m295.3 269.9v6.9"/>
			<path id="&lt;Path&gt;" class="s10" d="m282.6 286.7v6.2"/>
			<path id="&lt;Path&gt;" class="s10" d="m268.8 275.2v5.6"/>
			<path id="&lt;Path&gt;" class="s5" d="m311.2 279.6c0.7-0.8 0.9-2.1 1.2-3.4 0.3-1.3 0.6-2.7 1.5-3.8 0.4-0.5 0.9-0.7 1.4-0.9 0.7-0.3 1.2-0.6 1.3-1.6 0.3-2.9 2-3.8 2.9-3.8 0.9-0.1 1.7 0.2 2.4 0.9 1.4 1.4 2 4.4 0.1 7.7-0.8 1.3-3.2 3.5-5.5 5.2q0.3 0 0.6-0.1c2.1-0.4 4.2-0.9 6.2-0.8 1.3 0.1 2.3 0.5 3.1 1.2 0.9 0.9 1.3 2.4 1 3.8-0.3 1.2-1 2-2 2.4-1.7 0.6-3.9-0.3-5.3-0.9q-0.6-0.3-1-0.4c-1.1-0.3-2.2-0.5-3.1-0.5 1 0.7 2.2 1.6 3.3 2.8q2 1.9 2.9 3.8c1.2 2.4 1.4 4.8 0.4 6.6-0.6 1.1-1.5 1.9-2.5 2-0.4 0.1-1.5 0.2-2.4-0.7q-0.9-0.8-1.2-2.8-0.1-0.8-0.5-1.1c-0.2-0.3-0.5-0.4-0.9-0.6-0.4-0.2-0.8-0.4-1.2-0.8l-0.1-0.1c-1-1-1.2-2.6-1.3-4.1-0.2-1.3-0.3-2.6-1-3.4q-0.2-0.2-0.4-0.3"/>
		</g>
		<g id="&lt;Group&gt;">
			<path id="&lt;Path&gt;" class="s5" d="m-395.6-197.4c0-13.5 10.9-24.4 24.4-24.4 13.4 0 24.3 10.9 24.3 24.4 0 13.4-10.9 24.3-24.3 24.3-13.5 0-24.4-10.9-24.4-24.3z"/>
			<path id="&lt;Path&gt;" class="s5" d="m-414.9-102l4.7-39.5c1.3-13.6 14.3-24.7 28.9-24.7 10.9 0 19.8 6.3 22.8 15.1 2.6 7.8 10.3 30.9 10.3 30.9l26.6 2.6c5.4 0.2 9.8 2.8 9.8 9.5 0 6.1-3.9 9.4-10.7 9.4h-34.7c-5.1 0-8.9-2.9-11.4-7.9-3.4-6.9-9.1-18.8-12.7-26.2"/>
			<path id="&lt;Path&gt;" class="s6" d="m-322.6-153.6c0 0 2.4-10.6 12.4-10.6"/>
			<path id="&lt;Path&gt;" class="s6" d="m-329.6-154.4c-1.6-0.4-3.1-1.5-3.7-3.8-1.4-4.6-4.4-3.6-4.4-3.6 0 0 13.8-9.2 14.9 6.6 0 0-4 1.4-6.8 0.8z"/>
			<path id="&lt;Path&gt;" class="s5" d="m-323-157.5c8.9 0 16 4.9 16 13.7 0 5.2-2.5 11.3-6.4 14.8-2.7 2.4-5.9 2.9-9.4 2.9-3.6 0-6.8-0.5-9.5-2.9-3.9-3.5-6.4-9.6-6.4-14.8 0-5.5 2.8-9.5 7-11.7"/>
			<path id="&lt;Path&gt;" class="s6" d="m-318.5-150.9c3 1 5.2 3.3 5.7 6.5"/>
			<path id="&lt;Path&gt;" class="s5" d="m-346.1-132.4c2.7-1.2 5.9-2.1 9.5-2.7"/>
			<path id="&lt;Path&gt;" class="s5" d="m-309.5-134.3c8.6 2.2 14.3 6 14.3 10.5 0 4-4.7 7.5-11.8 9.8"/>
		</g>
		<g id="&lt;Group&gt;">
			<path id="&lt;Path&gt;" class="s5" d="m145.3 243.3c2.6 4.9 2.3 10.5-0.9 15.2-5.2 7.8-20.2 19.3-20.9 19.8-0.4 0.4-0.9 0.5-1.5 0.5-0.4 0-0.9-0.1-1.3-0.4-0.7-0.4-16.1-11-21.4-20.4-2.8-5-2.8-10.8-0.1-15.4 2.7-4.6 7.5-7.3 12.8-7.3 3.7 0 7.3 1.4 10 3.9 2.8-2.5 6.4-3.9 10.1-3.9 5.5 0 10.6 3.1 13.2 8z"/>
			<path id="&lt;Path&gt;" class="s6" d="m106 252.6c-0.3-2.2 0.4-4.5 1.9-6.1 1.5-1.7 3.6-2.6 5.9-2.6"/>
			<path id="&lt;Path&gt;" class="s5" d="m20.4 295.1h123.7"/>
			<path id="&lt;Path&gt;" class="s6" d="m40.8 242.8c0 0-3.5-15-17.6-15"/>
			<path id="&lt;Path&gt;" class="s6" d="m41.1 240.6c1.5-22.4 21.2-9.4 21.2-9.4 0 0-4.4-1.4-6.2 5.1-1 3.3-3.1 4.8-5.4 5.4-3.9 0.9-9.6-1.1-9.6-1.1z"/>
			<path id="&lt;Path&gt;" class="s5" d="m53.7 240.2c6 3.1 10 8.7 10 16.5 0 7.4-3.6 16.1-9.2 21.1-3.7 3.4-8.3 2.4-13.3 2.4-5 0-9.7 1-13.4-2.4-5.5-4.9-9.1-13.7-9.1-21.1 0-12.4 10-19.4 22.7-19.4"/>
			<path id="&lt;Path&gt;" class="s6" d="m35 246.7c-4.3 1.5-7.3 4.6-8.1 9.2"/>
			<path id="&lt;Path&gt;" class="s5" d="m103.9 329.9h-43.3l21.6-24.9z"/>
		</g>
		<g id="&lt;Group&gt;">
			<path id="&lt;Path&gt;" class="s6" d="m258-553.1l-14.8-23.1 30.8-13.7 18.3 28.5"/>
			<path id="&lt;Path&gt;" class="s5" d="m323.8-570c-3.6 7.5-9.4 19.5-12.8 26.4-2.5 5-6.3 7.9-11.4 7.9h-34.9c-6.8 0-10.7-3.3-10.7-9.4 0-5.2 2.5-7.9 6.1-9l30.4-3.1 12.3-28.8c5-12.4 13.8-17.7 23.4-17.7 13.1 0 23 7.7 25.8 25.2l5.5 39.5"/>
			<path id="&lt;Path&gt;" class="s6" d="m328.4-630.5c0 13.1-10.6 23.7-23.7 23.7-13.1 0-23.8-10.6-23.8-23.7 0-13.1 10.7-23.8 23.8-23.8 13.1 0 23.7 10.7 23.7 23.8z"/>
			<path id="&lt;Path&gt;" class="s6" d="m264.8-564.3l-3.7 9.9"/>
		</g>
		<g id="&lt;Group&gt;">
			<path id="&lt;Path&gt;" class="s5" d="m-156-424.8c0-10.5 8.5-19 19-19 10.5 0 19 8.5 19 19 0 10.5-8.5 19-19 19-10.5 0-19-8.5-19-19z"/>
			<path id="&lt;Path&gt;" class="s5" d="m-170.4-323.3l-6.4-0.9c-7.2-1.4-11.4-7.4-9.7-13.4 1.9-6.6 6.3-9 15.4-7.3l32.6 8.3"/>
			<path id="&lt;Path&gt;" class="s5" d="m-88.2-338.4c1.5 6.1-2.5 11.9-9.8 13.4l-61.2 12.6c-3 0.7-8.2 0.9-10.6-6-1.7-4.6 0.7-10 5.5-11.3l59.5-15.8c8.2-2.2 14.8 0.2 16.6 7.1z"/>
			<path id="&lt;Path&gt;" class="s5" d="m-104.2-324c0.4 0.4 0.6 1.5 0.7 2.6 0.3 7-6.4 10.9-12 9.8l-23.4-5"/>
			<path id="&lt;Path&gt;" class="s5" d="m-156.7-341.6c1.9-9.6 2-19.1 0.6-24.3 0 0-2.9 7.3-5.5 12.3-1.2 2-2.1 4.1-5.5 4.8l-28.3 3.9c-4.4 0.8-6.3-2.5-6.9-5.4-0.8-3.9 0.5-7.3 5.1-8.3l22.4-6.1c0 0 8.1-17.7 12.9-25 4.9-7.4 15.5-8.5 24.8-8.5 9.3 0 19.7 0.6 25 8.5 3.8 5.5 12.9 25 12.9 25l22.5 6c4.6 1 5.8 4.3 5 8.3-0.6 2.9-2.8 6.3-7.2 5.5l-28-3.9c-3.3-0.7-4.3-2.8-5.4-4.8-2.7-5-5.6-12.3-5.6-12.3-1.2 5-1.2 17.2 0.4 23.5"/>
		</g>
		<g id="&lt;Group&gt;">
			<path id="&lt;Path&gt;" class="s5" d="m442.3 281.7l-5.4-36.9c-0.3-2.1 1.1-4 3.1-4.3l14.3-2.1c2-0.3 3.8 1.2 4.1 3.3l5.1 39.4"/>
			<path id="&lt;Path&gt;" class="s5" d="m449.2 321.3h-7.6c-0.6 0-0.9-0.6-0.9-0.9v-35.6c0-2 1.7-3.7 3.7-3.7h52.5c2.1 0 3.8 1.7 3.8 3.7v35.6c0 0.3-0.3 0.9-1 0.9h-7.6c-0.5 0-1-0.4-1-0.9v-3.8h-40.9v3.8c0 0.5-0.4 0.9-1 0.9z"/>
			<path id="&lt;Path&gt;" class="s5" d="m502.7 220.5c6.4 0 11.6 5.2 11.6 11.6 0 6.5-5.2 11.7-11.6 11.7-6.5 0-11.7-5.2-11.7-11.7 0-6.4 5.2-11.6 11.7-11.6z"/>
			<path id="&lt;Path&gt;" class="s5" d="m499.6 282.3c0 0 4.4 0 6 0 1.6 0 5.4 0.9 6.6 4.9 0.9 3 2.2 7.3 2.2 7.3"/>
			<path id="&lt;Path&gt;" class="s5" d="m516.7 320.1c-3.7 1.6-6.7-1-7.4-2.1l-8.6-18.7"/>
			<path id="&lt;Path&gt;" class="s5" d="m462.9 277c0.9-6.6 2.4-14.4 3.6-18.1 4.2-12.8 10.5-18.7 18.1-17.5 6.1 1 8.3 6.1 9.8 9.1 1.8 3.6 7.2 16.9 7.2 16.9 0 0 11.7 3.1 16.9 4.8 1.7 0.5 3.7 3 3 6.4-1 4.5-5.6 4-5.6 4 0 0-15.5-2.1-20.4-3.5-1.8-0.5-2.7-1.1-3.8-2.8-0.8-1.3-5-9.4-5-9.4 0 0-1.1 11.3-1.5 14.2"/>
			<path id="&lt;Path&gt;" class="s5" d="m523.4 320l-10.9-17.1c-0.6-1-0.3-2 0.7-2.4l22.7-10.1c1.2-0.5 2.2-0.2 2.9 1l12.4 19.6"/>
			<path id="&lt;Path&gt;" class="s5" d="m574.1 305.7c-2.7 5.6-7 14.4-9.5 19.5-1.8 3.8-4.7 5.9-8.5 5.9h-25.8c-5 0-7.9-2.5-7.9-7 0-3.8 1.8-5.8 4.5-6.6l22.5-2.3 9.1-21.4c3.7-9.1 10.2-13.1 17.3-13.1 9.7 0 17.1 5.7 19.1 18.7l4.1 29.2"/>
			<path id="&lt;Path&gt;" class="s6" d="m530.2 308.9l-2.3 8.4"/>
			<path id="&lt;Path&gt;" class="s5" d="m579 259.6c0 9.7-7.9 17.6-17.6 17.6-9.8 0-17.7-7.9-17.7-17.6 0-9.8 7.9-17.7 17.7-17.7 9.7 0 17.6 7.9 17.6 17.7z"/>
		</g>
		<g id="&lt;Group&gt;">
			<path id="&lt;Path&gt;" class="s5" d="m-307.8-421c0 7.5-6.1 13.6-13.6 13.6h-50c-8.9 0-16.2-7.2-16.2-16.2 0-8.9 7.3-16.1 16.2-16.1q0.8 0 1.5 0.1c3.8-5.7 10.1-9.4 17.4-9.4 5 0 9.5 1.7 13.1 4.7 1.8-1 3.9-1.5 6.1-1.5 6.7 0 12.3 4.9 13.4 11.3 6.8 0.7 12.1 6.5 12.1 13.5z"/>
			<path id="&lt;Path&gt;" class="s9" d="m-349.7-398.2c14.4 0 26.1 11.7 26.1 26.1 0 14.4-11.7 26.1-26.1 26.1-14.4 0-26.1-11.7-26.1-26.1 0-14.4 11.7-26.1 26.1-26.1z"/>
			<path id="&lt;Path&gt;" class="s9" d="m-330.7-354.1c10.4 4 18.4 15.2 18.4 25.2v21.1"/>
			<path id="&lt;Path&gt;" class="s9" d="m-402.3-307.8v-21.1c0-14.3 13.4-26.1 30-30"/>
			<path id="&lt;Path&gt;" class="s9" d="m-379.4-307.8v-13.6"/>
			<path id="&lt;Path&gt;" class="s9" d="m-335.2-307.8v-13.6"/>
		</g>
		<g id="&lt;Group&gt;">
			<path id="&lt;Path&gt;" class="s5" d="m-341.7-645.4c0 8.8-7.1 15.9-15.8 15.9-8.7 0-15.8-7.1-15.8-15.9 0-8.7 7.1-15.8 15.8-15.8 8.7 0 15.8 7.1 15.8 15.8z"/>
			<path id="&lt;Path&gt;" class="s9" d="m-391.3-573.6h-21.6"/>
			<path id="&lt;Path&gt;" class="s10" d="m-386.3-573.6h-0.9"/>
			<path id="&lt;Path&gt;" class="s5" d="m-346.3-621l37.1 17.3c3.1 1.9 4.4 5.1 2.9 8.5-1.5 3.5-5 4.8-8.4 3.7l-27.5-10.6v22.9l14.4 41.1c0.9 3.5-0.8 6.8-4.7 8.4-4 1.5-7.6 0.1-9.4-3l-15.6-35.6-15.6 35.6c-1.8 3.1-5.4 4.5-9.4 3-3.9-1.6-5.6-4.9-4.8-8.4l14.5-41.1v-22.9l-27.6 10.7c-3.5 1-6.9-0.2-8.4-3.7-1.5-3.4-0.3-6.6 2.9-8.5l37.2-17.4c5.3-2.9 17.5-2.7 22.4 0z"/>
			<path id="&lt;Path&gt;" class="s9" d="m-328-625.9h21.5"/>
			<path id="&lt;Path&gt;" class="s10" d="m-333-625.9h0.8"/>
			<path id="&lt;Path&gt;" class="s9" d="m-316.1-544.8h21.6"/>
			<path id="&lt;Path&gt;" class="s10" d="m-321-544.8h0.8"/>
			<path id="&lt;Path&gt;" class="s9" d="m-386.4-649.4h-21.6"/>
			<path id="&lt;Path&gt;" class="s10" d="m-381.5-649.4h-0.8"/>
		</g>
		<g id="&lt;Group&gt;">
			<path id="&lt;Path&gt;" class="s5" d="m323.3-5l-0.7 15.1 13.5 6.9-10.3 11.2 5.9 13.9-15.1 2-4.4 14.4-12.8-8.1-12.7 8.1-4.5-14.4-15-1.9 5.8-14-10.3-11.1 13.5-6.9-0.8-15.2 14.8 3.4 9.2-12.1 9.1 12z"/>
			<path id="&lt;Path&gt;" class="s5" d="m299.2 40.8c-9.5 0-17.3-7.7-17.3-17.2 0-9.5 7.8-17.3 17.3-17.3 9.5 0 17.2 7.8 17.2 17.3 0 9.5-7.7 17.2-17.2 17.2z"/>
			<path id="&lt;Path&gt;" class="s5" d="m316.3 80.1c0 9.4-7.6 16.9-16.9 16.9-9.3 0-16.9-7.5-16.9-16.9 0-9.3 7.6-16.8 16.9-16.8 9.3 0 16.9 7.5 16.9 16.8z"/>
			<path id="&lt;Path&gt;" class="s5" d="m277.4 134.7v-13.2c0 0-20.4-9.9-33.5-40.7-1.9-4.2-0.3-8.8 2.8-10.5 2.2-1.2 6.6-2.8 9.7 1.9 5.7 11.2 20.5 32.5 43 32.5 21.9 0 34.7-16.4 42.6-32.5 2.6-4 7.5-3.6 10.2-2 3.6 2.1 4 6.4 2.6 10.6-11.8 30.3-33.2 40.7-33.2 40.7l0.2 13.3"/>
		</g>
		<g id="&lt;Group&gt;">
			<path id="&lt;Path&gt;" class="s5" d="m-395.6 110.6l-1.7-0.5c-3.8-1.1-6.5-3.8-6.5-8 0-5.6 4.8-9.8 10.8-9.8h2.1"/>
			<path id="&lt;Path&gt;" class="s5" d="m-346.1 34.3c2.8-2.5 4.3-5 5.6-6.7 5.8-7.1 10.2-16 10.2-16 2.3-4.1 5.1-5.6 7.6-5.5 3.1 0.1 6.2 2 7 4.7"/>
			<path id="&lt;Path&gt;" class="s5" d="m-306.1 21.6c0 0-6.6 10.6-15.6 19.5-5.6 5.6-21.1 11.4-27.3 14.3l-14.1 26.6 26 20c5 4 6.2 11 3.2 16.3-3.1 5.4-9.9 6-9.9 6h-42.1c-6 0-10.9-3.1-10.9-8.7 0-5.6 3.7-9.8 9.7-9.8l23.8-0.1c-8.4-3.3-21-8.6-25-11.1-4.5-2.9-6-8.2-4.2-14.6 1-3.2 2.2-7.2 3.6-11.7 2.3-7.1 4.4-13.9 7.8-21.2 4.3-9.2 9.9-9.2 14.3-9.4 24.4-0.8 35.2-10.6 35.2-10.6 6.5-6.5 13.5-14.3 13.5-14.3 3-3.5 8.2-4.7 11.4-2.2 2.9 2.3 3.4 6.3 0.6 11z"/>
			<path id="&lt;Path&gt;" class="s5" d="m-377.3 12.3c0-9.4 7.6-17.1 17.1-17.1 9.4 0 17 7.7 17 17.1 0 9.5-7.6 17.1-17 17.1-9.5 0-17.1-7.6-17.1-17.1z"/>
		</g>
		<g id="&lt;Group&gt;">
			<path id="&lt;Path&gt;" class="s5" d="m542.9-402.3c2.7-2.7 7.8-3.4 11.3 0.1 3.1 3.1 3.1 8.1 0 11.2l-25.3 25.3 22.2-22.2c2.7-2.7 7.8-3.5 11.3 0 1.5 1.5 2.4 3.6 2.4 5.7 0 2.2-0.8 4.2-2.3 5.7l-24.1 24.1 16.5-16.6c2.6-2.5 7.3-3.2 10.5 0 2.9 2.9 3 7.7 0.1 10.6l-32.7 32.8c-9.7 9.8-27.5 12.7-43-2.8-15.3-15.3-16.3-26.9-7.7-46.8 4.5-10.4 4.8-18.2 4.9-22.8 0.1-3.5 0.2-5.8 2.2-6.8 2.9-1.4 7.5-0.1 10.6 3 2.2 2.2 5.6 7.4 3 16.6q-0.1 0.3-0.2 0.6l23.4-23.4c2.7-2.7 7.8-3.5 11.3 0 1.5 1.5 2.3 3.5 2.3 5.7 0 2.1-0.8 4.1-2.4 5.6l-18 18z"/>
			<path id="&lt;Path&gt;" class="s5" d="m477.4-360.9c-10.1-12.7-9.8-23.7-2.3-40.9 4.4-10.4 4.7-18.2 4.8-22.8 0.2-3.5 0.2-5.8 2.3-6.8 2.8-1.4 7.4-0.1 10.5 3 2.2 2.2 5.6 7.4 3 16.6q-0.1 0.3-0.1 0.6l23.3-23.4c2.7-2.7 7.8-3.5 11.3 0 1.5 1.5 2.3 3.5 2.3 5.7 0 2.1-0.8 4.1-2.3 5.6l-18 18 23.6-23.6c2.7-2.7 7.8-3.4 11.3 0.1 3.1 3.1 3.1 8.1 0 11.2l-9.7 9.8 6.7-6.7c2.7-2.7 7.7-3.5 11.2 0 1.5 1.5 2.4 3.6 2.4 5.7 0 2.2-0.8 4.2-2.3 5.7l-1 1"/>
		</g>
		<g id="&lt;Group&gt;">
			<path id="&lt;Path&gt;" class="s5" d="m591.2-160.5c0 0.7-0.5 1.5-1.5 2.1l-84.5 48.8c-2 1.1-5.1 1.1-7.1 0l-53.9-31.4c-1-0.6-1.5-1.3-1.5-2v-11.5c-0.2-0.8 0.3-1.7 1.4-2.4l84.5-48.8c2-1.1 5.2-1.1 7.1 0l54 31.4c0.9 0.5 1.4 1.3 1.4 2z"/>
			<path id="&lt;Path&gt;" class="s5" d="m546.4-172.3c-5.1 2.1-11-0.3-13.1-5.4-2.1-5.1 0.3-11 5.4-13.2 5.1-2.1 11 0.3 13.1 5.4 2.1 5.1-0.2 11-5.4 13.2z"/>
			<path id="&lt;Path&gt;" class="s5" d="m505.7-139.1c-2.1 0.5-4.5 0.2-5.7-1.6-0.8-1.5-0.7-4.4 1.6-5.6 2.6-1.4 14-4.3 18.9-10.8-4.4-7.9-12.5-11.6-14.9-12.1 7.1-7.5 18.1-7.7 24.5-2.8 8.2 6.4 5.5 15.8-3.8 23.1-6.3 5-16.5 8.8-20.6 9.8z"/>
		</g>
		<g id="&lt;Group&gt;">
			<path id="&lt;Path&gt;" class="s5" d="m119.7-339.9c0 0-14.8-9.2-14.8-17.3 0-4.5 3.7-8.2 8.2-8.2 2.7 0 5.1 1.3 6.6 3.4 1.5-2.1 3.9-3.4 6.6-3.4 4.6 0 8.2 3.7 8.2 8.2 0 7.7-14.8 17.3-14.8 17.3z"/>
			<g id="&lt;Group&gt;">
				<path id="&lt;Path&gt;" class="s10" d="m37.8-339.9c-1.8-5-2.8-10.4-2.8-15.9 0-26.1 21.1-47.2 47.1-47.2 13.1 0 25 5.4 33.5 14"/>
			</g>
			<path id="&lt;Path&gt;" class="s10" d="m88.3-362.9l17.8-17.8"/>
			<path id="&lt;Path&gt;" class="s10" d="m70.5-345.1l5-5"/>
			<path id="&lt;Path&gt;" class="s6" d="m21.6-334.4c-2.4-6.7-3.7-13.9-3.7-21.4 0-35.5 28.7-64.3 64.2-64.3 35.5 0 64.2 28.8 64.2 64.3 0 7.5-1.3 14.7-3.7 21.4"/>
			<path id="&lt;Path&gt;" class="s10" d="m91-356.5c0 5-4.1 9.1-9.1 9.1-5 0-9.1-4.1-9.1-9.1 0-5 4.1-9.1 9.1-9.1 5 0 9.1 4.1 9.1 9.1z"/>
		</g>
		<g id="&lt;Group&gt;">
			<path id="&lt;Path&gt;" class="s6" d="m-149.3 8.7c0-7.3 6-13.3 13.3-13.3 7.3 0 13.3 6 13.3 13.3 0 7.3-6 13.2-13.3 13.2-7.3 0-13.3-5.9-13.3-13.2z"/>
			<path id="&lt;Path&gt;" class="s6" d="m-150.7 89v-33.3l-1.1-15c0 0-14-6.3-23.4-28.4-1.3-3-1-6 1.2-7.2 1.6-0.8 4.5-1.8 6.6 1.7 7.9 13 17.2 23.5 31.5 23.5 14.3 0 22-9 31.2-23.5 1.8-2.9 4.9-2.8 6.9-1.7 2.5 1.5 1.9 4.3 0.9 7.2-8.4 21.8-23.2 28.5-23.2 28.5l-1 14.9v31.9"/>
			<path id="&lt;Path&gt;" class="s6" d="m-136 89v-25.1"/>
			<path id="&lt;Path&gt;" class="s5" d="m-121.1 63.5c23.5 3.8 40.7 16.3 40.7 31 0 17.8-24.9 32.2-55.6 32.2-30.7 0-55.6-14.4-55.6-32.2 0-14.8 17.3-27.3 40.8-31"/>
			<path id="&lt;Path&gt;" class="s5" d="m-121.1 73.8c14.3 3.2 24.4 11 24.4 20 0 12-17.6 21.7-39.3 21.7-21.7 0-39.3-9.7-39.3-21.7 0-9 10.2-16.8 24.6-20"/>
			<path id="&lt;Path&gt;" class="s5" d="m-121.3 86.2c3.8 1.9 6.1 4.6 6.1 7.6 0 6-9.3 10.9-20.8 10.9-11.5 0-20.8-4.9-20.8-10.9 0-3 2.3-5.7 6.1-7.6"/>
			<path id="&lt;Path&gt;" class="s5" d="m-144.2 45.1c-2-3.5 0.4-7.5 4.2-7.5 1.6 0 3.1 0.8 4 2 0.9-1.2 2.3-2 3.9-2 3.9 0 6.4 4.3 4.1 7.6-2 3-8 7.7-8 7.7 0 0-6.2-4.2-8.2-7.8z"/>
		</g>
		<g id="&lt;Group&gt;">
			<path id="&lt;Path&gt;" class="s5" d="m68.4-124.9c-3.3-5.9 0.7-12.5 6.9-12.5 2.7 0 5.1 1.4 6.6 3.4 1.5-2 3.8-3.4 6.5-3.4 6.4 0 10.5 7.1 6.8 12.7-3.4 4.9-13.3 12.6-13.3 12.6 0 0-10.2-7-13.5-12.8z"/>
			<path id="&lt;Path&gt;" class="s5" d="m81.9-157.5c-10.2 0-18.6-8.3-18.6-18.6 0-10.3 8.4-18.6 18.6-18.6 10.3 0 18.6 8.3 18.6 18.6 0 10.3-8.3 18.6-18.6 18.6z"/>
			<path id="&lt;Path&gt;" class="s5" d="m49.8-125.8c0-15 14.4-23.6 32.1-23.6 17.7 0 32.1 8.6 32.1 23.6"/>
			<path id="&lt;Path&gt;" class="s6" d="m152.8-164.1l-14.3 12.9-14.4-12.9"/>
			<path id="&lt;Path&gt;" class="s6" d="m11-151.2l14.4-12.9 14.3 12.9"/>
			<path id="&lt;Path&gt;" class="s9" d="m136.7-142.3c-6.7 24-28.7 41.5-54.8 41.5-31.4 0-56.9-25.4-56.9-56.9q0-3.2 0.3-6.4"/>
			<path id="&lt;Path&gt;" class="s9" d="m27.4-174.1c7-23.4 28.8-40.5 54.5-40.5 31.4 0 56.9 25.5 56.9 56.9q0 3.2-0.3 6.3"/>
		</g>
		<g id="&lt;Group&gt;">
			<path id="&lt;Path&gt;" class="s5" d="m274-149.1c-3 0.6-14.7 1.2-21.6-1.6-2.1-0.9-5.9-3.5-4.5-8.6 0.2-0.6 3.7-11.8 9.8-23.8 1.5-3.2 5.2-4.7 8.5-3.2 3.2 1.4 3.7 5.1 2.4 8.4-2.8 6.9-4 9.4-6.3 15.5 2.7 0.1 7.4 0.1 12.5-0.7"/>
			<path id="&lt;Path&gt;" class="s6" d="m274-202.3c9 2.5 24 6.8 38.4 8.4 10.2 1 34 0.4 37.6 0.2 3.4 0 6.2 2.8 6.2 6.2 0 3.4-2.5 5.4-6.8 5.8l-29.6 2.4c-4.3 13.4-17.7 23.6-23.5 27.4l-2.7 39.8c0 3.9-2.2 6-6.1 6-3.9 0-6.4-2.3-6.4-6.2 0 0-1.9-27-2.4-35.6-0.2-4-2.3-12.8 3.4-18.2 3.7-3.5 13.4-8.5 14.5-17.2 0 0-20.6-5.7-26.3-7.5-3.3-1-5.2-4.3-4.2-7.6 1.2-3.6 4.7-4.7 7.9-3.9z"/>
			<path id="&lt;Path&gt;" class="s6" d="m326.6-212.7c0 6.9-5.6 12.5-12.4 12.5-6.9 0-12.5-5.6-12.5-12.5 0-6.8 5.6-12.4 12.5-12.4 6.8 0 12.4 5.6 12.4 12.4z"/>
			<path id="&lt;Path&gt;" class="s5" d="m300.7-113h50.6l9.7 16.4h-118.2l9.7-16.4h20.6"/>
		</g>
		<g id="&lt;Group&gt;">
			<path id="&lt;Path&gt;" class="s5" d="m244.7-359.7v-8.9c0-11.9 10.5-23.9 32.7-23.9 8.7 0 14.5 1 18.8 2.9"/>
			<path id="&lt;Path&gt;" class="s5" d="m277.4-401.2c-10.4 0-18.8-8.4-18.8-18.8 0-10.3 8.4-18.8 18.8-18.8 10.4 0 18.8 8.5 18.8 18.8 0 10.4-8.4 18.8-18.8 18.8z"/>
			<path id="&lt;Path&gt;" class="s5" d="m345.5-390.6c0 11.7-9.5 21.2-21.2 21.2-11.8 0-21.2-9.5-21.2-21.2 0-11.7 9.4-21.2 21.2-21.2 11.7 0 21.2 9.5 21.2 21.2z"/>
			<path id="&lt;Path&gt;" class="s5" d="m286.7-333.9c0-17.6 16.6-27.1 36.8-27.1 19.2 0 35.2 8.8 36.7 24.4"/>
			<path id="&lt;Path&gt;" class="s5" d="m283.4-312.1v-17.3c0-2.1 1.1-4.5 3.2-4.5 18.4 0 54.8-1.2 73.6-2.7 1.2-0.1 2.3 0.4 3.3 1.2 1 1 1.6 2.3 1.6 3.6v17.1"/>
			<path id="&lt;Path&gt;" class="s5" d="m282-345.7c-8.4 0-15.3-2.9-15.3-6.6 0-3.6 6.9-6.6 15.3-6.6 4 0 7.6 0.7 10.3 1.8"/>
			<path id="&lt;Path&gt;" class="s5" d="m277.1-329.1c-23.2-0.8-41.5-9-41.5-19 0-10.5 20.2-19 45.2-19 8.5 0 16.4 0.9 23.2 2.7"/>
		</g>
		<g id="&lt;Group&gt;">
			<path id="&lt;Path&gt;" class="s5" d="m468.3 16.2c0-6.9 5.5-12.5 12.4-12.5 6.9 0 12.5 5.6 12.5 12.5 0 6.9-5.6 12.4-12.5 12.4-6.9 0-12.4-5.5-12.4-12.4z"/>
			<path id="&lt;Path&gt;" class="s5" d="m457.1 41.9c-1.4-4.3 1.2-5.4 4.9-7.2 2-0.9 3.9-1.8 5.4-1.8 2 0 2.7 1.2 3.6 3.7 1.2 3.9 0.2 8.3-3.6 10-1.1 0.5-2.3 0.7-3.3 0.7-2.4 0-4.5-1-5.9-2.8-0.7-0.9-0.9-2.1-1.1-2.6z"/>
			<path id="&lt;Path&gt;" class="s5" d="m504.3 13.2c0-6.9 5.6-12.4 12.5-12.4 6.9 0 12.5 5.5 12.5 12.4 0 6.9-5.6 12.5-12.5 12.5-6.9 0-12.5-5.6-12.5-12.5z"/>
			<path id="&lt;Path&gt;" class="s5" d="m523.9 122.8c-3.9 0-7.1-3.2-7.1-7 0 3.8-3.2 7-7.1 7-3.9 0-7.1-2.3-7.1-7v-66.9c0-8-4.7-11.7-4.7-11.7 2.7-2.4 6.4-2.9 11.7-2.9h14.4c5.3 0 8.9 0.5 11.7 2.9-1.7 2.4-4.7 5-4.7 11.7v66.9c0 5-3.2 7-7.1 7z"/>
			<path id="&lt;Path&gt;" class="s5" d="m470.8 36.2c1.4-0.3 3-0.3 3-0.3h13.8c4 0 7.9 0.2 10.3 1.3"/>
			<path id="&lt;Path&gt;" class="s5" d="m552.9 28.6c-6.9 0-12.4-5.5-12.4-12.4 0-6.9 5.5-12.5 12.4-12.5 6.9 0 12.5 5.6 12.5 12.5 0 6.9-5.6 12.4-12.5 12.4z"/>
			<path id="&lt;Path&gt;" class="s5" d="m502.6 56l-8.3-2v61.8c0 4.5-3.2 7-7.1 7-3.9 0-7.1-3.2-7.1-7 0 3.8-3.2 7-7.1 7-3.9 0-7.1-3.1-7.1-7 0 0 0-32.9 0-32.9-4.5 0-7.4-2.6-7.4-6.5v-24.2q0.1-3 0.7-5.5 0.1-0.4 0.3-0.9"/>
			<path id="&lt;Path&gt;" class="s5" d="m575.4 44.5c-1.3 1.8-3.5 2.8-5.8 2.8-1.1 0-2.2-0.2-3.4-0.7-3.8-1.7-4.8-6.1-3.5-10 0.8-2.5 1.5-3.7 3.5-3.7 1.6 0 3.5 0.9 5.4 1.8 3.8 1.8 6.3 2.9 4.9 7.2-0.1 0.5-0.3 1.7-1.1 2.6z"/>
			<path id="&lt;Path&gt;" class="s5" d="m535.7 37.2c2.5-1.1 6.3-1.3 10.4-1.3h13.7c0 0 1.6 0 3 0.3"/>
			<path id="&lt;Path&gt;" class="s5" d="m574.1 45.8q0.2 0.5 0.3 0.9 0.7 2.5 0.7 5.5v24.2c0 3.9-2.8 6.5-7.4 6.5 0 0 0 32.9 0 32.9 0 3.9-3.2 7-7.1 7-3.9 0-7.1-3.2-7.1-7 0 3.8-3.1 7-7 7-3.9 0-7.2-2.5-7.2-7v-61.8l-8.3 2"/>
		</g>
		<g id="&lt;Group&gt;">
			<path id="&lt;Path&gt;" class="s5" d="m-172.6 340.1v-24.1"/>
			<path id="&lt;Path&gt;" class="s5" d="m-163.3 292.2v6.5c2 0.7 4.1 1.4 6.3 2 6.6 1.8 14.4 2.2 23.5 1.2 3.9-0.4 7.7 2 8.3 6.9 0.5 5.2-4.2 8.6-8.3 9.6-13.5 4.1-34.1 0.3-41.1-3.5-9.2-4.9-8.3-19.9-8.3-25.4 0-3.1 0.1-10.7 3.1-13.2"/>
			<path id="&lt;Path&gt;" class="s5" d="m-98.6 264.2c9 0.8 16.1 15 4.4 19.9-9.7 4-23.5 7.4-32.8 6.1-4.2-0.5-9.3-2.3-9.4-7.6-0.1-5 3.5-7.6 7.4-8 4.8-0.5 23.4-3.4 30.4-10.4z"/>
			<path id="&lt;Path&gt;" class="s9" d="m-168.8 235.2c0-11.5 9.4-20.9 21-20.9 11.5 0 20.9 9.4 20.9 20.9 0 11.6-9.4 21-20.9 21-11.6 0-21-9.4-21-21z"/>
			<path id="&lt;Path&gt;" class="s9" d="m-134.1 219.4c3.7-3.2 8.4-5.1 13.7-5.1 11.6 0 20.9 9.4 20.9 21 0 11.5-9.3 20.9-20.9 20.9-5.3 0-10.1-1.9-13.7-5.1"/>
			<path id="&lt;Path&gt;" class="s6" d="m-150.6 302v-11.5c-6.7-1.5-22.1-8.5-25.1-10.5-13.1-8.8-4.2-23.9 0.8-21.3 12.8 6.6 36.8 7.1 36.8 7.1h24.3c4.2 0.3 6.6 0.5 9.7 1.7"/>
			<path id="&lt;Path&gt;" class="s5" d="m-101.2 340.1v-27.6c7.8-0.1 12.3-4.9 12.3-11l0.1-6.9c0-5.4-0.3-8.7-1.5-12.4"/>
			<path id="&lt;Path&gt;" class="s5" d="m-150.6 320.2v19.9"/>
		</g>
		<g id="&lt;Group&gt;">
			<path id="&lt;Path&gt;" class="s5" d="m58.1-559.4c0 11.4-6.7 14.2-14.1 14.2-7.4 0-11.3-2-11-19.5 0.2-13.2 8.8-13.8 8.8-13.8-1.8 3 2.3 5.2 5.8 5.4 4.4 0.2 10.4 1.9 10.5 13.7z"/>
			<path id="&lt;Path&gt;" class="s5" d="m115.2-573.1c3.5-0.2 7.6-2.4 5.8-5.4 0 0 8.6 0.6 8.8 13.8 0.3 17.5-3.6 19.5-11 19.5-7.4 0-14.1-2.8-14.1-14.2 0.1-11.8 6.1-13.5 10.5-13.7z"/>
			<path id="&lt;Path&gt;" class="s5" d="m41.8-578.5c3.3-19.6 10.7-31.6 39.2-31.6 29.3 0 37.3 17.2 40 31.6"/>
			<path id="&lt;Path&gt;" class="s5" d="m81.6-666.2c13.5 0 24.3 10.9 24.3 24.3 0 13.4-10.8 24.3-24.3 24.3-13.4 0-24.3-10.9-24.3-24.3 0-13.4 10.9-24.3 24.3-24.3z"/>
			<path id="&lt;Path&gt;" class="s5" d="m42.4-575c3.1-8.7 11.4-15 21.1-15 7.4 0 13.9 3.7 18 9.2 4.1-5.5 10.6-9.2 18-9.2 9.7 0 18 6.2 21.1 14.9"/>
			<path id="&lt;Path&gt;" class="s5" d="m111.6-546.5c-11.9 14.1-30.1 25.9-30.1 25.9 0 0-18.6-11.5-30.5-25.8"/>
		</g>
	</g>
</svg>